M48
; DRILL file {KiCad (5.1.4)-1} date 12/11/2020 07:59:03
; FORMAT={-:-/ absolute / inch / decimal}
; #@! TF.CreationDate,2020-11-12T07:59:03-08:00
; #@! TF.GenerationSoftware,Kicad,Pcbnew,(5.1.4)-1
; #@! TF.FileFunction,Plated,1,2,PTH
FMAT,2
INCH
T1C0.0157
T2C0.0276
T3C0.0579
%
G90
G05
T1
X7.5312Y-5.4062
X7.7456Y-5.59
X7.765Y-4.855
X7.785Y-5.59
X7.7928Y-4.8272
X7.8233Y-4.8023
X7.83Y-5.59
X7.8332Y-5.3415
X7.8508Y-4.774
X7.8694Y-5.59
X7.8787Y-4.7463
X7.8982Y-5.7915
X7.9065Y-4.7184
X7.9375Y-4.581
X7.9382Y-5.7915
X7.945Y-5.405
X7.9782Y-5.7915
X8.0182Y-5.7915
X8.0293Y-5.4216
X8.0625Y-4.5625
X8.097Y-5.7927
X8.1226Y-5.5058
X8.1595Y-6.1677
X8.166Y-5.65
X8.1682Y-5.8565
X8.185Y-4.755
X8.222Y-4.597
X8.222Y-5.8552
X8.2606Y-5.3931
X8.2812Y-7.4375
X8.2812Y-7.4827
X8.2812Y-7.522
X8.2812Y-7.5625
X8.2932Y-5.3665
X8.3232Y-5.3365
X8.42Y-5.21
X8.4407Y-6.1677
X8.453Y-4.843
X8.6187Y-5.0625
X8.9246Y-7.1562
X8.964Y-7.1562
X9.1907Y-5.2302
X9.4062Y-5.7812
X11.7182Y-4.6865
X12.4382Y-4.6865
X13.2182Y-4.6865
X13.9682Y-4.6865
T3
X3.9775Y-4.4115
X4.2275Y-4.3115
X5.7077Y-5.2913
X5.9713Y-5.2362
X6.4461Y-5.4212
X6.7097Y-5.3662
X13.2595Y-6.6615
X13.5095Y-6.5615
X8.8021Y-6.3961
X9.031Y-6.2542
X12.1161Y-5.1611
X12.3661Y-5.0611
X11.2567Y-5.2019
X11.4856Y-5.06
X12.8661Y-5.1609
X13.1161Y-5.0609
X10.2035Y-4.626
X10.4324Y-4.4841
X5.9471Y-6.095
X6.2107Y-6.0399
X9.5407Y-6.266
X9.7696Y-6.1241
X12.6031Y-4.4107
X12.8531Y-4.3107
X5.6531Y-4.52
X5.9167Y-4.4649
X9.0407Y-5.5926
X9.2696Y-5.4507
X5.3551Y-6.752
X5.6187Y-6.6969
X2.1031Y-4.9737
X2.3531Y-4.8737
X2.2917Y-4.2239
X2.5417Y-4.1239
X3.3215Y-5.9115
X3.5715Y-5.8115
X6.6851Y-6.225
X6.9487Y-6.1699
X5.2091Y-5.965
X5.4727Y-5.9099
X10.871Y-6.7928
X11.0998Y-6.6509
X14.1033Y-4.4105
X14.3533Y-4.3105
X9.7797Y-5.4622
X10.0086Y-5.3203
X7.1307Y-4.7806
X7.3943Y-4.7255
X8.7261Y-4.8864
X8.955Y-4.7445
X13.4471Y-5.9111
X13.6971Y-5.8111
X7.4244Y-6.3553
X7.688Y-6.3002
X11.0177Y-6.0055
X11.2466Y-5.8636
X11.8533Y-5.9117
X12.1033Y-5.8117
X3.1335Y-6.6615
X3.3835Y-6.5615
X4.3535Y-5.9115
X4.6035Y-5.8115
X3.2275Y-4.4115
X3.4775Y-4.3115
X4.0895Y-5.1615
X4.3395Y-5.0615
X6.3919Y-4.6503
X6.6555Y-4.5952
X1.9155Y-5.7239
X2.1655Y-5.6239
X10.5181Y-5.332
X10.747Y-5.1901
X6.8321Y-7.013
X7.0957Y-6.9579
X9.4648Y-4.7563
X9.6937Y-4.6144
X12.3213Y-6.6619
X12.5713Y-6.5619
X10.2784Y-6.1359
X10.5073Y-5.994
X13.3519Y-4.4105
X13.6019Y-4.3105
X7.1846Y-5.5515
X7.4482Y-5.4964
X11.8533Y-4.3733
X12.1033Y-4.2733
X10.9422Y-4.4956
X11.1711Y-4.3537
X12.6035Y-5.9117
X12.8535Y-5.8117
X4.9151Y-4.389
X5.1787Y-4.3339
X4.9691Y-5.161
X5.2327Y-5.1059
X9.5775Y-7.0211
X9.8064Y-6.8792
X13.8033Y-5.1613
X14.0533Y-5.0613
X3.2475Y-5.1615
X3.4975Y-5.0615
X4.0715Y-6.6615
X4.3215Y-6.5615
T2
G00X7.9845Y-3.6753
M15
G01X7.9845Y-3.7226
M16
G05
G00X7.9845Y-3.8525
M15
G01X7.9845Y-3.8997
M16
G05
G00X8.2719Y-3.6753
M15
G01X8.2719Y-3.7226
M16
G05
G00X8.2719Y-3.8525
M15
G01X8.2719Y-3.8997
M16
G05
T0
M30
