0
SECTION
2
HEADER
9
$INSUNITS
70
4
9
$ACADVER
1
AC1014
9
$HANDSEED
5
FFFF
0
ENDSEC
0
SECTION
2
TABLES
0
TABLE
2
VPORT
5
8
100
AcDbSymbolTable
0
ENDTAB
0
TABLE
2
LTYPE
5
5
100
AcDbSymbolTable
0
LTYPE
5
14
100
AcDbSymbolTableRecord
100
AcDbLinetypeTableRecord
2
BYBLOCK
70
0
0
LTYPE
5
15
100
AcDbSymbolTableRecord
100
AcDbLinetypeTableRecord
2
BYLAYER
70
0
0
ENDTAB
0
TABLE
2
LAYER
5
2
100
AcDbSymbolTable
70
2
0
LAYER
5
50
100
AcDbSymbolTableRecord
100
AcDbLayerTableRecord
2
0
70
0
6
CONTINUOUS
0
ENDTAB
0
TABLE
2
STYLE
5
3
100
AcDbSymbolTable
70
1
0
STYLE
5
11
100
AcDbSymbolTableRecord
100
AcDbTextStyleTableRecord
2
STANDARD
70
0
0
ENDTAB
0
TABLE
2
VIEW
5
6
100
AcDbSymbolTable
70
0
0
ENDTAB
0
TABLE
2
UCS
5
7
100
AcDbSymbolTable
70
0
0
ENDTAB
0
TABLE
2
APPID
5
9
100
AcDbSymbolTable
70
2
0
APPID
5
12
100
AcDbSymbolTableRecord
100
AcDbRegAppTableRecord
2
ACAD
70
0
0
ENDTAB
0
TABLE
2
DIMSTYLE
5
A
100
AcDbSymbolTable
70
1
0
ENDTAB
0
TABLE
2
BLOCK_RECORD
5
1
100
AcDbSymbolTable
70
1
0
BLOCK_RECORD
5
1F
100
AcDbSymbolTableRecord
100
AcDbBlockTableRecord
2
*MODEL_SPACE
0
BLOCK_RECORD
5
1B
100
AcDbSymbolTableRecord
100
AcDbBlockTableRecord
2
*PAPER_SPACE
0
ENDTAB
0
ENDSEC
0
SECTION
2
BLOCKS
0
BLOCK
5
20
100
AcDbEntity
100
AcDbBlockBegin
2
*MODEL_SPACE
0
ENDBLK
5
21
100
AcDbEntity
100
AcDbBlockEnd
0
BLOCK
5
1C
100
AcDbEntity
100
AcDbBlockBegin
2
*PAPER_SPACE
0
ENDBLK
5
1D
100
AcDbEntity
100
AcDbBlockEnd
0
ENDSEC
0
SECTION
2
ENTITIES
0
SPLINE
5
100
100
AcDbEntity
8
0
100
AcDbSpline
70
0
71
3
72
9
73
5
74
0
42
0.000000001
43
0.0000000001
44
0.0000000001
40
0
40
0
40
0
40
0
40
0.0062243890546786924
40
0.012928261231312473
40
0.012928261231312473
40
0.012928261231312473
40
0.012928261231312473
10
-146.76647980445435
20
-87.643554855500966
30
0
10
-146.74542067174858
20
-87.645874992958269
30
0
10
-146.7016801589796
20
-87.650693994932141
30
0
10
-146.66718141884897
20
-87.678147256618104
30
0
10
-146.64929230445435
20
-87.692382980500966
30
0
0
SPLINE
5
101
100
AcDbEntity
8
0
100
AcDbSpline
70
0
71
3
72
9
73
5
74
0
42
0.000000001
43
0.0000000001
44
0.0000000001
40
0
40
0
40
0
40
0
40
0.024293218993833163
40
0.049156337706632851
40
0.049156337706632851
40
0.049156337706632851
40
0.049156337706632851
10
-146.64929230445435
20
-87.692382980500966
30
0
10
-146.58738855789801
20
-87.745630037544203
30
0
10
-146.46212885181291
20
-87.853373285508439
30
0
10
-146.30755393101524
20
-87.911836108656644
30
0
10
-146.22937042945435
20
-87.941406418000966
30
0
0
SPLINE
5
102
100
AcDbEntity
8
0
100
AcDbSpline
70
0
71
3
72
9
73
5
74
0
42
0.000000001
43
0.0000000001
44
0.0000000001
40
0
40
0
40
0
40
0
40
0.15144592206319163
40
0.28642720896971585
40
0.28642720896971585
40
0.28642720896971585
40
0.28642720896971585
10
-146.22937042945435
20
-87.941406418000966
30
0
10
-146.67386596907545
20
-88.199569792933929
30
0
10
-147.51453315296993
20
-88.687829984643798
30
0
10
-148.02164133503658
20
-89.514650677008689
30
0
10
-148.26062042945435
20
-89.904297043000966
30
0
0
SPLINE
5
103
100
AcDbEntity
8
0
100
AcDbSpline
70
0
71
3
72
9
73
5
74
0
42
0.000000001
43
0.0000000001
44
0.0000000001
40
0
40
0
40
0
40
0
40
0.11766058479419235
40
0.2554095631438591
40
0.2554095631438591
40
0.2554095631438591
40
0.2554095631438591
10
-148.26062042945435
20
-89.904297043000966
30
0
10
-148.40280243550706
20
-90.272886714011975
30
0
10
-148.71144142549986
20
-91.07299600309068
30
0
10
-148.73577691891538
20
-91.931511709551387
30
0
10
-148.74890167945435
20
-92.394531418000966
30
0
0
SPLINE
5
104
100
AcDbEntity
8
0
100
AcDbSpline
70
0
71
3
72
9
73
5
74
0
42
0.000000001
43
0.0000000001
44
0.0000000001
40
0
40
0
40
0
40
0
40
0.039755585308062634
40
0.077533931180061064
40
0.077533931180061064
40
0.077533931180061064
40
0.077533931180061064
10
-148.74890167945435
20
-92.394531418000966
30
0
10
-148.74508214427209
20
-92.527414946253998
30
0
10
-148.73763303804799
20
-92.786573055855399
30
0
10
-148.67626442467255
20
-93.038420510113596
30
0
10
-148.64636261695435
20
-93.161132980500966
30
0
0
SPLINE
5
105
100
AcDbEntity
8
0
100
AcDbSpline
70
0
71
3
72
9
73
5
74
0
42
0.000000001
43
0.0000000001
44
0.0000000001
40
0
40
0
40
0
40
0
40
0.039276490583975025
40
0.069180727520007673
40
0.069180727520007673
40
0.069180727520007673
40
0.069180727520007673
10
-148.64636261695435
20
-93.161132980500966
30
0
10
-148.77705600110278
20
-93.14859771339718
30
0
10
-149.00725638975788
20
-93.126518375732246
30
0
10
-149.22915506825819
20
-93.062047988698353
30
0
10
-149.32507355445435
20
-93.034179855500966
30
0
0
SPLINE
5
106
100
AcDbEntity
8
0
100
AcDbSpline
70
0
71
3
72
9
73
5
74
0
42
0.000000001
43
0.0000000001
44
0.0000000001
40
0
40
0
40
0
40
0
40
0.010495917525691392
40
0.019413736613986744
40
0.019413736613986744
40
0.019413736613986744
40
0.019413736613986744
10
-149.32507355445435
20
-93.034179855500966
30
0
10
-149.35918300422935
20
-93.018818438091913
30
0
10
-149.42227342699221
20
-92.990405246880499
30
0
10
-149.43596962282297
20
-92.923370921751186
30
0
10
-149.44226105445435
20
-92.892578293000966
30
0
0
SPLINE
5
107
100
AcDbEntity
8
0
100
AcDbSpline
70
0
71
3
72
9
73
5
74
0
42
0.000000001
43
0.0000000001
44
0.0000000001
40
0
40
0
40
0
40
0
40
0.0053181203395488196
40
0.011825738960282141
40
0.011825738960282141
40
0.011825738960282141
40
0.011825738960282141
10
-149.44226105445435
20
-92.892578293000966
30
0
10
-149.44034245544057
20
-92.874811049639987
30
0
10
-149.43607612642626
20
-92.835302582622376
30
0
10
-149.41801840206739
20
-92.799806721277093
30
0
10
-149.40808136695435
20
-92.780273605500966
30
0
0
SPLINE
5
108
100
AcDbEntity
8
0
100
AcDbSpline
70
0
71
3
72
9
73
5
74
0
42
0.000000001
43
0.0000000001
44
0.0000000001
40
0
40
0
40
0
40
0
40
0.018565124788530139
40
0.039082381031171266
40
0.039082381031171266
40
0.039082381031171266
40
0.039082381031171266
10
-149.40808136695435
20
-92.780273605500966
30
0
10
-149.38104081857483
20
-92.723877693599945
30
0
10
-149.32411639565299
20
-92.605155813589889
30
0
10
-149.31834025593096
20
-92.473442948131591
30
0
10
-149.31530792945435
20
-92.404297043000966
30
0
0
SPLINE
5
109
100
AcDbEntity
8
0
100
AcDbSpline
70
0
71
3
72
9
73
5
74
0
42
0.000000001
43
0.0000000001
44
0.0000000001
40
0
40
0
40
0
40
0
40
0.1481161151909344
40
0.28083006968402302
40
0.28083006968402302
40
0.28083006968402302
40
0.28083006968402302
10
-149.31530792945435
20
-92.404297043000966
30
0
10
-149.29764562298001
20
-91.906726761105517
30
0
10
-149.2641576615143
20
-90.963327072575566
30
0
10
-148.92088854408425
20
-90.084999728085776
30
0
10
-148.75866730445435
20
-89.669922043000966
30
0
0
SPLINE
5
110
100
AcDbEntity
8
0
100
AcDbSpline
70
0
71
3
72
9
73
5
74
0
42
0.000000001
43
0.0000000001
44
0.0000000001
40
0
40
0
40
0
40
0
40
0.13193519529193679
40
0.27661591444686029
40
0.27661591444686029
40
0.27661591444686029
40
0.27661591444686029
10
-148.75866730445435
20
-89.669922043000966
30
0
10
-148.52822790938109
20
-89.289445212829747
30
0
10
-148.04508765365381
20
-88.491735806550636
30
0
10
-147.27931363633584
20
-87.957276981298023
30
0
10
-146.87878449195435
20
-87.677734543000966
30
0
0
SPLINE
5
111
100
AcDbEntity
8
0
100
AcDbSpline
70
0
71
3
72
9
73
5
74
0
42
0.000000001
43
0.0000000001
44
0.0000000001
40
0
40
0
40
0
40
0
40
0.0062839539434735112
40
0.011843181256332741
40
0.011843181256332741
40
0.011843181256332741
40
0.011843181256332741
10
-146.87878449195435
20
-87.677734543000966
30
0
10
-146.86007752254022
20
-87.667776828634928
30
0
10
-146.82482105320244
20
-87.649009820283766
30
0
10
-146.78511700988582
20
-87.645297452744941
30
0
10
-146.76647980445435
20
-87.643554855500966
30
0
0
SPLINE
5
112
100
AcDbEntity
8
0
100
AcDbSpline
70
0
71
3
72
9
73
5
74
0
42
0.000000001
43
0.0000000001
44
0.0000000001
40
0
40
0
40
0
40
0
40
0.016250488567343697
40
0.040461681826734673
40
0.040461681826734673
40
0.040461681826734673
40
0.040461681826734673
10
-181.56628449195435
20
-93.834961105500966
30
0
10
-181.52410929174624
20
-93.800414242340224
30
0
10
-181.41909832393893
20
-93.714396878645061
30
0
10
-181.34927553035561
20
-93.597369804029128
30
0
10
-181.30749542945435
20
-93.527343918000966
30
0
0
SPLINE
5
113
100
AcDbEntity
8
0
100
AcDbSpline
70
0
71
3
72
9
73
5
74
0
42
0.000000001
43
0.0000000001
44
0.0000000001
40
0
40
0
40
0
40
0
40
0.13934945064774473
40
0.27179714604278415
40
0.27179714604278415
40
0.27179714604278415
40
0.27179714604278415
10
-181.30749542945435
20
-93.527343918000966
30
0
10
-181.07330765285045
20
-93.125524014396888
30
0
10
-180.6165310453851
20
-92.341785703875289
30
0
10
-180.06009430332278
20
-91.625443436155095
30
0
10
-179.78894074195435
20
-91.276367355500966
30
0
0
SPLINE
5
114
100
AcDbEntity
8
0
100
AcDbSpline
70
0
71
3
72
9
73
5
74
0
42
0.000000001
43
0.0000000001
44
0.0000000001
40
0
40
0
40
0
40
0
40
0.2009555431232638
40
0.3844857308871108
40
0.3844857308871108
40
0.3844857308871108
40
0.3844857308871108
10
-179.78894074195435
20
-91.276367355500966
30
0
10
-180.32282003988433
20
-90.870150817743991
30
0
10
-181.34428463289737
20
-90.092941789366421
30
0
10
-182.24482129855548
20
-89.17862641800248
30
0
10
-182.67468292945435
20
-88.742187668000966
30
0
0
SPLINE
5
115
100
AcDbEntity
8
0
100
AcDbSpline
70
0
71
3
72
9
73
5
74
0
42
0.000000001
43
0.0000000001
44
0.0000000001
40
0
40
0
40
0
40
0
40
0.0071772776348091307
40
0.01184955771513253
40
0.01184955771513253
40
0.01184955771513253
40
0.01184955771513253
10
-182.67468292945435
20
-88.742187668000966
30
0
10
-182.69289715851124
20
-88.725676650454247
30
0
10
-182.72296852671354
20
-88.698417254160802
30
0
10
-182.7338635749278
20
-88.659770020511047
30
0
10
-182.73815949195435
20
-88.644531418000966
30
0
0
SPLINE
5
116
100
AcDbEntity
8
0
100
AcDbSpline
70
0
71
3
72
9
73
5
74
0
42
0.000000001
43
0.0000000001
44
0.0000000001
40
0
40
0
40
0
40
0
40
0.0038602022218852286
40
0.010160733423332464
40
0.010160733423332464
40
0.010160733423332464
40
0.010160733423332464
10
-182.73815949195435
20
-88.644531418000966
30
0
10
-182.7347382305627
20
-88.631994537018159
30
0
10
-182.7257328668606
20
-88.598995254000243
30
0
10
-182.7032640016071
20
-88.572851917062764
30
0
10
-182.68933136695435
20
-88.556640793000966
30
0
0
SPLINE
5
117
100
AcDbEntity
8
0
100
AcDbSpline
70
0
71
3
72
9
73
5
74
0
42
0.000000001
43
0.0000000001
44
0.0000000001
40
0
40
0
40
0
40
0
40
0.015373106925225748
40
0.039369783219559695
40
0.039369783219559695
40
0.039369783219559695
40
0.039369783219559695
10
-182.68933136695435
20
-88.556640793000966
30
0
10
-182.65452914577867
20
-88.519022293933944
30
0
10
-182.56540234077366
20
-88.422683137476028
30
0
10
-182.47251224956599
20
-88.329956451705499
30
0
10
-182.41589386695435
20
-88.273437668000966
30
0
0
SPLINE
5
118
100
AcDbEntity
8
0
100
AcDbSpline
70
0
71
3
72
9
73
5
74
0
42
0.000000001
43
0.0000000001
44
0.0000000001
40
0
40
0
40
0
40
0
40
0.0040797790446944343
40
0.0068979910516805661
40
0.0068979910516805661
40
0.0068979910516805661
40
0.0068979910516805661
10
-182.41589386695435
20
-88.273437668000966
30
0
10
-182.40601815880709
20
-88.263585187828625
30
0
10
-182.38932055198023
20
-88.246926854296092
30
0
10
-182.36658773413507
20
-88.241482358900512
30
0
10
-182.35730011695435
20
-88.239257980500966
30
0
0
SPLINE
5
119
100
AcDbEntity
8
0
100
AcDbSpline
70
0
71
3
72
9
73
5
74
0
42
0.000000001
43
0.0000000001
44
0.0000000001
40
0
40
0
40
0
40
0
40
0.0041305967567599198
40
0.01046062222671313
40
0.01046062222671313
40
0.01046062222671313
40
0.01046062222671313
10
-182.35730011695435
20
-88.239257980500966
30
0
10
-182.34380542650467
20
-88.242887638617802
30
0
10
-182.30963049557502
20
-88.252079647571549
30
0
10
-182.28457269363335
20
-88.27755378167376
30
0
10
-182.26940949195435
20
-88.292968918000966
30
0
0
SPLINE
5
120
100
AcDbEntity
8
0
100
AcDbSpline
70
0
71
3
72
9
73
5
74
0
42
0.000000001
43
0.0000000001
44
0.0000000001
40
0
40
0
40
0
40
0
40
0.18843991412487351
40
0.3817663412050063
40
0.3817663412050063
40
0.3817663412050063
40
0.3817663412050063
10
-182.26940949195435
20
-88.292968918000966
30
0
10
-181.84131043647233
20
-88.754173226146122
30
0
10
-180.97401111274007
20
-89.688541521134283
30
0
10
-179.96690692547895
20
-90.470319058891761
30
0
10
-179.45690949195435
20
-90.866211105500966
30
0
0
SPLINE
5
121
100
AcDbEntity
8
0
100
AcDbSpline
70
0
71
3
72
9
73
5
74
0
42
0.000000001
43
0.0000000001
44
0.0000000001
40
0
40
0
40
0
40
0
40
0.24063415138380181
40
0.46012665503025907
40
0.46012665503025907
40
0.46012665503025907
40
0.46012665503025907
10
-179.45690949195435
20
-90.866211105500966
30
0
10
-178.88514575342691
20
-90.299002922763165
30
0
10
-177.79185232452946
20
-89.214420363188438
30
0
10
-176.47614027202792
20
-88.415355019017085
30
0
10
-175.84851105445435
20
-88.034179855500966
30
0
0
SPLINE
5
122
100
AcDbEntity
8
0
100
AcDbSpline
70
0
71
3
72
9
73
5
74
0
42
0.000000001
43
0.0000000001
44
0.0000000001
40
0
40
0
40
0
40
0
40
0.0062839539434735112
40
0.010880675228571834
40
0.010880675228571834
40
0.010880675228571834
40
0.010880675228571834
10
-175.84851105445435
20
-88.034179855500966
30
0
10
-175.82980745929532
20
-88.024291839265928
30
0
10
-175.79742215756289
20
-88.007170725031784
30
0
10
-175.76125247347238
20
-88.002129793102995
30
0
10
-175.74597199195435
20
-88.000000168000966
30
0
0
SPLINE
5
123
100
AcDbEntity
8
0
100
AcDbSpline
70
0
71
3
72
9
73
5
74
0
42
0.000000001
43
0.0000000001
44
0.0000000001
40
0
40
0
40
0
40
0
40
0.0050640792267313333
40
0.011394104696684542
40
0.011394104696684542
40
0.011394104696684542
40
0.011394104696684542
10
-175.74597199195435
20
-88.000000168000966
30
0
10
-175.72897259961451
20
-88.003083536939727
30
0
10
-175.69072421379201
20
-88.010021072261338
30
0
10
-175.66346157446347
20
-88.038107574010837
30
0
10
-175.64831574195435
20
-88.053711105500966
30
0
0
SPLINE
5
124
100
AcDbEntity
8
0
100
AcDbSpline
70
0
71
3
72
9
73
5
74
0
42
0.000000001
43
0.0000000001
44
0.0000000001
40
0
40
0
40
0
40
0
40
0.024390858113300849
40
0.051494866061511935
40
0.051494866061511935
40
0.051494866061511935
40
0.051494866061511935
10
-175.64831574195435
20
-88.053711105500966
30
0
10
-175.58964928290112
20
-88.110776620872599
30
0
10
-175.4657905224912
20
-88.231255410800514
30
0
10
-175.31025764578857
20
-88.306876930764503
30
0
10
-175.22839386695435
20
-88.346679855500966
30
0
0
SPLINE
5
125
100
AcDbEntity
8
0
100
AcDbSpline
70
0
71
3
72
9
73
5
74
0
42
0.000000001
43
0.0000000001
44
0.0000000001
40
0
40
0
40
0
40
0
40
0.23258828368728138
40
0.4605984075540332
40
0.4605984075540332
40
0.4605984075540332
40
0.4605984075540332
10
-175.22839386695435
20
-88.346679855500966
30
0
10
-175.90770680617854
20
-88.727790386918016
30
0
10
-177.25296140403358
20
-89.482509846943714
30
0
10
-178.3613491028066
20
-90.555015149024428
30
0
10
-178.91003449195435
20
-91.085937668000966
30
0
0
SPLINE
5
126
100
AcDbEntity
8
0
100
AcDbSpline
70
0
71
3
72
9
73
5
74
0
42
0.000000001
43
0.0000000001
44
0.0000000001
40
0
40
0
40
0
40
0
40
0.16393320347474549
40
0.33463700237416794
40
0.33463700237416794
40
0.33463700237416794
40
0.33463700237416794
10
-178.91003449195435
20
-91.085937668000966
30
0
10
-179.26685706021786
20
-91.5017448304596
30
0
10
-179.99523930427955
20
-92.350532382105939
30
0
10
-180.54087599453931
20
-93.327055230676677
30
0
10
-180.81921417945435
20
-93.825195480500966
30
0
0
LINE
5
127
100
AcDbEntity
8
0
100
AcDbLine
10
-180.81921417945435
20
-93.825195480500966
30
0
11
-177.69909699195435
21
-93.825195480500966
31
0
0
SPLINE
5
128
100
AcDbEntity
8
0
100
AcDbSpline
70
0
71
3
72
9
73
5
74
0
42
0.000000001
43
0.0000000001
44
0.0000000001
40
0
40
0
40
0
40
0
40
0.078746800736124681
40
0.1402801677578821
40
0.1402801677578821
40
0.1402801677578821
40
0.1402801677578821
10
-177.69909699195435
20
-93.825195480500966
30
0
10
-177.43649848671424
20
-93.824286443691861
30
0
10
-176.96870345220236
20
-93.822667078398482
30
0
10
-176.50231106692459
20
-93.787090204628953
30
0
10
-176.29772980445435
20
-93.771484543000966
30
0
0
LINE
5
129
100
AcDbEntity
8
0
100
AcDbLine
10
-176.29772980445435
20
-93.771484543000966
30
0
11
-176.26843292945435
21
-93.771484543000966
31
0
0
SPLINE
5
130
100
AcDbEntity
8
0
100
AcDbSpline
70
0
71
3
72
9
73
5
74
0
42
0.000000001
43
0.0000000001
44
0.0000000001
40
0
40
0
40
0
40
0
40
0.006446653284429147
40
0.013226777345463726
40
0.013226777345463726
40
0.013226777345463726
40
0.013226777345463726
10
-176.26843292945435
20
-93.771484543000966
30
0
10
-176.24520408541773
20
-93.775279131547862
30
0
10
-176.19754482184192
20
-93.783064594114762
30
0
10
-176.18630427503118
20
-93.830286254128197
30
0
10
-176.18054230445435
20
-93.854492355500966
30
0
0
SPLINE
5
131
100
AcDbEntity
8
0
100
AcDbSpline
70
0
71
3
72
9
73
5
74
0
42
0.000000001
43
0.0000000001
44
0.0000000001
40
0
40
0
40
0
40
0
40
0.024393607153389972
40
0.04907627263770227
40
0.04907627263770227
40
0.04907627263770227
40
0.04907627263770227
10
-176.18054230445435
20
-93.854492355500966
30
0
10
-176.16772504794341
20
-93.934893483175316
30
0
10
-176.14193865353917
20
-94.096648472394975
30
0
10
-176.1383845237354
20
-94.260410376278671
30
0
10
-176.13659699195435
20
-94.342773605500966
30
0
0
SPLINE
5
132
100
AcDbEntity
8
0
100
AcDbSpline
70
0
71
3
72
9
73
5
74
0
42
0.000000001
43
0.0000000001
44
0.0000000001
40
0
40
0
40
0
40
0
40
0.061806647568483968
40
0.15043272092848015
40
0.15043272092848015
40
0.15043272092848015
40
0.15043272092848015
10
-176.13659699195435
20
-94.342773605500966
30
0
10
-176.34246361093187
20
-94.334294541118012
30
0
10
-176.84352744240442
20
-94.313657137598582
30
0
10
-177.34504104870066
20
-94.313543612678274
30
0
10
-177.64050324195435
20
-94.313476730500966
30
0
0
LINE
5
133
100
AcDbEntity
8
0
100
AcDbLine
10
-177.64050324195432
20
-94.313476730500952
30
0
11
-180.57995636695435
21
-94.313476730500966
31
0
0
SPLINE
5
134
100
AcDbEntity
8
0
100
AcDbSpline
70
0
71
3
72
9
73
5
74
0
42
0.000000001
43
0.0000000001
44
0.0000000001
40
0
40
0
40
0
40
0
40
0.031562435414465365
40
0.051829416154289702
40
0.051829416154289702
40
0.051829416154289702
40
0.051829416154289702
10
-180.57995636695435
20
-94.313476730500966
30
0
10
-180.68641631346901
20
-94.312660043575406
30
0
10
-180.86123669089602
20
-94.31131894280243
30
0
10
-181.02408852442809
20
-94.372543685298268
30
0
10
-181.08776886695435
20
-94.396484543000966
30
0
0
SPLINE
5
135
100
AcDbEntity
8
0
100
AcDbSpline
70
0
71
3
72
9
73
5
74
0
42
0.000000001
43
0.0000000001
44
0.0000000001
40
0
40
0
40
0
40
0
40
0.0033585977764154307
40
0.0070389721493845066
40
0.0070389721493845066
40
0.0070389721493845066
40
0.0070389721493845066
10
-181.08776886695435
20
-94.396484543000966
30
0
10
-181.09821461316648
20
-94.400754564512042
30
0
10
-181.12010687939235
20
-94.409703704746931
30
0
10
-181.14376068770315
20
-94.410642253771869
30
0
10
-181.15612824195435
20
-94.411132980500966
30
0
0
SPLINE
5
136
100
AcDbEntity
8
0
100
AcDbSpline
70
0
71
3
72
9
73
5
74
0
42
0.000000001
43
0.0000000001
44
0.0000000001
40
0
40
0
40
0
40
0
40
0.0073048653810435455
40
0.014318333360644728
40
0.014318333360644728
40
0.014318333360644728
40
0.014318333360644728
10
-181.15612824195435
20
-94.411132980500966
30
0
10
-181.18096204486
20
-94.409269255904036
30
0
10
-181.22963900878304
20
-94.405616152297171
30
0
10
-181.26878803439357
20
-94.376544740280963
30
0
10
-181.28796417945435
20
-94.362304855500966
30
0
0
SPLINE
5
137
100
AcDbEntity
8
0
100
AcDbSpline
70
0
71
3
72
9
73
5
74
0
42
0.000000001
43
0.0000000001
44
0.0000000001
40
0
40
0
40
0
40
0
40
0.019771622663792655
40
0.042219951538199768
40
0.042219951538199768
40
0.042219951538199768
40
0.042219951538199768
10
-181.28796417945435
20
-94.362304855500966
30
0
10
-181.34007904996645
20
-94.321741371713586
30
0
10
-181.45136416524781
20
-94.235122870599895
30
0
10
-181.5455191857335
20
-94.130073578463339
30
0
10
-181.59558136695435
20
-94.074218918000966
30
0
0
SPLINE
5
138
100
AcDbEntity
8
0
100
AcDbSpline
70
0
71
3
72
9
73
5
74
0
42
0.000000001
43
0.0000000001
44
0.0000000001
40
0
40
0
40
0
40
0
40
0.0061979991576104022
40
0.01227950243255237
40
0.01227950243255237
40
0.01227950243255237
40
0.01227950243255237
10
-181.59558136695435
20
-94.074218918000966
30
0
10
-181.60839841700715
20
-94.057434703697794
30
0
10
-181.63379161137502
20
-94.024181746554163
30
0
10
-181.63762711927436
20
-93.982538378700283
30
0
10
-181.63952667945435
20
-93.961914230500966
30
0
0
SPLINE
5
139
100
AcDbEntity
8
0
100
AcDbSpline
70
0
71
3
72
9
73
5
74
0
42
0.000000001
43
0.0000000001
44
0.0000000001
40
0
40
0
40
0
40
0
40
0.007786708219637237
40
0.015300728432778054
40
0.015300728432778054
40
0.015300728432778054
40
0.015300728432778054
10
-181.63952667945435
20
-93.961914230500966
30
0
10
-181.63669839542112
20
-93.93477341525508
30
0
10
-181.6311408729479
20
-93.881442247345859
30
0
10
-181.58764489198768
20
-93.850269634416748
30
0
10
-181.56628449195435
20
-93.834961105500966
30
0
0
SPLINE
5
140
100
AcDbEntity
8
0
100
AcDbSpline
70
0
71
3
72
9
73
5
74
0
42
0.000000001
43
0.0000000001
44
0.0000000001
40
0
40
0
40
0
40
0
40
0.074739336994753186
40
0.17288660112414808
40
0.17288660112414808
40
0.17288660112414808
40
0.17288660112414808
10
-171.93737824195435
20
-93.356445480500966
30
0
10
-171.68837658144969
20
-93.364950984207994
30
0
10
-171.11238738366035
20
-93.384625866082601
30
0
10
-170.53604860842586
20
-93.385338050372013
30
0
10
-170.20886261695435
20
-93.385742355500966
30
0
0
LINE
5
141
100
AcDbEntity
8
0
100
AcDbLine
10
-170.20886261695435
20
-93.385742355500966
30
0
11
-169.32019074195435
21
-93.385742355500966
31
0
0
LINE
5
142
100
AcDbEntity
8
0
100
AcDbLine
10
-169.32019074195435
20
-93.385742355500966
30
0
11
-169.32019074195435
21
-89.469726730500966
31
0
0
LINE
5
143
100
AcDbEntity
8
0
100
AcDbLine
10
-169.32019074195435
20
-89.469726730500966
30
0
11
-171.17077667945435
21
-89.469726730500966
31
0
0
SPLINE
5
144
100
AcDbEntity
8
0
100
AcDbSpline
70
0
71
3
72
9
73
5
74
0
42
0.000000001
43
0.0000000001
44
0.0000000001
40
0
40
0
40
0
40
0
40
0.069588751001421242
40
0.17681715065500356
40
0.17681715065500356
40
0.17681715065500356
40
0.17681715065500356
10
-171.17077667945435
20
-89.469726730500966
30
0
10
-171.40272615198847
20
-89.472706447568243
30
0
10
-171.99208354437187
20
-89.480277571837746
30
0
10
-172.58113339138663
20
-89.501065488537364
30
0
10
-172.93835480445435
20
-89.513672043000966
30
0
0
LINE
5
145
100
AcDbEntity
8
0
100
AcDbLine
10
-172.93835480445435
20
-89.513672043000966
30
0
11
-172.98230011695435
21
-89.513672043000966
31
0
0
SPLINE
5
146
100
AcDbEntity
8
0
100
AcDbSpline
70
0
71
3
72
9
73
5
74
0
42
0.000000001
43
0.0000000001
44
0.0000000001
40
0
40
0
40
0
40
0
40
0.0071648098588033152
40
0.015869544471111455
40
0.015869544471111455
40
0.015869544471111455
40
0.015869544471111455
10
-172.98230011695435
20
-89.513672043000966
30
0
10
-173.00787201737731
20
-89.507417389013639
30
0
10
-173.0645119588371
20
-89.493563775092341
30
0
10
-173.06817919566285
20
-89.434025296839678
30
0
10
-173.07019074195435
20
-89.401367355500966
30
0
0
LINE
5
147
100
AcDbEntity
8
0
100
AcDbLine
10
-173.07019074195438
20
-89.401367355500966
30
0
11
-173.07019074195435
21
-89.054687668000966
31
0
0
SPLINE
5
148
100
AcDbEntity
8
0
100
AcDbSpline
70
0
71
3
72
9
73
5
74
0
42
0.000000001
43
0.0000000001
44
0.0000000001
40
0
40
0
40
0
40
0
40
0.0090447429457239763
40
0.019323324212824018
40
0.019323324212824018
40
0.019323324212824018
40
0.019323324212824018
10
-173.07019074195435
20
-89.054687668000966
30
0
10
-173.06342088588352
20
-89.02196800057564
30
0
10
-173.04895766404118
20
-88.952065213333427
30
0
10
-172.97675910519803
20
-88.945744913302306
30
0
10
-172.93835480445435
20
-88.942382980500966
30
0
0
SPLINE
5
149
100
AcDbEntity
8
0
100
AcDbSpline
70
0
71
3
72
9
73
5
74
0
42
0.000000001
43
0.0000000001
44
0.0000000001
40
0
40
0
40
0
40
0
40
0.024785083623348331
40
0.058113855895896467
40
0.058113855895896467
40
0.058113855895896467
40
0.058113855895896467
10
-172.93835480445435
20
-88.942382980500966
30
0
10
-172.85575542137508
20
-88.944099557126108
30
0
10
-172.66208374697993
20
-88.948124433061309
30
0
10
-172.46838686501687
20
-88.950681885553024
30
0
10
-172.35730011695435
20
-88.952148605500966
30
0
0
SPLINE
5
150
100
AcDbEntity
8
0
100
AcDbSpline
70
0
71
3
72
9
73
5
74
0
42
0.000000001
43
0.0000000001
44
0.0000000001
40
0
40
0
40
0
40
0
40
0.068497110298908537
40
0.11769386940873919
40
0.11769386940873919
40
0.11769386940873919
40
0.11769386940873919
10
-172.35730011695435
20
-88.952148605500966
30
0
10
-172.12904055489906
20
-88.957792864997387
30
0
10
-171.73683786239724
20
-88.967491007549398
30
0
10
-171.3445295744462
20
-88.970445048337439
30
0
10
-171.18054230445435
20
-88.971679855500966
30
0
0
LINE
5
151
100
AcDbEntity
8
0
100
AcDbLine
10
-171.18054230445432
20
-88.971679855500966
30
0
11
-166.86901886695435
21
-88.971679855500966
31
0
0
SPLINE
5
152
100
AcDbEntity
8
0
100
AcDbSpline
70
0
71
3
72
9
73
5
74
0
42
0.000000001
43
0.0000000001
44
0.0000000001
40
0
40
0
40
0
40
0
40
0.05628765223561099
40
0.1538905581984357
40
0.1538905581984357
40
0.1538905581984357
40
0.1538905581984357
10
-166.86901886695435
20
-88.971679855500966
30
0
10
-166.68142139537227
20
-88.968154149637428
30
0
10
-166.16852951817089
20
-88.958514862478836
30
0
10
-165.65599847879548
20
-88.936692349891956
30
0
10
-165.33093292945435
20
-88.922851730500966
30
0
0
SPLINE
5
153
100
AcDbEntity
8
0
100
AcDbSpline
70
0
71
3
72
9
73
5
74
0
42
0.000000001
43
0.0000000001
44
0.0000000001
40
0
40
0
40
0
40
0
40
0.01065443785352993
40
0.021736647496001613
40
0.021736647496001613
40
0.021736647496001613
40
0.021736647496001613
10
-165.33093292945435
20
-88.922851730500966
30
0
10
-165.29281394142996
20
-88.928764792535418
30
0
10
-165.21504550193265
20
-88.940828323885611
30
0
10
-165.19154648023797
20
-89.016239859903422
30
0
10
-165.17956574195435
20
-89.054687668000966
30
0
0
SPLINE
5
154
100
AcDbEntity
8
0
100
AcDbSpline
70
0
71
3
72
9
73
5
74
0
42
0.000000001
43
0.0000000001
44
0.0000000001
40
0
40
0
40
0
40
0
40
0.027310214595196003
40
0.046489243873815117
40
0.046489243873815117
40
0.046489243873815117
40
0.046489243873815117
10
-165.17956574195435
20
-89.054687668000966
30
0
10
-165.1711113388547
20
-89.145359421821809
30
0
10
-165.15671969772956
20
-89.299706845975138
30
0
10
-165.15215289201501
20
-89.454638261067004
30
0
10
-165.15026886695435
20
-89.518554855500966
30
0
0
SPLINE
5
155
100
AcDbEntity
8
0
100
AcDbSpline
70
0
71
3
72
9
73
5
74
0
42
0.000000001
43
0.0000000001
44
0.0000000001
40
0
40
0
40
0
40
0
40
0.074552888108410501
40
0.17197264569898524
40
0.17197264569898524
40
0.17197264569898524
40
0.17197264569898524
10
-165.15026886695435
20
-89.518554855500966
30
0
10
-165.39841770573275
20
-89.504376817885984
30
0
10
-165.97082762055459
20
-89.471672053505529
30
0
10
-166.54420802438509
20
-89.470430213202121
30
0
10
-166.86901886695435
20
-89.469726730500966
30
0
0
LINE
5
156
100
AcDbEntity
8
0
100
AcDbLine
10
-166.86901886695435
20
-89.46972673050098
30
0
11
-168.75866730445435
21
-89.469726730500966
31
0
0
LINE
5
157
100
AcDbEntity
8
0
100
AcDbLine
10
-168.75866730445435
20
-89.469726730500966
30
0
11
-168.75866730445435
21
-93.385742355500966
31
0
0
LINE
5
158
100
AcDbEntity
8
0
100
AcDbLine
10
-168.75866730445435
20
-93.385742355500966
30
0
11
-167.71862824195435
21
-93.385742355500966
31
0
0
SPLINE
5
159
100
AcDbEntity
8
0
100
AcDbSpline
70
0
71
3
72
9
73
5
74
0
42
0.000000001
43
0.0000000001
44
0.0000000001
40
0
40
0
40
0
40
0
40
0.080450263260860494
40
0.15094573661875887
40
0.15094573661875887
40
0.15094573661875887
40
0.15094573661875887
10
-167.71862824195435
20
-93.385742355500966
30
0
10
-167.45042398153953
20
-93.384589582650221
30
0
10
-166.94720263692645
20
-93.382426679260547
30
0
10
-166.44457771785372
20
-93.358059802631118
30
0
10
-166.20983917945435
20
-93.346679855500966
30
0
0
SPLINE
5
160
100
AcDbEntity
8
0
100
AcDbSpline
70
0
71
3
72
9
73
5
74
0
42
0.000000001
43
0.0000000001
44
0.0000000001
40
0
40
0
40
0
40
0
40
0.0078704591405346046
40
0.018209029121120372
40
0.018209029121120372
40
0.018209029121120372
40
0.018209029121120372
10
-166.20983917945435
20
-93.346679855500966
30
0
10
-166.18285288186928
20
-93.354324014623813
30
0
10
-166.12041760715107
20
-93.37200947789718
30
0
10
-166.10582165778541
20
-93.436829826246267
30
0
10
-166.09753449195435
20
-93.473632980500966
30
0
0
SPLINE
5
161
100
AcDbEntity
8
0
100
AcDbSpline
70
0
71
3
72
9
73
5
74
0
42
0.000000001
43
0.0000000001
44
0.0000000001
40
0
40
0
40
0
40
0
40
0.021047130920168269
40
0.044001543563807255
40
0.044001543563807255
40
0.044001543563807255
40
0.044001543563807255
10
-166.09753449195435
20
-93.473632980500966
30
0
10
-166.09184080836141
20
-93.543583068819615
30
0
10
-166.07993748207892
20
-93.689822091616563
30
0
10
-166.07866635467033
20
-93.83654482981072
30
0
10
-166.07800324195435
20
-93.913086105500966
30
0
0
SPLINE
5
162
100
AcDbEntity
8
0
100
AcDbSpline
70
0
71
3
72
9
73
5
74
0
42
0.000000001
43
0.0000000001
44
0.0000000001
40
0
40
0
40
0
40
0
40
0.068666042735527399
40
0.16217700151455866
40
0.16217700151455866
40
0.16217700151455866
40
0.16217700151455866
10
-166.07800324195435
20
-93.913086105500966
30
0
10
-166.30664014629178
20
-93.901759124229343
30
0
10
-166.84663992061741
20
-93.875006805533502
30
0
10
-167.38733386487101
20
-93.874383184331379
30
0
10
-167.69909699195435
20
-93.874023605500966
30
0
0
LINE
5
163
100
AcDbEntity
8
0
100
AcDbLine
10
-167.69909699195435
20
-93.87402360550098
30
0
11
-170.19909699195435
21
-93.874023605500966
31
0
0
SPLINE
5
164
100
AcDbEntity
8
0
100
AcDbSpline
70
0
71
3
72
9
73
5
74
0
42
0.000000001
43
0.0000000001
44
0.0000000001
40
0
40
0
40
0
40
0
40
0.083621371688020904
40
0.17532250467294141
40
0.17532250467294141
40
0.17532250467294141
40
0.17532250467294141
10
-170.19909699195435
20
-93.874023605500966
30
0
10
-170.47784074073013
20
-93.875454463526808
30
0
10
-171.06226134052167
20
-93.878454433604503
30
0
10
-171.64646388214356
20
-93.894780994284446
30
0
10
-171.95202667945435
20
-93.903320480500966
30
0
0
SPLINE
5
165
100
AcDbEntity
8
0
100
AcDbSpline
70
0
71
3
72
9
73
5
74
0
42
0.000000001
43
0.0000000001
44
0.0000000001
40
0
40
0
40
0
40
0
40
0.0076467088688309693
40
0.014676093658327047
40
0.014676093658327047
40
0.014676093658327047
40
0.014676093658327047
10
-171.95202667945435
20
-93.903320480500966
30
0
10
-171.98049472138592
20
-93.900315115557405
30
0
10
-172.03513256059537
20
-93.894547010854353
30
0
10
-172.04497074852799
20
-93.841052185354968
30
0
10
-172.04968292945435
20
-93.815429855500966
30
0
0
LINE
5
166
100
AcDbEntity
8
0
100
AcDbLine
10
-172.04968292945438
20
-93.81542985550098
30
0
11
-172.04968292945435
21
-93.463867355500966
31
0
0
SPLINE
5
167
100
AcDbEntity
8
0
100
AcDbSpline
70
0
71
3
72
9
73
5
74
0
42
0.000000001
43
0.0000000001
44
0.0000000001
40
0
40
0
40
0
40
0
40
0.0085318328881867928
40
0.017372454498782448
40
0.017372454498782448
40
0.017372454498782448
40
0.017372454498782448
10
-172.04968292945435
20
-93.463867355500966
30
0
10
-172.04467958739906
20
-93.432538754112286
30
0
10
-172.0344918196196
20
-93.368747689605058
30
0
10
-171.9701307655348
20
-93.360594523337824
30
0
10
-171.93737824195435
20
-93.356445480500966
30
0
0
SPLINE
5
168
100
AcDbEntity
8
0
100
AcDbSpline
70
0
71
3
72
9
73
5
74
0
42
0.000000001
43
0.0000000001
44
0.0000000001
40
0
40
0
40
0
40
0
40
0.0067238473407814506
40
0.014666864179159106
40
0.014666864179159106
40
0.014666864179159106
40
0.014666864179159106
10
-157.98230011695435
20
-87.399414230500966
30
0
10
-157.95950189883044
20
-87.403363877359951
30
0
10
-157.90977168459403
20
-87.411979321926225
30
0
10
-157.87763422988451
20
-87.451340109637741
30
0
10
-157.86022980445435
20
-87.472656418000966
30
0
0
SPLINE
5
169
100
AcDbEntity
8
0
100
AcDbSpline
70
0
71
3
72
9
73
5
74
0
42
0.000000001
43
0.0000000001
44
0.0000000001
40
0
40
0
40
0
40
0
40
0.023572216691634777
40
0.049386841030370776
40
0.049386841030370776
40
0.049386841030370776
40
0.049386841030370776
10
-157.86022980445435
20
-87.472656418000966
30
0
10
-157.80562957503685
20
-87.529846908097753
30
0
10
-157.69123503651127
20
-87.649668377576333
30
0
10
-157.54568445469221
20
-87.72902702079584
30
0
10
-157.46960480445435
20
-87.770507980500966
30
0
0
SPLINE
5
170
100
AcDbEntity
8
0
100
AcDbSpline
70
0
71
3
72
9
73
5
74
0
42
0.000000001
43
0.0000000001
44
0.0000000001
40
0
40
0
40
0
40
0
40
0.14331995658591185
40
0.2638127541945276
40
0.2638127541945276
40
0.2638127541945276
40
0.2638127541945276
10
-157.46960480445435
20
-87.770507980500966
30
0
10
-157.93005671713047
20
-87.921701583220226
30
0
10
-158.77762247245789
20
-88.200007561676557
30
0
10
-159.42828372387604
20
-88.806827840471826
30
0
10
-159.72546417945435
20
-89.083984543000966
30
0
0
SPLINE
5
171
100
AcDbEntity
8
0
100
AcDbSpline
70
0
71
3
72
9
73
5
74
0
42
0.000000001
43
0.0000000001
44
0.0000000001
40
0
40
0
40
0
40
0
40
0.13461483245254291
40
0.29216453026842448
40
0.29216453026842448
40
0.29216453026842448
40
0.29216453026842448
10
-159.72546417945435
20
-89.083984543000966
30
0
10
-159.97144055076654
20
-89.468667996888314
30
0
10
-160.50530126783795
20
-90.303574957431877
30
0
10
-160.54745782313606
20
-91.297197246558625
30
0
10
-160.57019074195435
20
-91.833007980500966
30
0
0
LINE
5
172
100
AcDbEntity
8
0
100
AcDbLine
10
-160.57019074195435
20
-91.833007980500966
30
0
11
-160.57019074195435
21
-93.722656418000966
31
0
0
SPLINE
5
173
100
AcDbEntity
8
0
100
AcDbSpline
70
0
71
3
72
9
73
5
74
0
42
0.000000001
43
0.0000000001
44
0.0000000001
40
0
40
0
40
0
40
0
40
0.093067626304674994
40
0.15792603135894986
40
0.15792603135894986
40
0.15792603135894986
40
0.15792603135894986
10
-160.57019074195435
20
-93.722656418000966
30
0
10
-160.56992402050872
20
-94.033581131299911
30
0
10
-160.56947142210197
20
-94.561187861721677
30
0
10
-160.48344889297539
20
-95.081312737531761
30
0
10
-160.44812042945435
20
-95.294922043000966
30
0
0
SPLINE
5
174
100
AcDbEntity
8
0
100
AcDbSpline
70
0
71
3
72
9
73
5
74
0
42
0.000000001
43
0.0000000001
44
0.0000000001
40
0
40
0
40
0
40
0
40
0.040897927121655027
40
0.074741357136431902
40
0.074741357136431902
40
0.074741357136431902
40
0.074741357136431902
10
-160.44812042945435
20
-95.294922043000966
30
0
10
-160.58411740831536
20
-95.281153578956605
30
0
10
-160.8326532017382
20
-95.255991577828809
30
0
10
-161.07211311460586
20
-95.185320746727186
30
0
10
-161.18054230445435
20
-95.153320480500966
30
0
0
SPLINE
5
175
100
AcDbEntity
8
0
100
AcDbSpline
70
0
71
3
72
9
73
5
74
0
42
0.000000001
43
0.0000000001
44
0.0000000001
40
0
40
0
40
0
40
0
40
0.0082032703205133992
40
0.016318880739749075
40
0.016318880739749075
40
0.016318880739749075
40
0.016318880739749075
10
-161.18054230445435
20
-95.153320480500966
30
0
10
-161.20617685759754
20
-95.139569658869164
30
0
10
-161.25717203381583
20
-95.112214956474205
30
0
10
-161.26469276390807
20
-95.054880561705744
30
0
10
-161.26843292945435
20
-95.026367355500966
30
0
0
SPLINE
5
176
100
AcDbEntity
8
0
100
AcDbSpline
70
0
71
3
72
9
73
5
74
0
42
0.000000001
43
0.0000000001
44
0.0000000001
40
0
40
0
40
0
40
0
40
0.005058190760522622
40
0.010748553075369626
40
0.010748553075369626
40
0.010748553075369626
40
0.010748553075369626
10
-161.26843292945435
20
-95.026367355500966
30
0
10
-161.26694897406867
20
-95.009418527651832
30
0
10
-161.26379559888392
20
-94.973402611225055
30
0
10
-161.24767200338968
20
-94.940988539009311
30
0
10
-161.23913605445435
20
-94.923828293000966
30
0
0
SPLINE
5
177
100
AcDbEntity
8
0
100
AcDbSpline
70
0
71
3
72
9
73
5
74
0
42
0.000000001
43
0.0000000001
44
0.0000000001
40
0
40
0
40
0
40
0
40
0.040841596247444913
40
0.11998873360540138
40
0.11998873360540138
40
0.11998873360540138
40
0.11998873360540138
10
-161.23913605445435
20
-94.923828293000966
30
0
10
-161.20849623288152
20
-94.790806685372672
30
0
10
-161.11847934504624
20
-94.400001826895306
30
0
10
-161.12645395560949
20
-93.997753590741056
30
0
10
-161.13171417945435
20
-93.732422043000966
30
0
0
LINE
5
178
100
AcDbEntity
8
0
100
AcDbLine
10
-161.13171417945438
20
-93.732422043000966
30
0
11
-161.13171417945435
21
-91.911132980500966
31
0
0
SPLINE
5
179
100
AcDbEntity
8
0
100
AcDbSpline
70
0
71
3
72
9
73
5
74
0
42
0.000000001
43
0.0000000001
44
0.0000000001
40
0
40
0
40
0
40
0
40
0.17783135084580332
40
0.32421365985131723
40
0.32421365985131723
40
0.32421365985131723
40
0.32421365985131723
10
-161.13171417945435
20
-91.911132980500966
30
0
10
-161.11103279296327
20
-91.306017752299852
30
0
10
-161.07332747287671
20
-90.20280045212337
30
0
10
-160.49121662867861
20
-89.270529446509244
30
0
10
-160.22839386695435
20
-88.849609543000966
30
0
0
SPLINE
5
180
100
AcDbEntity
8
0
100
AcDbSpline
70
0
71
3
72
9
73
5
74
0
42
0.000000001
43
0.0000000001
44
0.0000000001
40
0
40
0
40
0
40
0
40
0.12290734751444356
40
0.26020606377098721
40
0.26020606377098721
40
0.26020606377098721
40
0.26020606377098721
10
-160.22839386695435
20
-88.849609543000966
30
0
10
-159.93449605225373
20
-88.558729731021359
30
0
10
-159.31228757521245
20
-87.942910640980685
30
0
10
-158.5056053186097
20
-87.59992379198701
30
0
10
-158.07995636695435
20
-87.418945480500966
30
0
0
SPLINE
5
181
100
AcDbEntity
8
0
100
AcDbSpline
70
0
71
3
72
9
73
5
74
0
42
0.000000001
43
0.0000000001
44
0.0000000001
40
0
40
0
40
0
40
0
40
0.0055672628178668844
40
0.009988837592348046
40
0.009988837592348046
40
0.009988837592348046
40
0.009988837592348046
10
-158.07995636695435
20
-87.418945480500966
30
0
10
-158.06220331500171
20
-87.413273051671723
30
0
10
-158.0303506149362
20
-87.403095524189524
30
0
10
-157.99704354444063
20
-87.400543768983027
30
0
10
-157.98230011695435
20
-87.399414230500966
30
0
0
LINE
5
182
100
AcDbEntity
8
0
100
AcDbLine
10
-157.08386261695435
20
-92.150390793000966
30
0
11
-157.08386261695435
21
-93.771484543000966
31
0
0
SPLINE
5
183
100
AcDbEntity
8
0
100
AcDbSpline
70
0
71
3
72
9
73
5
74
0
42
0.000000001
43
0.0000000001
44
0.0000000001
40
0
40
0
40
0
40
0
40
0.07952634934950796
40
0.13605874400858181
40
0.13605874400858181
40
0.13605874400858181
40
0.13605874400858181
10
-157.08386261695435
20
-93.771484543000966
30
0
10
-157.08326354637478
20
-94.037342734833373
30
0
10
-157.08223861826866
20
-94.492189863627601
30
0
10
-156.99714760997301
20
-94.938557780325368
30
0
10
-156.96179230445435
20
-95.124023605500966
30
0
0
SPLINE
5
184
100
AcDbEntity
8
0
100
AcDbSpline
70
0
71
3
72
9
73
5
74
0
42
0.000000001
43
0.0000000001
44
0.0000000001
40
0
40
0
40
0
40
0
40
0.039723150206146918
40
0.072796095908554306
40
0.072796095908554306
40
0.072796095908554306
40
0.072796095908554306
10
-156.96179230445435
20
-95.124023605500966
30
0
10
-157.0936268558431
20
-95.108881959228157
30
0
10
-157.33522503214968
20
-95.081133587596796
30
0
10
-157.5686380230778
20
-95.013259023339515
30
0
10
-157.67468292945435
20
-94.982422043000966
30
0
0
SPLINE
5
185
100
AcDbEntity
8
0
100
AcDbSpline
70
0
71
3
72
9
73
5
74
0
42
0.000000001
43
0.0000000001
44
0.0000000001
40
0
40
0
40
0
40
0
40
0.0085414334397147951
40
0.016261837883485251
40
0.016261837883485251
40
0.016261837883485251
40
0.016261837883485251
10
-157.67468292945435
20
-94.982422043000966
30
0
10
-157.70314415515449
20
-94.971020124906445
30
0
10
-157.75733082552637
20
-94.949312276344216
30
0
10
-157.76750766450348
20
-94.892300990636173
30
0
10
-157.77233917945435
20
-94.865234543000966
30
0
0
SPLINE
5
186
100
AcDbEntity
8
0
100
AcDbSpline
70
0
71
3
72
9
73
5
74
0
42
0.000000001
43
0.0000000001
44
0.0000000001
40
0
40
0
40
0
40
0
40
0.004575601761228348
40
0.0098189444357680289
40
0.0098189444357680289
40
0.0098189444357680289
40
0.0098189444357680289
10
-157.77233917945435
20
-94.865234543000966
30
0
10
-157.77081813457215
20
-94.849897943232605
30
0
10
-157.76755407096655
20
-94.81698659543234
30
0
10
-157.75157511161973
20
-94.787960903091616
30
0
10
-157.74304230445435
20
-94.772461105500966
30
0
0
SPLINE
5
187
100
AcDbEntity
8
0
100
AcDbSpline
70
0
71
3
72
9
73
5
74
0
42
0.000000001
43
0.0000000001
44
0.0000000001
40
0
40
0
40
0
40
0
40
0.034522598011232142
40
0.1011050999589693
40
0.1011050999589693
40
0.1011050999589693
40
0.1011050999589693
10
-157.74304230445435
20
-94.772461105500966
30
0
10
-157.71239432074071
20
-94.661089821430679
30
0
10
-157.62263666530879
20
-94.334920718954038
30
0
10
-157.63046506023394
20
-93.995204065829441
30
0
10
-157.63562042945435
20
-93.771484543000966
30
0
0
LINE
5
188
100
AcDbEntity
8
0
100
AcDbLine
10
-157.63562042945435
20
-93.771484543000966
30
0
11
-157.63562042945435
21
-92.121093918000966
31
0
0
SPLINE
5
189
100
AcDbEntity
8
0
100
AcDbSpline
70
0
71
3
72
9
73
5
74
0
42
0.000000001
43
0.0000000001
44
0.0000000001
40
0
40
0
40
0
40
0
40
0.066654414799531964
40
0.13480507972796818
40
0.13480507972796818
40
0.13480507972796818
40
0.13480507972796818
10
-157.63562042945435
20
-92.121093918000966
30
0
10
-157.63689443626598
20
-91.898900708798323
30
0
10
-157.63947104863794
20
-91.449526524482692
30
0
10
-157.65637268672617
20
-91.000462062890307
30
0
10
-157.66491730445435
20
-90.773437668000966
30
0
0
SPLINE
5
190
100
AcDbEntity
8
0
100
AcDbSpline
70
0
71
3
72
9
73
5
74
0
42
0.000000001
43
0.0000000001
44
0.0000000001
40
0
40
0
40
0
40
0
40
0.011049892072884137
40
0.020865741922969402
40
0.020865741922969402
40
0.020865741922969402
40
0.020865741922969402
10
-157.66491730445435
20
-90.773437668000966
30
0
10
-157.66114774262826
20
-90.732181081006118
30
0
10
-157.65402960032355
20
-90.65427540634623
30
0
10
-157.57841723869268
20
-90.639015029250004
30
0
10
-157.54284699195435
20
-90.631836105500966
30
0
0
LINE
5
191
100
AcDbEntity
8
0
100
AcDbLine
10
-157.54284699195435
20
-90.631836105500952
30
0
11
-157.17175324195435
21
-90.631836105500966
31
0
0
SPLINE
5
192
100
AcDbEntity
8
0
100
AcDbSpline
70
0
71
3
72
9
73
5
74
0
42
0.000000001
43
0.0000000001
44
0.0000000001
40
0
40
0
40
0
40
0
40
0.0088406216105956573
40
0.017372454498782448
40
0.017372454498782448
40
0.017372454498782448
40
0.017372454498782448
10
-157.17175324195435
20
-90.631836105500966
30
0
10
-157.13900071837384
20
-90.635985148337824
30
0
10
-157.07463966428909
20
-90.644138314605058
30
0
10
-157.06445189650967
20
-90.707929379112286
30
0
10
-157.05944855445435
20
-90.739257980500966
30
0
0
LINE
5
193
100
AcDbEntity
8
0
100
AcDbLine
10
-157.05944855445435
20
-90.739257980500966
30
0
11
-157.05944855445435
21
-90.773437668000966
31
0
0
SPLINE
5
194
100
AcDbEntity
8
0
100
AcDbSpline
70
0
71
3
72
9
73
5
74
0
42
0.000000001
43
0.0000000001
44
0.0000000001
40
0
40
0
40
0
40
0
40
0.081807603688085304
40
0.13771913832715693
40
0.13771913832715693
40
0.13771913832715693
40
0.13771913832715693
10
-157.05944855445435
20
-90.773437668000966
30
0
10
-157.06648072940175
20
-91.046045901884924
30
0
10
-157.07831905531108
20
-91.504968659414047
30
0
10
-157.08226189412417
20
-91.964022892574548
30
0
10
-157.08386261695435
20
-92.150390793000966
30
0
0
SPLINE
5
195
100
AcDbEntity
8
0
100
AcDbSpline
70
0
71
3
72
9
73
5
74
0
42
0.000000001
43
0.0000000001
44
0.0000000001
40
0
40
0
40
0
40
0
40
0.0095073889055765394
40
0.018188982844392236
40
0.018188982844392236
40
0.018188982844392236
40
0.018188982844392236
10
-145.65808136695435
20
-94.049804855500966
30
0
10
-145.6234311638481
20
-94.053246070968072
30
0
10
-145.55714041292649
20
-94.059829604019725
30
0
10
-145.53622726584794
20
-94.122453539614469
30
0
10
-145.52624542945435
20
-94.152343918000966
30
0
0
SPLINE
5
196
100
AcDbEntity
8
0
100
AcDbSpline
70
0
71
3
72
9
73
5
74
0
42
0.000000001
43
0.0000000001
44
0.0000000001
40
0
40
0
40
0
40
0
40
0.031870405576607141
40
0.054279536131643547
40
0.054279536131643547
40
0.054279536131643547
40
0.054279536131643547
10
-145.52624542945435
20
-94.152343918000966
30
0
10
-145.50926852975613
20
-94.25722385947202
30
0
10
-145.48035461341587
20
-94.435848337873438
30
0
10
-145.45753955313893
20
-94.615347603146219
30
0
10
-145.44812042945435
20
-94.689453293000966
30
0
0
SPLINE
5
197
100
AcDbEntity
8
0
100
AcDbSpline
70
0
71
3
72
9
73
5
74
0
42
0.000000001
43
0.0000000001
44
0.0000000001
40
0
40
0
40
0
40
0
40
0.092105508970707017
40
0.1794076328199605
40
0.1794076328199605
40
0.1794076328199605
40
0.1794076328199605
10
-145.44812042945435
20
-94.689453293000966
30
0
10
-145.75437700648988
20
-94.666671629880383
30
0
10
-146.35091860465815
20
-94.622296387858057
30
0
10
-146.94905267690206
20
-94.614918480280053
30
0
10
-147.24011261695435
20
-94.611328293000966
30
0
0
LINE
5
198
100
AcDbEntity
8
0
100
AcDbLine
10
-147.24011261695432
20
-94.611328293000966
30
0
11
-151.62976105445435
21
-94.611328293000966
31
0
0
SPLINE
5
199
100
AcDbEntity
8
0
100
AcDbSpline
70
0
71
3
72
9
73
5
74
0
42
0.000000001
43
0.0000000001
44
0.0000000001
40
0
40
0
40
0
40
0
40
0.050924392839275849
40
0.077053428459032625
40
0.077053428459032625
40
0.077053428459032625
40
0.077053428459032625
10
-151.62976105445435
20
-94.611328293000966
30
0
10
-151.80021460392243
20
-94.608390584750239
30
0
10
-152.05812696472324
20
-94.603945553991679
30
0
10
-152.31071074302477
20
-94.653214727016774
30
0
10
-152.39636261695435
20
-94.669922043000966
30
0
0
SPLINE
5
200
100
AcDbEntity
8
0
100
AcDbSpline
70
0
71
3
72
9
73
5
74
0
42
0.000000001
43
0.0000000001
44
0.0000000001
40
0
40
0
40
0
40
0
40
0.0070642755352686949
40
0.014546498641089962
40
0.014546498641089962
40
0.014546498641089962
40
0.014546498641089962
10
-152.39636261695435
20
-94.669922043000966
30
0
10
-152.41848601721244
20
-94.678465005740151
30
0
10
-152.46404171647475
20
-94.696056363163308
30
0
10
-152.51285585193085
20
-94.698144732165233
30
0
10
-152.53796417945435
20
-94.699218918000966
30
0
0
SPLINE
5
201
100
AcDbEntity
8
0
100
AcDbSpline
70
0
71
3
72
9
73
5
74
0
42
0.000000001
43
0.0000000001
44
0.0000000001
40
0
40
0
40
0
40
0
40
0.0058657293831708805
40
0.013300001833651893
40
0.013300001833651893
40
0.013300001833651893
40
0.013300001833651893
10
-152.53796417945435
20
-94.699218918000966
30
0
10
-152.55755353329698
20
-94.696376524580586
30
0
10
-152.60197059126335
20
-94.689931658949448
30
0
10
-152.63921568482567
20
-94.664568167446802
30
0
10
-152.66003449195435
20
-94.650390793000966
30
0
0
SPLINE
5
202
100
AcDbEntity
8
0
100
AcDbSpline
70
0
71
3
72
9
73
5
74
0
42
0.000000001
43
0.0000000001
44
0.0000000001
40
0
40
0
40
0
40
0
40
0.022197001934373316
40
0.04325014991064989
40
0.04325014991064989
40
0.04325014991064989
40
0.04325014991064989
10
-152.66003449195435
20
-94.650390793000966
30
0
10
-152.71581976225372
20
-94.601519235662309
30
0
10
-152.824515581193
20
-94.506294565794136
30
0
10
-152.91422004662104
20
-94.393026838349869
30
0
10
-152.95788605445435
20
-94.337890793000966
30
0
0
SPLINE
5
203
100
AcDbEntity
8
0
100
AcDbSpline
70
0
71
3
72
9
73
5
74
0
42
0.000000001
43
0.0000000001
44
0.0000000001
40
0
40
0
40
0
40
0
40
0.005694288959809864
40
0.01163448674330422
40
0.01163448674330422
40
0.01163448674330422
40
0.01163448674330422
10
-152.95788605445435
20
-94.337890793000966
30
0
10
-152.96927785949347
20
-94.322213489309775
30
0
10
-152.99255342658282
20
-94.290181854938339
30
0
10
-152.99546301263419
20
-94.250651735797803
30
0
10
-152.99694855445435
20
-94.230468918000966
30
0
0
SPLINE
5
204
100
AcDbEntity
8
0
100
AcDbSpline
70
0
71
3
72
9
73
5
74
0
42
0.000000001
43
0.0000000001
44
0.0000000001
40
0
40
0
40
0
40
0
40
0.0087047346123081386
40
0.01744363906987427
40
0.01744363906987427
40
0.01744363906987427
40
0.01744363906987427
10
-152.99694855445435
20
-94.230468918000966
30
0
10
-152.99325783482257
20
-94.200140516434374
30
0
10
-152.98586190788944
20
-94.139364661218124
30
0
10
-152.93469266691986
20
-94.105721758113305
30
0
10
-152.90905792945435
20
-94.088867355500966
30
0
0
SPLINE
5
205
100
AcDbEntity
8
0
100
AcDbSpline
70
0
71
3
72
9
73
5
74
0
42
0.000000001
43
0.0000000001
44
0.0000000001
40
0
40
0
40
0
40
0
40
0.014021623329401841
40
0.031282382782849713
40
0.031282382782849713
40
0.031282382782849713
40
0.031282382782849713
10
-152.90905792945435
20
-94.088867355500966
30
0
10
-152.8720205481801
20
-94.059881306756651
30
0
10
-152.7893897777567
20
-93.995213140248353
30
0
10
-152.73120290814182
20
-93.907675843556589
30
0
10
-152.69909699195435
20
-93.859375168000966
30
0
0
SPLINE
5
206
100
AcDbEntity
8
0
100
AcDbSpline
70
0
71
3
72
9
73
5
74
0
42
0.000000001
43
0.0000000001
44
0.0000000001
40
0
40
0
40
0
40
0
40
0.14052207146908113
40
0.27813045718592377
40
0.27813045718592377
40
0.27813045718592377
40
0.27813045718592377
10
-152.69909699195435
20
-93.859375168000966
30
0
10
-152.42216565633424
20
-93.478523058833787
30
0
10
-151.87404507869189
20
-92.724715702199418
30
0
10
-151.14222731271576
20
-92.147760416040512
30
0
10
-150.78015167945435
20
-91.862304855500966
30
0
0
SPLINE
5
207
100
AcDbEntity
8
0
100
AcDbSpline
70
0
71
3
72
9
73
5
74
0
42
0.000000001
43
0.0000000001
44
0.0000000001
40
0
40
0
40
0
40
0
40
0.005132762705475742
40
0.010311767450494402
40
0.010311767450494402
40
0.010311767450494402
40
0.010311767450494402
10
-150.78015167945435
20
-91.862304855500966
30
0
10
-150.76505653954081
20
-91.853759982502964
30
0
10
-150.73473026471513
20
-91.836593254114121
30
0
10
-150.69995901721205
20
-91.834206639213406
30
0
10
-150.68249542945435
20
-91.833007980500966
30
0
0
SPLINE
5
208
100
AcDbEntity
8
0
100
AcDbSpline
70
0
71
3
72
9
73
5
74
0
42
0.000000001
43
0.0000000001
44
0.0000000001
40
0
40
0
40
0
40
0
40
0.0055792943759894725
40
0.011169261730411011
40
0.011169261730411011
40
0.011169261730411011
40
0.011169261730411011
10
-150.68249542945435
20
-91.833007980500966
30
0
10
-150.66356754671116
20
-91.834641796898694
30
0
10
-150.62567557290339
20
-91.837912555122912
30
0
10
-150.59520580757192
20
-91.860677254309508
30
0
10
-150.57995636695435
20
-91.872070480500966
30
0
0
SPLINE
5
209
100
AcDbEntity
8
0
100
AcDbSpline
70
0
71
3
72
9
73
5
74
0
42
0.000000001
43
0.0000000001
44
0.0000000001
40
0
40
0
40
0
40
0
40
0.023361400401616991
40
0.047265061752508164
40
0.047265061752508164
40
0.047265061752508164
40
0.047265061752508164
10
-150.57995636695435
20
-91.872070480500966
30
0
10
-150.51684585800089
20
-91.918769140803562
30
0
10
-150.38915992943342
20
-92.013250422962017
30
0
10
-150.23699156839953
20
-92.058929730334029
30
0
10
-150.16003449195435
20
-92.082031418000966
30
0
0
SPLINE
5
210
100
AcDbEntity
8
0
100
AcDbSpline
70
0
71
3
72
9
73
5
74
0
42
0.000000001
43
0.0000000001
44
0.0000000001
40
0
40
0
40
0
40
0
40
0.15004005692005221
40
0.29340383070783327
40
0.29340383070783327
40
0.29340383070783327
40
0.29340383070783327
10
-150.16003449195435
20
-92.082031418000966
30
0
10
-150.57411746816601
20
-92.370172395047362
30
0
10
-151.38385810640202
20
-92.93363303472411
30
0
10
-151.95249707851505
20
-93.739196209485115
30
0
10
-152.23034699195435
20
-94.132812668000966
30
0
0
LINE
5
211
100
AcDbEntity
8
0
100
AcDbLine
10
-152.23034699195435
20
-94.132812668000966
30
0
11
-147.28894074195435
21
-94.132812668000966
31
0
0
SPLINE
5
212
100
AcDbEntity
8
0
100
AcDbSpline
70
0
71
3
72
9
73
5
74
0
42
0.000000001
43
0.0000000001
44
0.0000000001
40
0
40
0
40
0
40
0
40
0.075712038662950162
40
0.15943990494278548
40
0.15943990494278548
40
0.15943990494278548
40
0.15943990494278548
10
-147.28894074195435
20
-94.132812668000966
30
0
10
-147.03651873631821
20
-94.128708415196698
30
0
10
-146.50495016023933
20
-94.120065381822755
30
0
10
-145.97528885699191
20
-94.073997057958735
30
0
10
-145.69714386695435
20
-94.049804855500966
30
0
0
LINE
5
213
100
AcDbEntity
8
0
100
AcDbLine
10
-145.69714386695435
20
-94.049804855500966
30
0
11
-145.65808136695435
21
-94.049804855500966
31
0
0
LWPOLYLINE
5
214
100
AcDbEntity
8
0
100
AcDbPolyline
90
19
70
1
43
0.0
10
-340.66305866164163
20
-11.998900311744782
42
-0.41421356237308227
10
-330.66496323921001
20
-1.9969960968495426
10
-254.28794782347802
20
-1.9824508865520429
10
-170.8385714488891
20
12.731925691583843
42
-0.039145615902707126
10
-166.17000789266103
20
13.18281682002959
42
-0.039145615902704795
10
-161.50144433641699
20
12.731925691584218
10
-77.969918979415993
20
-1.9969359685883825
10
1.9495610953744484
20
-1.9969359685884236
42
-0.4142135623730977
10
11.949561095374399
20
-11.996935968588483
10
11.949561095374399
20
-13.996935968588478
10
11.949999997625
20
-94.960004510357692
10
11.94999999762463
20
-96.960004508778383
42
-0.41421356214180577
10
1.9500000055217301
20
-106.96000450877798
10
-0.050000002375014674
20
-106.96000451035799
10
-328.65905687794998
20
-106.960192960706
10
-330.65905687795004
20
-106.960192960706
42
-0.41421356237306589
10
-340.65905687794901
20
-96.960192960705996
10
-340.65905687795004
20
-94.960192960705982
10
-340.66267778239597
20
-13.998900275477482
0
LWPOLYLINE
5
215
100
AcDbEntity
8
0
100
AcDbPolyline
90
6
70
1
43
0.0
10
-140.62433181056801
20
-99.837076894323388
10
-142.744428
20
-98.613038788646691
10
-144.86452418943199
20
-99.837076894323388
10
-144.86452418943199
20
-102.285153105677
10
-142.744428
20
-103.50919121135298
10
-140.62433181056801
20
-102.285153105677
0
LWPOLYLINE
5
216
100
AcDbEntity
8
0
100
AcDbPolyline
90
6
70
1
43
0.0
10
-331.10765740637498
20
-98.299893541892004
10
-333.22775359580697
20
-97.075855436215392
10
-335.34784978523902
20
-98.299893541892089
10
-335.34784978523902
20
-100.747969753245
10
-333.22775359580697
20
-101.97200785892198
10
-331.10765740637498
20
-100.747969753245
0
LWPOLYLINE
5
217
100
AcDbEntity
8
0
100
AcDbPolyline
90
6
70
1
43
0.0
10
-164.04675554130901
20
6.1531025013640086
10
-164.04675554130901
20
8.6011787127173278
10
-166.166851730741
20
9.8252168183939776
10
-168.28694792017299
20
8.6011787127173278
10
-168.28694792017299
20
6.1531025013640086
10
-166.166851730741
20
4.9290643956873481
0
LWPOLYLINE
5
218
100
AcDbEntity
8
0
100
AcDbPolyline
90
6
70
1
43
0.0
10
-331.10754593588604
20
-8.2075940419912818
10
-333.22764212531803
20
-6.9835559363146427
10
-335.34773831475002
20
-8.2075940419913014
10
-335.34773831475002
20
-10.655670253344582
10
-333.22764212531803
20
-11.879708359021283
10
-331.10754593588604
20
-10.655670253344582
0
LWPOLYLINE
5
219
100
AcDbEntity
8
0
100
AcDbPolyline
90
6
70
1
43
0.0
10
6.6350663463441304
20
-8.2109914256047425
10
4.5149701569117999
20
-6.9869533199280927
10
2.3948739674794699
20
-8.2109914256047531
10
2.3948739674794699
20
-10.659067636958085
10
4.5149701569117999
20
-11.883105742634683
10
6.6350663463441304
20
-10.659067636958085
0
LWPOLYLINE
5
220
100
AcDbEntity
8
0
100
AcDbPolyline
90
6
70
1
43
0.0
10
-182.32433181056803
20
-99.837076894323388
10
-184.44442800000002
20
-98.613038788646691
10
-186.56452418943201
20
-99.837076894323388
10
-186.56452418943201
20
-102.285153105677
10
-184.44442800000002
20
-103.50919121135298
10
-182.32433181056803
20
-102.285153105677
0
LWPOLYLINE
5
221
100
AcDbEntity
8
0
100
AcDbPolyline
90
6
70
1
43
0.0
10
2.39487397795684
20
-98.300936574445387
10
2.3948739779568502
20
-100.749012785799
10
4.5149701673891798
20
-101.97305089147498
10
6.6350663568215111
20
-100.749012785799
10
6.6350663568215209
20
-98.300936574445387
10
4.5149701673891798
20
-97.07689846876869
0
LWPOLYLINE
5
222
100
AcDbEntity
8
0
100
AcDbPolyline
90
41
70
1
43
0.0
10
-32.930001611588509
20
-89.67985969808538
42
-0.41425590102555537
10
-33.930146162625604
20
-90.679859687637872
10
-76.495579108918307
20
-90.673706810097485
42
0.36401115988943011
10
-76.988055260942915
20
-91.086882716040265
10
-77.100076707401911
20
-91.72218790875057
42
-0.41421356237309082
10
-77.679304672741495
20
-92.127767696423177
10
-152.18014669978001
20
-78.991259161557167
42
-0.41433818745670026
10
-152.99123230252454
20
-77.832384232672055
10
-150.02066478314299
20
-61.027273397404088
42
0.41433818745707163
10
-150.83175038588797
20
-59.868398468518635
10
-153.53935563553901
20
-59.390974609897356
42
-0.41421046593177346
10
-154.35051704662439
20
-58.232529090540119
10
-151.389808400682
20
-41.44047788301458
42
0.4142104659318116
10
-152.20096981176701
20
-40.282032363657329
10
-159.630165006624
20
-38.972064805854465
42
-0.41415732530162225
10
-160.44135790586114
20
-37.813797970513754
10
-157.47771310283301
20
-20.987240950869285
42
0.41415732530190669
10
-158.28890600207097
20
-19.828974115528396
10
-160.82313746331803
20
-19.382120733550437
42
-0.41418798682729496
10
-161.63431219806969
20
-18.22375079809337
10
-158.50992800970678
20
-0.49543525978732045
42
-0.41416753455050798
10
-157.35169768325903
20
0.31585273356103949
10
-83.572069954298414
20
-12.674889175119944
42
-0.4142466973001232
10
-82.760646816137395
20
-13.833258178348286
10
-85.727007277892312
20
-30.669254909796884
42
0.41417509308630412
10
-84.915824903369895
20
-31.827581490244171
10
-80.648638442755299
20
-32.580001594964386
10
-77.690003595082104
20
-32.580001594964386
42
0.41421356237309503
10
-76.690003595082118
20
-31.580001594964386
10
-76.690003595082104
20
-14.480000687763084
42
-0.41421356237309503
10
-75.690003595082104
20
-13.480000687763084
10
-29.099999349564296
20
-13.480000687763074
42
-0.4142135623730937
10
-28.099999349564293
20
-14.480000687763086
10
-28.099999349564321
20
-51.599998846650088
42
-0.41421356237309503
10
-29.0999993495643
20
-52.599998846650067
10
-30.100522844208601
20
-52.599998846650081
42
0.41406018941758538
10
-31.100522707090104
20
-53.599475170255587
10
-31.109478122913899
20
-70.700522096126292
42
-0.41406018941761397
10
-32.109477985795401
20
-71.699998419731884
10
-31.930001611588501
20
-71.699998419731884
42
0.41421356237309503
10
-32.930001611588501
20
-72.699998419731884
0
LWPOLYLINE
5
223
100
AcDbEntity
8
0
100
AcDbPolyline
90
46
70
1
43
0.0
10
-271.72001277776599
20
-91.650004210650906
42
-0.41421365511580932
10
-272.02001287275908
20
-91.35000421065088
10
-272.02001287275903
20
-91.004977982301085
42
0.41418790554253981
10
-272.31998659315099
20
-90.704977983452139
10
-328.17010318593407
20
-90.700085586071125
42
-0.41418790554204732
10
-329.17001558723905
20
-89.700085589907872
10
-329.17001558723814
20
-71.71000340604219
42
-0.41421356237274382
10
-328.17001558723905
20
-70.71000340604229
10
-327.35001426472797
20
-70.71000340604229
42
0.41421321424943042
10
-326.35001426472866
20
-69.710004594610979
10
-326.34999391642839
20
-52.590001309322183
42
-0.4142132142494252
10
-325.34999391642907
20
-51.590002497890907
10
-315.98001491324999
20
-51.590002497890985
42
0.41421356237309503
10
-314.98001491325005
20
-50.590002497890993
10
-314.98001491324999
20
-33.590001595439382
42
-0.41421356237309503
10
-313.98001491324999
20
-32.590001595439418
10
-311.06501467980002
20
-32.590001595439382
42
0.41421356237309503
10
-310.06501467980007
20
-31.590001595439382
10
-310.06501467980002
20
-14.479794459676585
42
-0.41415315462650809
10
-309.065220929151
20
-13.479794480946003
10
-262.58021872123197
20
-13.470206979182802
42
-0.41427397270009264
10
-261.58001247188105
20
-14.470206957913383
10
-261.58001247188099
20
-31.575001594726881
42
0.41421356237312495
10
-260.58001247188099
20
-32.575001594726963
10
-251.59779538296104
20
-32.575001594726885
10
-249.00377221915403
20
-32.11760532236498
42
0.4142051881649671
10
-248.19260767936345
20
-30.959177548808494
10
-251.1608443864036
20
-14.122655767773091
42
-0.41432463786311591
10
-250.34927821579402
20
-12.964157260305026
10
-185.79361643134996
20
-1.608395476322058
42
-0.41409412205628104
10
-184.63556213148883
20
-2.4196257855787029
10
-181.67121668067301
20
-19.231264247860583
42
0.41421356237317092
10
-180.51276074999299
20
-20.042423823205816
10
-177.77669770327299
20
-19.559982087149589
42
-0.41420624843537712
10
-176.61824610914067
20
-20.37111707051082
10
-173.49191343159464
20
-38.098842079119414
42
-0.41422087634861915
10
-174.30306867039303
20
-39.257322601782505
10
-181.70096662880101
20
-40.561771612377989
42
0.41421356237299767
10
-182.51212620414631
20
-41.720227543056964
10
-179.71605605889602
20
-57.577529324193584
42
0.41421356237314888
10
-178.55760012821702
20
-58.38868889953892
10
-175.84448292674301
20
-57.91029313509479
42
-0.41423078765107124
10
-174.68601678544471
20
-58.721510627697342
10
-171.56159878090165
20
-76.447061413250893
42
-0.41419633730485611
10
-172.37276856686603
20
-77.605459426672482
10
-252.02330469419303
20
-91.649997973814578
0
LWPOLYLINE
5
224
100
AcDbEntity
8
0
100
AcDbPolyline
90
24
70
1
43
0.0
10
-8.0999997742474115
20
-76.449998313561082
10
-5.2999998815357596
20
-76.449998313561082
42
0.41421356237309503
10
-4.2999998815357703
20
-75.449998313561082
10
-4.2999998815357765
20
-58.399998739361784
42
-0.41421356237309798
10
-3.2999998815357703
20
-57.399998739361784
10
-0.54999998770654113
20
-57.399998739361777
42
0.41421356237309681
10
0.45000001229346104
20
-56.399998739361777
10
0.45000001229345804
20
-38.299999277023986
42
0.41421360135593227
10
-0.55000012080226979
20
-37.299999277023986
10
-18.649999716235701
20
-37.300001686056696
42
0.4142135233902679
10
-19.649999583140001
20
-38.300001686056689
10
-19.649999583140008
20
-55.349998718127587
42
-0.41421356237309503
10
-20.649999583140005
20
-56.349998718127587
10
-23.494737196553402
20
-56.349998718127594
42
0.41575189625309228
10
-24.494723418787501
20
-57.355248036371982
10
-24.405276423260226
20
-74.394748974082589
42
-0.41575189625306364
10
-25.405262645494304
20
-75.399998292326885
10
-28.199999369680899
20
-75.399998292326885
42
0.41421356237309503
10
-29.199999369680899
20
-76.399998292326885
10
-29.199999369680889
20
-94.500001408159704
42
0.41421356237309503
10
-28.199999369680899
20
-95.50000140815969
10
-10.099999774247401
20
-95.50000140815969
42
0.41421356237309503
10
-9.0999997742474008
20
-94.500001408159704
10
-9.099999774247415
20
-77.449998313561082
42
-0.41421356237309503
0
ENDSEC
0
SECTION
2
OBJECTS
0
DICTIONARY
5
C
100
AcDbDictionary
3
ACAD_GROUP
350
D
3
ACAD_MLINESTYLE
350
17
0
DICTIONARY
5
D
100
AcDbDictionary
0
DICTIONARY
5
1A
330
C
100
AcDbDictionary
0
DICTIONARY
5
17
100
AcDbDictionary
0
ENDSEC
0
EOF
