0
SECTION
2
HEADER
9
$INSUNITS
70
4
9
$ACADVER
1
AC1014
9
$HANDSEED
5
FFFF
0
ENDSEC
0
SECTION
2
TABLES
0
TABLE
2
VPORT
5
8
100
AcDbSymbolTable
0
ENDTAB
0
TABLE
2
LTYPE
5
5
100
AcDbSymbolTable
0
LTYPE
5
14
100
AcDbSymbolTableRecord
100
AcDbLinetypeTableRecord
2
BYBLOCK
70
0
0
LTYPE
5
15
100
AcDbSymbolTableRecord
100
AcDbLinetypeTableRecord
2
BYLAYER
70
0
0
ENDTAB
0
TABLE
2
LAYER
5
2
100
AcDbSymbolTable
70
2
0
LAYER
5
50
100
AcDbSymbolTableRecord
100
AcDbLayerTableRecord
2
0
70
0
6
CONTINUOUS
0
ENDTAB
0
TABLE
2
STYLE
5
3
100
AcDbSymbolTable
70
1
0
STYLE
5
11
100
AcDbSymbolTableRecord
100
AcDbTextStyleTableRecord
2
STANDARD
70
0
0
ENDTAB
0
TABLE
2
VIEW
5
6
100
AcDbSymbolTable
70
0
0
ENDTAB
0
TABLE
2
UCS
5
7
100
AcDbSymbolTable
70
0
0
ENDTAB
0
TABLE
2
APPID
5
9
100
AcDbSymbolTable
70
2
0
APPID
5
12
100
AcDbSymbolTableRecord
100
AcDbRegAppTableRecord
2
ACAD
70
0
0
ENDTAB
0
TABLE
2
DIMSTYLE
5
A
100
AcDbSymbolTable
70
1
0
ENDTAB
0
TABLE
2
BLOCK_RECORD
5
1
100
AcDbSymbolTable
70
1
0
BLOCK_RECORD
5
1F
100
AcDbSymbolTableRecord
100
AcDbBlockTableRecord
2
*MODEL_SPACE
0
BLOCK_RECORD
5
1B
100
AcDbSymbolTableRecord
100
AcDbBlockTableRecord
2
*PAPER_SPACE
0
ENDTAB
0
ENDSEC
0
SECTION
2
BLOCKS
0
BLOCK
5
20
100
AcDbEntity
100
AcDbBlockBegin
2
*MODEL_SPACE
0
ENDBLK
5
21
100
AcDbEntity
100
AcDbBlockEnd
0
BLOCK
5
1C
100
AcDbEntity
100
AcDbBlockBegin
2
*PAPER_SPACE
0
ENDBLK
5
1D
100
AcDbEntity
100
AcDbBlockEnd
0
ENDSEC
0
SECTION
2
ENTITIES
0
LWPOLYLINE
5
100
100
AcDbEntity
8
0
100
AcDbPolyline
90
6
70
1
43
0.0
10
-144.994428
20
-102.36015310567701
10
-142.744428
20
-103.659191211353
10
-140.49442800000003
20
-102.36015310567701
10
-140.49442800000003
20
-99.7620768943233
10
-142.744428
20
-98.463038788646713
10
-144.994428
20
-99.762076894323414
0
LWPOLYLINE
5
101
100
AcDbEntity
8
0
100
AcDbPolyline
90
6
70
1
43
0.0
10
-335.47775359580697
20
-100.82296975324502
10
-333.22775359580697
20
-102.122007858922
10
-330.97775359580703
20
-100.82296975324502
10
-330.97775359580703
20
-98.224893541892015
10
-333.22775359580697
20
-96.9258554362154
10
-335.47775359580697
20
-98.224893541892015
0
LWPOLYLINE
5
102
100
AcDbEntity
8
0
100
AcDbPolyline
90
6
70
1
43
0.0
10
-168.416851730741
20
6.0781025013640111
10
-166.166851730741
20
4.7790643956873504
10
-163.91685173074103
20
6.0781025013640111
10
-163.91685173074103
20
8.6761787127173307
10
-166.166851730741
20
9.9752168183939798
10
-168.416851730741
20
8.67617871271732
0
LWPOLYLINE
5
103
100
AcDbEntity
8
0
100
AcDbPolyline
90
6
70
1
43
0.0
10
-335.47764212531803
20
-10.7306702533446
10
-333.22764212531803
20
-12.029708359021301
10
-330.97764212531808
20
-10.7306702533446
10
-330.97764212531808
20
-8.1325940419912897
10
-333.22764212531803
20
-6.8335559363146405
10
-335.47764212531803
20
-8.1325940419913003
0
LWPOLYLINE
5
104
100
AcDbEntity
8
0
100
AcDbPolyline
90
6
70
1
43
0.0
10
2.2649701569117999
20
-10.7340676369581
10
4.5149701569117999
20
-12.033105742634699
10
6.7649701569118008
20
-10.7340676369581
10
6.7649701569118008
20
-8.1359914256047396
10
4.5149701569117999
20
-6.8369533199280896
10
2.2649701569117999
20
-8.1359914256047503
0
LWPOLYLINE
5
105
100
AcDbEntity
8
0
100
AcDbPolyline
90
6
70
1
43
0.0
10
-186.69442799999999
20
-102.36015310567701
10
-184.44442800000002
20
-103.659191211353
10
-182.19442799999999
20
-102.36015310567701
10
-182.19442799999999
20
-99.7620768943233
10
-184.44442800000002
20
-98.463038788646713
10
-186.69442799999999
20
-99.762076894323414
0
LWPOLYLINE
5
106
100
AcDbEntity
8
0
100
AcDbPolyline
90
6
70
1
43
0.0
10
2.2649701673891798
20
-100.82401278579901
10
4.5149701673891798
20
-102.123050891475
10
6.7649701673891807
20
-100.82401278579901
10
6.7649701673891807
20
-98.225936574445299
10
4.5149701673891798
20
-96.926898468768712
10
2.2649701673891798
20
-98.225936574445413
0
LWPOLYLINE
5
107
100
AcDbEntity
8
0
100
AcDbPolyline
90
19
70
1
43
0.0
10
-340.662677782397
20
-13.998900275477901
10
-340.66305866164271
20
-11.998900311745199
42
-0.41421356237308732
10
-330.66496323921103
20
-1.9969960968498601
10
-254.28794782347899
20
-1.9824508865523205
10
-170.83857144888907
20
12.73192569158363
42
-0.039145615902706793
10
-166.17000789266103
20
13.182816820029469
42
-0.039145615902704461
10
-161.50144433641699
20
12.731925691584101
10
-77.969918979416207
20
-1.9969359685884802
10
1.9495610953744285
20
-1.9969359685885613
42
-0.41421356237309592
10
11.949561095374399
20
-11.996935968588501
10
11.949561095374399
20
-13.996935968588495
10
11.9499999976252
20
-94.960004510358004
10
11.94999999762552
20
-96.96000450877861
42
-0.41421356214180577
10
1.9500000055218403
20
-106.96000450877901
10
-0.050000002374872565
20
-106.960004510358
10
-328.65905687794998
20
-106.96019296070702
10
-330.65905687795004
20
-106.96019296070661
42
-0.41421356237309503
10
-340.65905687795004
20
-96.960192960706607
10
-340.65905687795004
20
-94.960192960706621
0
LWPOLYLINE
5
108
100
AcDbEntity
8
0
100
AcDbPolyline
90
4
70
1
43
0.0
10
-35.9572
20
-87.974000000000018
10
-35.9572
20
-73.974299999999999
10
-49.956500000000005
20
-73.974299999999999
10
-49.956500000000005
20
-87.974000000000018
0
LWPOLYLINE
5
109
100
AcDbEntity
8
0
100
AcDbPolyline
90
4
70
1
43
0.0
10
-26.144100000000002
20
-92.736500000000021
10
-12.144700000000002
20
-92.736500000000021
10
-12.144700000000002
20
-78.736800000000002
10
-26.144100000000002
20
-78.736800000000002
0
LWPOLYLINE
5
110
100
AcDbEntity
8
0
100
AcDbPolyline
90
4
70
1
43
0.0
10
-55.007200000000005
20
-87.974000000000018
10
-55.007200000000005
20
-73.974299999999999
10
-69.006500000000003
20
-73.974299999999999
10
-69.006500000000003
20
-87.974000000000018
0
LWPOLYLINE
5
111
100
AcDbEntity
8
0
100
AcDbPolyline
90
4
70
1
43
0.0
10
-255.03200000000004
20
-74.9268
10
-269.03199999999998
20
-74.9268
10
-269.03199999999998
20
-88.926100000000019
10
-255.03200000000004
20
-88.926100000000019
0
LWPOLYLINE
5
112
100
AcDbEntity
8
0
100
AcDbPolyline
90
4
70
1
43
0.0
10
-288.08199999999999
20
-87.974000000000018
10
-274.08199999999999
20
-87.974000000000018
10
-274.08199999999999
20
-73.974299999999999
10
-288.08199999999999
20
-73.974299999999999
0
LWPOLYLINE
5
113
100
AcDbEntity
8
0
100
AcDbPolyline
90
4
70
1
43
0.0
10
-191.09000000000003
20
-63.9163
10
-188.65899999999999
20
-77.703500000000005
10
-174.87300000000002
20
-75.271100000000004
10
-177.304
20
-61.485300000000009
0
LWPOLYLINE
5
114
100
AcDbEntity
8
0
100
AcDbPolyline
90
4
70
1
43
0.0
10
-220.39100000000002
20
-63.954700000000003
10
-222.82200000000003
20
-50.167500000000004
10
-236.60900000000001
20
-52.598500000000001
10
-234.178
20
-66.3857
0
LWPOLYLINE
5
115
100
AcDbEntity
8
0
100
AcDbPolyline
90
4
70
1
43
0.0
10
-97.3459
20
-52.326800000000006
10
-111.13300000000001
20
-49.896200000000007
10
-113.56400000000001
20
-63.683399999999999
10
-99.776799999999994
20
-66.114099999999993
0
LWPOLYLINE
5
116
100
AcDbEntity
8
0
100
AcDbPolyline
90
4
70
1
43
0.0
10
-50.432100000000005
20
-54.924300000000002
10
-50.432100000000005
20
-68.924000000000007
10
-36.432400000000001
20
-68.924000000000007
10
-36.432400000000001
20
-54.924300000000002
0
LWPOLYLINE
5
117
100
AcDbEntity
8
0
100
AcDbPolyline
90
4
70
1
43
0.0
10
-212.393
20
-81.887100000000004
10
-214.82500000000002
20
-68.101299999999995
10
-228.61099999999999
20
-70.532300000000006
10
-226.18000000000001
20
-84.319500000000005
0
LWPOLYLINE
5
118
100
AcDbEntity
8
0
100
AcDbPolyline
90
4
70
1
43
0.0
10
-109.751
20
-69.483500000000021
10
-112.18200000000002
20
-83.270700000000005
10
-98.3947
20
-85.701700000000017
10
-95.963700000000003
20
-71.914500000000004
0
LWPOLYLINE
5
119
100
AcDbEntity
8
0
100
AcDbPolyline
90
4
70
1
43
0.0
10
-233.58400000000003
20
-71.408600000000007
10
-247.37300000000002
20
-73.839600000000004
10
-244.94200000000004
20
-87.628200000000021
10
-231.15300000000002
20
-85.19580000000002
0
LWPOLYLINE
5
120
100
AcDbEntity
8
0
100
AcDbPolyline
90
4
70
1
43
0.0
10
-326.18200000000002
20
-73.974299999999999
10
-326.18200000000002
20
-87.974000000000018
10
-312.18200000000002
20
-87.974000000000018
10
-312.18200000000002
20
-73.974299999999999
0
LWPOLYLINE
5
121
100
AcDbEntity
8
0
100
AcDbPolyline
90
4
70
1
43
0.0
10
-77.203300000000013
20
-75.221699999999998
10
-90.990600000000001
20
-72.790800000000004
10
-93.421199999999999
20
-86.579400000000021
10
-79.633900000000011
20
-89.010400000000004
0
LWPOLYLINE
5
122
100
AcDbEntity
8
0
100
AcDbPolyline
90
4
70
1
43
0.0
10
-94.803399999999996
20
-66.990700000000004
10
-81.016099999999994
20
-69.421400000000006
10
-78.585499999999996
20
-55.634100000000004
10
-92.372700000000009
20
-53.203500000000005
0
LWPOLYLINE
5
123
100
AcDbEntity
8
0
100
AcDbPolyline
90
4
70
1
43
0.0
10
-193.63200000000003
20
-78.579800000000006
10
-196.06300000000002
20
-64.792599999999993
10
-209.85200000000003
20
-67.223600000000005
10
-207.42099999999999
20
-81.012200000000007
0
LWPOLYLINE
5
124
100
AcDbEntity
8
0
100
AcDbPolyline
90
4
70
1
43
0.0
10
-21.381700000000002
20
-59.686799999999998
10
-21.381700000000002
20
-73.686499999999995
10
-7.3821600000000096
20
-73.686499999999995
10
-7.3821600000000087
20
-59.686799999999998
0
LWPOLYLINE
5
125
100
AcDbEntity
8
0
100
AcDbPolyline
90
4
70
1
43
0.0
10
-252.93900000000002
20
-69.694400000000002
10
-239.15300000000002
20
-67.263400000000004
10
-241.584
20
-53.476199999999999
10
-255.37100000000004
20
-55.90720000000001
0
LWPOLYLINE
5
126
100
AcDbEntity
8
0
100
AcDbPolyline
90
4
70
1
43
0.0
10
-293.13200000000001
20
-87.974000000000018
10
-293.13200000000001
20
-73.974299999999999
10
-307.13200000000001
20
-73.974299999999999
10
-307.13200000000001
20
-87.974000000000018
0
LWPOLYLINE
5
127
100
AcDbEntity
8
0
100
AcDbPolyline
90
4
70
1
43
0.0
10
-57.863700000000009
20
-54.924300000000002
10
-71.864699999999999
20
-54.924300000000002
10
-71.864699999999999
20
-68.924000000000007
10
-57.863700000000009
20
-68.924000000000007
0
LWPOLYLINE
5
128
100
AcDbEntity
8
0
100
AcDbPolyline
90
4
70
1
43
0.0
10
-261.69900000000001
20
-68.924000000000007
10
-261.69900000000001
20
-54.924300000000002
10
-275.69999999999999
20
-54.924300000000002
10
-275.69999999999999
20
-68.924000000000007
0
LWPOLYLINE
5
129
100
AcDbEntity
8
0
100
AcDbPolyline
90
4
70
1
43
0.0
10
-133.48500000000001
20
-65.298500000000004
10
-147.27199999999999
20
-62.867500000000007
10
-149.70300000000003
20
-76.654700000000005
10
-135.916
20
-79.085700000000003
0
LWPOLYLINE
5
130
100
AcDbEntity
8
0
100
AcDbPolyline
90
4
70
1
43
0.0
10
-132.32599999999999
20
-60.374699999999997
10
-118.538
20
-62.805400000000006
10
-116.10700000000001
20
-49.018100000000004
10
-129.89400000000001
20
-46.587500000000006
0
LWPOLYLINE
5
131
100
AcDbEntity
8
0
100
AcDbPolyline
90
4
70
1
43
0.0
10
-280.74900000000002
20
-54.924300000000002
10
-294.75
20
-54.924300000000002
10
-294.75
20
-68.924000000000007
10
-280.74900000000002
20
-68.924000000000007
0
LWPOLYLINE
5
132
100
AcDbEntity
8
0
100
AcDbPolyline
90
4
70
1
43
0.0
10
-304.56200000000001
20
-54.924300000000002
10
-318.56099999999998
20
-54.924300000000002
10
-318.56099999999998
20
-68.924000000000007
10
-304.56200000000001
20
-68.924000000000007
0
LWPOLYLINE
5
133
100
AcDbEntity
8
0
100
AcDbPolyline
90
4
70
1
43
0.0
10
-197.98900000000003
20
-26.444500000000005
10
-211.77700000000002
20
-28.875399999999999
10
-209.34600000000003
20
-42.662800000000004
10
-195.55900000000003
20
-40.2318
0
LWPOLYLINE
5
134
100
AcDbEntity
8
0
100
AcDbPolyline
90
4
70
1
43
0.0
10
-230.53700000000003
20
-32.184100000000001
10
-228.107
20
-45.971499999999999
10
-214.32000000000002
20
-43.540500000000002
10
-216.75
20
-29.7532
0
LWPOLYLINE
5
135
100
AcDbEntity
8
0
100
AcDbPolyline
90
4
70
1
43
0.0
10
-16.619199999999999
20
-54.636500000000005
10
-2.61965000000004
20
-54.636500000000005
10
-2.61965000000004
20
-40.636800000000008
10
-16.619199999999999
20
-40.636800000000008
0
LWPOLYLINE
5
136
100
AcDbEntity
8
0
100
AcDbPolyline
90
4
70
1
43
0.0
10
-255.03200000000004
20
-49.874000000000009
10
-255.03200000000004
20
-35.874299999999998
10
-269.03199999999998
20
-35.874299999999998
10
-269.03199999999998
20
-49.874000000000009
0
LWPOLYLINE
5
137
100
AcDbEntity
8
0
100
AcDbPolyline
90
4
70
1
43
0.0
10
-199.08799999999999
20
-45.982500000000002
10
-196.65700000000001
20
-59.769700000000007
10
-182.87000000000003
20
-57.338700000000003
10
-185.30200000000002
20
-43.551500000000004
0
LWPOLYLINE
5
138
100
AcDbEntity
8
0
100
AcDbPolyline
90
4
70
1
43
0.0
10
-138.398
20
-39.9602
10
-124.60900000000001
20
-42.391199999999998
10
-122.178
20
-28.603900000000003
10
-135.96700000000001
20
-26.173100000000002
0
LWPOLYLINE
5
139
100
AcDbEntity
8
0
100
AcDbPolyline
90
4
70
1
43
0.0
10
-128.512
20
-66.174800000000005
10
-130.94300000000001
20
-79.963400000000007
10
-117.155
20
-82.394400000000005
10
-114.724
20
-68.607200000000006
0
LWPOLYLINE
5
140
100
AcDbEntity
8
0
100
AcDbPolyline
90
4
70
1
43
0.0
10
-201.631
20
-60.647400000000005
10
-204.06100000000004
20
-46.860199999999999
10
-217.84999999999999
20
-49.291200000000011
10
-215.41900000000001
20
-63.078400000000002
0
LWPOLYLINE
5
141
100
AcDbEntity
8
0
100
AcDbPolyline
90
4
70
1
43
0.0
10
-52.337800000000001
20
-35.874299999999998
10
-52.337800000000001
20
-49.874000000000009
10
-38.3371
20
-49.874000000000009
10
-38.3371
20
-35.874299999999998
0
LWPOLYLINE
5
142
100
AcDbEntity
8
0
100
AcDbPolyline
90
4
70
1
43
0.0
10
-246.86700000000002
20
-49.278800000000004
10
-233.08000000000004
20
-46.847799999999999
10
-235.51100000000002
20
-33.060499999999998
10
-249.298
20
-35.491200000000006
0
LWPOLYLINE
5
143
100
AcDbEntity
8
0
100
AcDbPolyline
90
4
70
1
43
0.0
10
-176.798
20
-36.924500000000002
10
-179.22900000000001
20
-23.1372
10
-193.01600000000002
20
-25.568100000000005
10
-190.58500000000004
20
-39.355499999999999
0
LWPOLYLINE
5
144
100
AcDbEntity
8
0
100
AcDbPolyline
90
4
70
1
43
0.0
10
-78.531499999999994
20
-49.874000000000009
10
-64.532200000000003
20
-49.874000000000009
10
-64.532200000000003
20
-35.874299999999998
10
-78.531499999999994
20
-35.874299999999998
0
LWPOLYLINE
5
145
100
AcDbEntity
8
0
100
AcDbPolyline
90
4
70
1
43
0.0
10
-157.15700000000001
20
-36.651800000000001
10
-143.37100000000001
20
-39.0839
10
-140.93899999999999
20
-25.295300000000005
10
-154.726
20
-22.864400000000003
0
LWPOLYLINE
5
146
100
AcDbEntity
8
0
100
AcDbPolyline
90
4
70
1
43
0.0
10
-274.08199999999999
20
-35.874299999999998
10
-288.08199999999999
20
-35.874299999999998
10
-288.08199999999999
20
-49.874000000000009
10
-274.08199999999999
20
-49.874000000000009
0
LWPOLYLINE
5
147
100
AcDbEntity
8
0
100
AcDbPolyline
90
4
70
1
43
0.0
10
-295.512
20
-35.874299999999998
10
-309.51299999999998
20
-35.874299999999998
10
-309.51299999999998
20
-49.874000000000009
10
-295.512
20
-49.874000000000009
0
LWPOLYLINE
5
148
100
AcDbEntity
8
0
100
AcDbPolyline
90
4
70
1
43
0.0
10
-134.86699999999999
20
-45.710800000000006
10
-148.655
20
-43.280200000000008
10
-151.08500000000001
20
-57.067500000000003
10
-137.298
20
-59.498100000000001
0
LWPOLYLINE
5
149
100
AcDbEntity
8
0
100
AcDbPolyline
90
36
70
1
43
0.0
10
-140.51009600396199
20
-10.800985046849799
10
-142.012096003962
20
-10.534985046849801
10
-141.23509600396201
20
-6.1335850468498512
10
-142.934096003962
20
-5.8344850468498501
10
-142.72609600396203
20
-4.6521850468498496
10
-145.976096003962
20
-4.0802850468498502
10
-146.18509600396203
20
-5.2611850468498513
10
-147.88309600396201
20
-4.9621850468498501
10
-148.971096003962
20
-11.137185046849801
10
-149.78409600396199
20
-10.993885046849801
10
-150.27109600396199
20
-13.749985046849799
10
-149.458096003962
20
-13.893285046849901
10
-150.01909600396201
20
-17.0751850468498
10
-143.37109600396201
20
-18.246485046849902
10
-142.810096003962
20
-15.065985046849802
10
-141.30809600396199
20
-15.330585046849802
10
-142.125096003962
20
-19.959395046849799
10
-128.33809600396199
20
-22.390245046849802
10
-127.52209600396201
20
-17.761385046849899
10
-126.02009600396201
20
-18.0259850468499
10
-126.58109600396202
20
-21.207875046849903
10
-119.932096003962
20
-22.3792450468498
10
-119.37209600396201
20
-19.198705046849899
10
-118.55909600396201
20
-19.342035046849901
10
-118.07309600396201
20
-16.584585046849899
10
-118.88609600396201
20
-16.441285046849899
10
-117.79709600396201
20
-10.266285046849902
10
-119.495096003962
20
-9.9672850468498506
10
-119.28709600396202
20
-8.7862850468498497
10
-122.53809600396201
20
-8.2129850468498606
10
-122.74609600396201
20
-9.3939850468498491
10
-124.44509600396202
20
-9.0949850468498497
10
-125.221096003962
20
-13.496385046849902
10
-126.72309600396201
20
-13.231785046849902
10
-125.90709600396201
20
-8.6029850468498523
10
-139.69309600396201
20
-6.1720850468498512
0
LWPOLYLINE
5
150
100
AcDbEntity
8
0
100
AcDbPolyline
90
4
70
1
43
0.0
10
-33.575900000000004
20
-30.824000000000002
10
-33.575900000000004
20
-16.8245
10
-47.575299999999999
20
-16.8245
10
-47.575299999999999
20
-30.824000000000002
0
LWPOLYLINE
5
151
100
AcDbEntity
8
0
100
AcDbPolyline
90
4
70
1
43
0.0
10
-119.63700000000001
20
-43.267499999999998
10
-105.85000000000001
20
-45.6999
10
-103.41900000000001
20
-31.911200000000001
10
-117.20500000000001
20
-29.480400000000003
0
LWPOLYLINE
5
152
100
AcDbEntity
8
0
100
AcDbPolyline
90
4
70
1
43
0.0
10
-100.87600000000002
20
-46.576200000000007
10
-87.087800000000016
20
-49.007199999999997
10
-84.6571
20
-35.21990000000001
10
-98.445800000000006
20
-32.789000000000001
0
LWPOLYLINE
5
153
100
AcDbEntity
8
0
100
AcDbPolyline
90
4
70
1
43
0.0
10
-231.78300000000002
20
-13.059700000000001
10
-245.57000000000002
20
-15.490500000000003
10
-243.13999999999999
20
-29.277800000000003
10
-229.35200000000003
20
-26.847000000000001
0
LWPOLYLINE
5
154
100
AcDbEntity
8
0
100
AcDbPolyline
90
4
70
1
43
0.0
10
-102.172
20
-12.7882
10
-104.604
20
-26.575500000000005
10
-90.816999999999993
20
-29.0063
10
-88.385999999999996
20
-15.219000000000001
0
LWPOLYLINE
5
155
100
AcDbEntity
8
0
100
AcDbPolyline
90
4
70
1
43
0.0
10
-266.93700000000001
20
-16.8245
10
-280.93799999999999
20
-16.8245
10
-280.93799999999999
20
-30.824000000000002
10
-266.93700000000001
20
-30.824000000000002
0
LWPOLYLINE
5
156
100
AcDbEntity
8
0
100
AcDbPolyline
90
4
70
1
43
0.0
10
-71.387799999999999
20
-30.824000000000002
10
-57.387100000000004
20
-30.824000000000002
10
-57.387100000000004
20
-16.8245
10
-71.387799999999999
20
-16.8245
0
LWPOLYLINE
5
157
100
AcDbEntity
8
0
100
AcDbPolyline
90
4
70
1
43
0.0
10
-304.75
20
-30.824000000000002
10
-290.75099999999998
20
-30.824000000000002
10
-290.75099999999998
20
-16.8245
10
-304.75
20
-16.8245
0
LWPOLYLINE
5
158
100
AcDbEntity
8
0
100
AcDbPolyline
90
36
70
1
43
0.0
10
-213.42500000000001
20
-14.594800000000001
10
-214.20100000000002
20
-10.193300000000001
10
-215.90000000000003
20
-10.4924
10
-216.108
20
-9.3113899999999994
10
-219.35900000000004
20
-9.8832799999999992
10
-219.15100000000001
20
-11.0657
10
-220.85000000000002
20
-11.364699999999999
10
-219.75999999999999
20
-17.5397
10
-220.57300000000001
20
-17.683
10
-220.08600000000001
20
-20.440400000000004
10
-219.27500000000003
20
-20.298500000000001
10
-218.714
20
-23.478999999999999
10
-212.06500000000003
20
-22.3063
10
-212.62700000000001
20
-19.125800000000002
10
-211.125
20
-18.8612
10
-210.30799999999999
20
-23.488700000000001
10
-196.52199999999999
20
-21.0578
10
-197.33800000000002
20
-16.430299999999999
10
-195.83600000000004
20
-16.164400000000001
10
-195.27500000000003
20
-19.346299999999999
10
-188.62700000000001
20
-18.1736
10
-189.18800000000002
20
-14.993100000000002
10
-188.37500000000003
20
-14.848300000000002
10
-188.86300000000003
20
-12.0923
10
-189.67400000000001
20
-12.2342
10
-190.76300000000001
20
-6.05924
10
-192.46200000000002
20
-6.359630000000001
10
-192.66999999999999
20
-5.1773000000000007
10
-195.91999999999999
20
-5.7505600000000001
10
-195.71200000000002
20
-6.9328900000000004
10
-197.41100000000003
20
-7.2333200000000009
10
-196.63499999999999
20
-11.6348
10
-198.137
20
-11.8994
10
-198.95300000000003
20
-7.2705399999999996
10
-212.74000000000001
20
-9.70139
10
-211.92300000000003
20
-14.3302
0
ENDSEC
0
SECTION
2
OBJECTS
0
DICTIONARY
5
C
100
AcDbDictionary
3
ACAD_GROUP
350
D
3
ACAD_MLINESTYLE
350
17
0
DICTIONARY
5
D
100
AcDbDictionary
0
DICTIONARY
5
1A
330
C
100
AcDbDictionary
0
DICTIONARY
5
17
100
AcDbDictionary
0
ENDSEC
0
EOF
