0
SECTION
2
HEADER
9
$INSUNITS
70
4
9
$ACADVER
1
AC1014
9
$HANDSEED
5
FFFF
0
ENDSEC
0
SECTION
2
TABLES
0
TABLE
2
VPORT
5
8
100
AcDbSymbolTable
0
ENDTAB
0
TABLE
2
LTYPE
5
5
100
AcDbSymbolTable
0
LTYPE
5
14
100
AcDbSymbolTableRecord
100
AcDbLinetypeTableRecord
2
BYBLOCK
70
0
0
LTYPE
5
15
100
AcDbSymbolTableRecord
100
AcDbLinetypeTableRecord
2
BYLAYER
70
0
0
ENDTAB
0
TABLE
2
LAYER
5
2
100
AcDbSymbolTable
70
2
0
LAYER
5
50
100
AcDbSymbolTableRecord
100
AcDbLayerTableRecord
2
0
70
0
6
CONTINUOUS
0
ENDTAB
0
TABLE
2
STYLE
5
3
100
AcDbSymbolTable
70
1
0
STYLE
5
11
100
AcDbSymbolTableRecord
100
AcDbTextStyleTableRecord
2
STANDARD
70
0
0
ENDTAB
0
TABLE
2
VIEW
5
6
100
AcDbSymbolTable
70
0
0
ENDTAB
0
TABLE
2
UCS
5
7
100
AcDbSymbolTable
70
0
0
ENDTAB
0
TABLE
2
APPID
5
9
100
AcDbSymbolTable
70
2
0
APPID
5
12
100
AcDbSymbolTableRecord
100
AcDbRegAppTableRecord
2
ACAD
70
0
0
ENDTAB
0
TABLE
2
DIMSTYLE
5
A
100
AcDbSymbolTable
70
1
0
ENDTAB
0
TABLE
2
BLOCK_RECORD
5
1
100
AcDbSymbolTable
70
1
0
BLOCK_RECORD
5
1F
100
AcDbSymbolTableRecord
100
AcDbBlockTableRecord
2
*MODEL_SPACE
0
BLOCK_RECORD
5
1B
100
AcDbSymbolTableRecord
100
AcDbBlockTableRecord
2
*PAPER_SPACE
0
ENDTAB
0
ENDSEC
0
SECTION
2
BLOCKS
0
BLOCK
5
20
100
AcDbEntity
100
AcDbBlockBegin
2
*MODEL_SPACE
0
ENDBLK
5
21
100
AcDbEntity
100
AcDbBlockEnd
0
BLOCK
5
1C
100
AcDbEntity
100
AcDbBlockBegin
2
*PAPER_SPACE
0
ENDBLK
5
1D
100
AcDbEntity
100
AcDbBlockEnd
0
ENDSEC
0
SECTION
2
ENTITIES
0
LWPOLYLINE
5
100
100
AcDbEntity
8
0
100
AcDbPolyline
90
6
70
1
43
0.0
10
6.6350663463441508
20
-8.2109914256047425
10
4.5149701569118168
20
-6.9869533199280918
10
2.3948739674794814
20
-8.2109914256047514
10
2.3948739674794792
20
-10.659067636958103
10
4.5149701569118141
20
-11.883105742634703
10
6.6350663463441499
20
-10.659067636958104
0
LWPOLYLINE
5
101
100
AcDbEntity
8
0
100
AcDbPolyline
90
6
70
1
43
0.0
10
-182.32433181056774
20
-99.837076894323189
10
-184.44442800000007
20
-98.613038788646605
10
-186.5645241894324
20
-99.837076894323303
10
-186.5645241894324
20
-102.2851531056769
10
-184.44442800000007
20
-103.5091912113529
10
-182.32433181056774
20
-102.2851531056769
0
LWPOLYLINE
5
102
100
AcDbEntity
8
0
100
AcDbPolyline
90
6
70
1
43
0.0
10
-333.22775359580703
20
-97.075855436215221
10
-335.34784978523936
20
-98.299893541891819
10
-335.34784978523936
20
-100.74796975324482
10
-333.22775359580703
20
-101.97200785892181
10
-331.10765740637476
20
-100.74796975324482
10
-331.10765740637476
20
-98.299893541891834
0
LWPOLYLINE
5
103
100
AcDbEntity
8
0
100
AcDbPolyline
90
6
70
1
43
0.0
10
-331.10754593588575
20
-8.207594041991106
10
-333.22764212531803
20
-6.9835559363144553
10
-335.34773831475036
20
-8.2075940419911273
10
-335.34773831475036
20
-10.655670253344411
10
-333.22764212531803
20
-11.879708359021118
10
-331.10754593588575
20
-10.655670253344429
0
LWPOLYLINE
5
104
100
AcDbEntity
8
0
100
AcDbPolyline
90
6
70
1
43
0.0
10
-164.0467555413087
20
6.1531025013641036
10
-164.0467555413087
20
8.601178712717422
10
-166.166851730741
20
9.8252168183940718
10
-168.28694792017333
20
8.6011787127174184
10
-168.28694792017333
20
6.1531025013640983
10
-166.166851730741
20
4.9290643956874431
0
LWPOLYLINE
5
105
100
AcDbEntity
8
0
100
AcDbPolyline
90
6
70
1
43
0.0
10
-140.62433181056772
20
-99.837076894323232
10
-142.74442800000006
20
-98.613038788646634
10
-144.86452418943239
20
-99.837076894323332
10
-144.86452418943239
20
-102.28515310567693
10
-142.74442800000006
20
-103.50919121135293
10
-140.62433181056772
20
-102.28515310567694
0
LWPOLYLINE
5
106
100
AcDbEntity
8
0
100
AcDbPolyline
90
6
70
1
43
0.0
10
6.6350663568214765
20
-98.300936574445302
10
4.5149701673891469
20
-97.076898468768718
10
2.3948739779568142
20
-98.300936574445416
10
2.3948739779568111
20
-100.74901278579901
10
4.5149701673891443
20
-101.973050891475
10
6.6350663568214792
20
-100.74901278579901
0
LWPOLYLINE
5
107
100
AcDbEntity
8
0
100
AcDbPolyline
90
32
70
1
43
0.0
10
-328.86267800000013
20
-95.159114999999815
10
-172.44442800000002
20
-95.1591149999999
10
-172.44442800000004
20
-102.89661499999993
10
-172.4444256696751
20
-106.96010337491691
10
-328.65905687795009
20
-106.96019296070685
10
-330.65905687795009
20
-106.96019296070644
42
-0.41421356237309553
10
-340.65905687795009
20
-96.960192960706422
10
-340.65905687795009
20
-94.960192960706422
10
-340.662677782397
20
-13.998900275477713
10
-340.66305866164271
20
-11.998900311745011
42
-0.41421356237308715
10
-330.66496323921103
20
-1.9969960968496767
10
-254.28794782347899
20
-1.9824508865521784
10
-170.83857144888907
20
12.731925691583525
42
-0.039145615902707015
10
-166.170007892661
20
13.182816820029558
42
-0.039145615902704239
10
-161.50144433641699
20
12.731925691584189
10
-77.969918979416207
20
-1.9969359685884369
10
1.9495610953744484
20
-1.9969359685885812
42
-0.41421356237309592
10
11.949561095374392
20
-11.996935968588506
10
11.949561095374392
20
-13.996935968588495
10
11.949999997625147
20
-94.960004510358004
10
11.949999997625486
20
-96.96000450877861
42
-0.41421356214180594
10
1.950000005521801
20
-106.96000450877901
10
-0.050000002374908092
20
-106.960004510358
10
-154.74442566968105
20
-106.96009322434092
10
-154.74442800000006
20
-102.89661499999993
10
-154.74442800000006
20
-95.1591149999999
10
0.14982199999996518
20
-95.159115000000014
10
0.1498220000000039
20
-13.796615000000001
10
-78.998092545234726
20
-13.796614999999957
10
-166.166178
20
1.5734703223772306
10
-253.33426345475999
20
-13.796614999999861
10
-328.86267800000007
20
-13.796614999999814
0
ENDSEC
0
SECTION
2
OBJECTS
0
DICTIONARY
5
C
100
AcDbDictionary
3
ACAD_GROUP
350
D
3
ACAD_MLINESTYLE
350
17
0
DICTIONARY
5
D
100
AcDbDictionary
0
DICTIONARY
5
1A
330
C
100
AcDbDictionary
0
DICTIONARY
5
17
100
AcDbDictionary
0
ENDSEC
0
EOF
