0
SECTION
2
HEADER
9
$INSUNITS
70
4
9
$ACADVER
1
AC1014
9
$HANDSEED
5
FFFF
0
ENDSEC
0
SECTION
2
TABLES
0
TABLE
2
VPORT
5
8
100
AcDbSymbolTable
0
ENDTAB
0
TABLE
2
LTYPE
5
5
100
AcDbSymbolTable
0
LTYPE
5
14
100
AcDbSymbolTableRecord
100
AcDbLinetypeTableRecord
2
BYBLOCK
70
0
0
LTYPE
5
15
100
AcDbSymbolTableRecord
100
AcDbLinetypeTableRecord
2
BYLAYER
70
0
0
ENDTAB
0
TABLE
2
LAYER
5
2
100
AcDbSymbolTable
70
2
0
LAYER
5
50
100
AcDbSymbolTableRecord
100
AcDbLayerTableRecord
2
0
70
0
6
CONTINUOUS
0
ENDTAB
0
TABLE
2
STYLE
5
3
100
AcDbSymbolTable
70
1
0
STYLE
5
11
100
AcDbSymbolTableRecord
100
AcDbTextStyleTableRecord
2
STANDARD
70
0
0
ENDTAB
0
TABLE
2
VIEW
5
6
100
AcDbSymbolTable
70
0
0
ENDTAB
0
TABLE
2
UCS
5
7
100
AcDbSymbolTable
70
0
0
ENDTAB
0
TABLE
2
APPID
5
9
100
AcDbSymbolTable
70
2
0
APPID
5
12
100
AcDbSymbolTableRecord
100
AcDbRegAppTableRecord
2
ACAD
70
0
0
ENDTAB
0
TABLE
2
DIMSTYLE
5
A
100
AcDbSymbolTable
70
1
0
ENDTAB
0
TABLE
2
BLOCK_RECORD
5
1
100
AcDbSymbolTable
70
1
0
BLOCK_RECORD
5
1F
100
AcDbSymbolTableRecord
100
AcDbBlockTableRecord
2
*MODEL_SPACE
0
BLOCK_RECORD
5
1B
100
AcDbSymbolTableRecord
100
AcDbBlockTableRecord
2
*PAPER_SPACE
0
ENDTAB
0
ENDSEC
0
SECTION
2
BLOCKS
0
BLOCK
5
20
100
AcDbEntity
100
AcDbBlockBegin
2
*MODEL_SPACE
0
ENDBLK
5
21
100
AcDbEntity
100
AcDbBlockEnd
0
BLOCK
5
1C
100
AcDbEntity
100
AcDbBlockBegin
2
*PAPER_SPACE
0
ENDBLK
5
1D
100
AcDbEntity
100
AcDbBlockEnd
0
ENDSEC
0
SECTION
2
ENTITIES
0
LWPOLYLINE
5
100
100
AcDbEntity
8
0
100
AcDbPolyline
90
32
70
1
43
0.0
10
-328.86267800000013
20
-95.159114999999815
10
-172.44442800000002
20
-95.1591149999999
10
-172.44442800000004
20
-102.89661499999993
10
-172.4444256696751
20
-106.96010337491691
10
-328.65905687795009
20
-106.96019296070685
10
-330.65905687795009
20
-106.96019296070644
42
-0.41421356237309553
10
-340.65905687795009
20
-96.960192960706422
10
-340.65905687795009
20
-94.960192960706422
10
-340.662677782397
20
-13.998900275477713
10
-340.66305866164271
20
-11.998900311745011
42
-0.41421356237308715
10
-330.66496323921103
20
-1.9969960968496767
10
-254.28794782347899
20
-1.9824508865521784
10
-170.83857144888907
20
12.731925691583525
42
-0.039145615902707015
10
-166.170007892661
20
13.182816820029558
42
-0.039145615902704239
10
-161.50144433641699
20
12.731925691584189
10
-77.969918979416207
20
-1.9969359685884369
10
1.9495610953744484
20
-1.9969359685885812
42
-0.41421356237309592
10
11.949561095374392
20
-11.996935968588506
10
11.949561095374392
20
-13.996935968588495
10
11.949999997625147
20
-94.960004510358004
10
11.949999997625486
20
-96.96000450877861
42
-0.41421356214180594
10
1.950000005521801
20
-106.96000450877901
10
-0.050000002374908092
20
-106.960004510358
10
-154.74442566968105
20
-106.96009322434092
10
-154.74442800000006
20
-102.89661499999993
10
-154.74442800000006
20
-95.1591149999999
10
0.14982199999996518
20
-95.159115000000014
10
0.1498220000000039
20
-13.796615000000001
10
-78.998092545234726
20
-13.796614999999957
10
-166.166178
20
1.5734703223772306
10
-253.33426345475999
20
-13.796614999999861
10
-328.86267800000007
20
-13.796614999999814
0
LWPOLYLINE
5
101
100
AcDbEntity
8
0
100
AcDbPolyline
90
6
70
1
43
0.0
10
2.2149701673891808
20
-100.85288029925805
10
2.2149701673891302
20
-98.197069060985768
10
4.5149701673890945
20
-96.869163441849594
10
6.8149701673891094
20
-98.197069060985683
10
6.8149701673891609
20
-100.85288029925795
10
4.5149701673891958
20
-102.18078591839414
0
LWPOLYLINE
5
102
100
AcDbEntity
8
0
100
AcDbPolyline
90
6
70
1
43
0.0
10
-145.04442800000007
20
-102.38902061913623
10
-145.0444280000001
20
-99.733209380863954
10
-142.74442800000008
20
-98.405303761727794
10
-140.44442800000007
20
-99.733209380863912
10
-140.44442800000004
20
-102.3890206191362
10
-142.74442800000006
20
-103.71692623827236
0
LWPOLYLINE
5
103
100
AcDbEntity
8
0
100
AcDbPolyline
90
6
70
1
43
0.0
10
-186.74442800000006
20
-102.38902061913595
10
-186.74442800000011
20
-99.73320938086367
10
-184.44442800000016
20
-98.405303761727481
10
-182.14442800000012
20
-99.73320938086357
10
-182.14442800000003
20
-102.38902061913585
10
-184.44442800000002
20
-103.71692623827204
0
LWPOLYLINE
5
104
100
AcDbEntity
8
0
100
AcDbPolyline
90
6
70
1
43
0.0
10
-335.5277535958071
20
-100.85183726670462
10
-335.52775359580698
20
-98.196026028432328
10
-333.22775359580697
20
-96.868120409296239
10
-330.92775359580696
20
-98.196026028432442
10
-330.92775359580708
20
-100.85183726670472
10
-333.22775359580709
20
-102.17974288584081
0
LWPOLYLINE
5
105
100
AcDbEntity
8
0
100
AcDbPolyline
90
6
70
1
43
0.0
10
-335.52764212531798
20
-10.759537766803973
10
-335.52764212531804
20
-8.1037265285316753
10
-333.22764212531808
20
-6.7758209093955015
10
-330.92764212531802
20
-8.1037265285315812
10
-330.92764212531796
20
-10.759537766803861
10
-333.22764212531797
20
-12.087443385940059
0
LWPOLYLINE
5
106
100
AcDbEntity
8
0
100
AcDbPolyline
90
6
70
1
43
0.0
10
-168.46685173074104
20
6.0492349879046259
10
-168.46685173074104
20
8.7050462261769184
10
-166.16685173074103
20
10.032951845313043
10
-163.86685173074102
20
8.7050462261769024
10
-163.86685173074102
20
6.0492349879046188
10
-166.16685173074103
20
4.7213293687684805
0
LWPOLYLINE
5
107
100
AcDbEntity
8
0
100
AcDbPolyline
90
6
70
1
43
0.0
10
2.2149701569118161
20
-10.762935150417562
10
2.2149701569118156
20
-8.1071239121452834
10
4.514970156911815
20
-6.779218293009146
10
6.8149701569118122
20
-8.1071239121452834
10
6.8149701569118122
20
-10.762935150417562
10
4.5149701569118141
20
-12.090840769553699
0
ENDSEC
0
SECTION
2
OBJECTS
0
DICTIONARY
5
C
100
AcDbDictionary
3
ACAD_GROUP
350
D
3
ACAD_MLINESTYLE
350
17
0
DICTIONARY
5
D
100
AcDbDictionary
0
DICTIONARY
5
1A
330
C
100
AcDbDictionary
0
DICTIONARY
5
17
100
AcDbDictionary
0
ENDSEC
0
EOF
