0
SECTION
2
HEADER
9
$INSUNITS
70
4
9
$ACADVER
1
AC1014
9
$HANDSEED
5
FFFF
0
ENDSEC
0
SECTION
2
TABLES
0
TABLE
2
VPORT
5
8
100
AcDbSymbolTable
0
ENDTAB
0
TABLE
2
LTYPE
5
5
100
AcDbSymbolTable
0
LTYPE
5
14
100
AcDbSymbolTableRecord
100
AcDbLinetypeTableRecord
2
BYBLOCK
70
0
0
LTYPE
5
15
100
AcDbSymbolTableRecord
100
AcDbLinetypeTableRecord
2
BYLAYER
70
0
0
ENDTAB
0
TABLE
2
LAYER
5
2
100
AcDbSymbolTable
70
2
0
LAYER
5
50
100
AcDbSymbolTableRecord
100
AcDbLayerTableRecord
2
0
70
0
6
CONTINUOUS
0
ENDTAB
0
TABLE
2
STYLE
5
3
100
AcDbSymbolTable
70
1
0
STYLE
5
11
100
AcDbSymbolTableRecord
100
AcDbTextStyleTableRecord
2
STANDARD
70
0
0
ENDTAB
0
TABLE
2
VIEW
5
6
100
AcDbSymbolTable
70
0
0
ENDTAB
0
TABLE
2
UCS
5
7
100
AcDbSymbolTable
70
0
0
ENDTAB
0
TABLE
2
APPID
5
9
100
AcDbSymbolTable
70
2
0
APPID
5
12
100
AcDbSymbolTableRecord
100
AcDbRegAppTableRecord
2
ACAD
70
0
0
ENDTAB
0
TABLE
2
DIMSTYLE
5
A
100
AcDbSymbolTable
70
1
0
ENDTAB
0
TABLE
2
BLOCK_RECORD
5
1
100
AcDbSymbolTable
70
1
0
BLOCK_RECORD
5
1F
100
AcDbSymbolTableRecord
100
AcDbBlockTableRecord
2
*MODEL_SPACE
0
BLOCK_RECORD
5
1B
100
AcDbSymbolTableRecord
100
AcDbBlockTableRecord
2
*PAPER_SPACE
0
ENDTAB
0
ENDSEC
0
SECTION
2
BLOCKS
0
BLOCK
5
20
100
AcDbEntity
100
AcDbBlockBegin
2
*MODEL_SPACE
0
ENDBLK
5
21
100
AcDbEntity
100
AcDbBlockEnd
0
BLOCK
5
1C
100
AcDbEntity
100
AcDbBlockBegin
2
*PAPER_SPACE
0
ENDBLK
5
1D
100
AcDbEntity
100
AcDbBlockEnd
0
ENDSEC
0
SECTION
2
ENTITIES
0
LWPOLYLINE
5
100
100
AcDbEntity
8
0
100
AcDbPolyline
90
6
70
1
43
0.0
10
6.6350663463441126
20
-8.2109914256047194
10
4.5149701569117822
20
-6.9869533199280722
10
2.3948739674794544
20
-8.2109914256047283
10
2.3948739674794526
20
-10.659067636958031
10
4.5149701569117813
20
-11.883105742634692
10
6.6350663463441109
20
-10.659067636958035
0
LWPOLYLINE
5
101
100
AcDbEntity
8
0
100
AcDbPolyline
90
6
70
1
43
0.0
10
-182.32433181056723
20
-102.28515310567629
10
-182.32433181056723
20
-99.83707689432299
10
-184.44442799999959
20
-98.61303878864635
10
-186.56452418943192
20
-99.83707689432299
10
-186.56452418943192
20
-102.28515310567627
10
-184.44442799999959
20
-103.50919121135293
0
LWPOLYLINE
5
102
100
AcDbEntity
8
0
100
AcDbPolyline
90
6
70
1
43
0.0
10
-331.10765740637373
20
-98.299893541891578
10
-333.22775359580612
20
-97.075855436214937
10
-335.34784978523845
20
-98.299893541891592
10
-335.34784978523845
20
-100.74796975324487
10
-333.22775359580612
20
-101.97200785892151
10
-331.10765740637373
20
-100.74796975324489
0
LWPOLYLINE
5
103
100
AcDbEntity
8
0
100
AcDbPolyline
90
6
70
1
43
0.0
10
-331.10754593588479
20
-8.2075940419910545
10
-333.22764212531717
20
-6.9835559363143975
10
-335.34773831474951
20
-8.2075940419910438
10
-335.34773831474951
20
-10.655670253344347
10
-333.22764212531717
20
-11.879708359021016
10
-331.10754593588479
20
-10.655670253344361
0
LWPOLYLINE
5
104
100
AcDbEntity
8
0
100
AcDbPolyline
90
6
70
1
43
0.0
10
-164.04675554130822
20
8.6011787127174237
10
-166.16685173074058
20
9.8252168183940682
10
-168.28694792017291
20
8.6011787127174149
10
-168.28694792017291
20
6.1531025013641152
10
-166.16685173074058
20
4.9290643956874511
10
-164.04675554130822
20
6.1531025013641081
0
LWPOLYLINE
5
105
100
AcDbEntity
8
0
100
AcDbPolyline
90
6
70
1
43
0.0
10
-140.62433181056736
20
-99.83707689432299
10
-142.74442799999969
20
-98.61303878864635
10
-144.86452418943205
20
-99.837076894323005
10
-144.86452418943202
20
-102.28515310567629
10
-142.74442799999969
20
-103.50919121135293
10
-140.62433181056736
20
-102.28515310567629
0
LWPOLYLINE
5
106
100
AcDbEntity
8
0
100
AcDbPolyline
90
6
70
1
43
0.0
10
6.6350663568214312
20
-98.300936574445089
10
4.5149701673891025
20
-97.076898468768462
10
2.3948739779567743
20
-98.300936574445103
10
2.3948739779567765
20
-100.74901278579839
10
4.5149701673891016
20
-101.97305089147504
10
6.6350663568214312
20
-100.74901278579839
0
LWPOLYLINE
5
107
100
AcDbEntity
8
0
100
AcDbPolyline
90
25
70
1
43
0.0
10
-154.74442566968082
20
-106.96009322434081
10
-154.74442799999983
20
-102.89661499999981
10
-154.74442799999983
20
-95.159114999999815
10
-172.44442799999979
20
-95.159114999999815
10
-172.44442799999979
20
-102.89661499999981
10
-172.44442566967484
20
-106.9601033749168
10
-328.65905687794964
20
-106.96019296070676
10
-330.65905687794964
20
-106.96019296070638
42
-0.41421356237309293
10
-340.65905687794958
20
-96.960192960706379
10
-340.65905687794958
20
-94.960192960706394
10
-340.66267778239654
20
-13.998900275477769
10
-340.6630586616422
20
-11.998900311745068
42
-0.41421356237308721
10
-330.66496323921058
20
-1.996996096849746
10
-254.28794782347865
20
-1.9824508865522317
10
-170.8385714488889
20
12.731925691583665
42
-0.039145615902707126
10
-166.17000789266081
20
13.182816820029505
42
-0.039145615902704461
10
-161.5014443364168
20
12.731925691584136
10
-77.969918979416107
20
-1.9969359685884502
10
1.9495610953744444
20
-1.996935968588559
42
-0.41421356237309542
10
11.94956109537438
20
-11.996935968588488
10
11.94956109537438
20
-13.996935968588478
10
11.949999997625154
20
-94.960004510357891
10
11.949999997625468
20
-96.960004508778482
42
-0.41421356214180588
10
1.9500000055218023
20
-106.96000450877887
10
-0.050000002374908092
20
-106.96000451035786
0
ENDSEC
0
SECTION
2
OBJECTS
0
DICTIONARY
5
C
100
AcDbDictionary
3
ACAD_GROUP
350
D
3
ACAD_MLINESTYLE
350
17
0
DICTIONARY
5
D
100
AcDbDictionary
0
DICTIONARY
5
1A
330
C
100
AcDbDictionary
0
DICTIONARY
5
17
100
AcDbDictionary
0
ENDSEC
0
EOF
