0
SECTION
2
HEADER
9
$INSUNITS
70
4
9
$ACADVER
1
AC1014
9
$HANDSEED
5
FFFF
0
ENDSEC
0
SECTION
2
TABLES
0
TABLE
2
VPORT
5
8
100
AcDbSymbolTable
0
ENDTAB
0
TABLE
2
LTYPE
5
5
100
AcDbSymbolTable
0
LTYPE
5
14
100
AcDbSymbolTableRecord
100
AcDbLinetypeTableRecord
2
BYBLOCK
70
0
0
LTYPE
5
15
100
AcDbSymbolTableRecord
100
AcDbLinetypeTableRecord
2
BYLAYER
70
0
0
ENDTAB
0
TABLE
2
LAYER
5
2
100
AcDbSymbolTable
70
2
0
LAYER
5
50
100
AcDbSymbolTableRecord
100
AcDbLayerTableRecord
2
0
70
0
6
CONTINUOUS
0
ENDTAB
0
TABLE
2
STYLE
5
3
100
AcDbSymbolTable
70
1
0
STYLE
5
11
100
AcDbSymbolTableRecord
100
AcDbTextStyleTableRecord
2
STANDARD
70
0
0
ENDTAB
0
TABLE
2
VIEW
5
6
100
AcDbSymbolTable
70
0
0
ENDTAB
0
TABLE
2
UCS
5
7
100
AcDbSymbolTable
70
0
0
ENDTAB
0
TABLE
2
APPID
5
9
100
AcDbSymbolTable
70
2
0
APPID
5
12
100
AcDbSymbolTableRecord
100
AcDbRegAppTableRecord
2
ACAD
70
0
0
ENDTAB
0
TABLE
2
DIMSTYLE
5
A
100
AcDbSymbolTable
70
1
0
ENDTAB
0
TABLE
2
BLOCK_RECORD
5
1
100
AcDbSymbolTable
70
1
0
BLOCK_RECORD
5
1F
100
AcDbSymbolTableRecord
100
AcDbBlockTableRecord
2
*MODEL_SPACE
0
BLOCK_RECORD
5
1B
100
AcDbSymbolTableRecord
100
AcDbBlockTableRecord
2
*PAPER_SPACE
0
ENDTAB
0
ENDSEC
0
SECTION
2
BLOCKS
0
BLOCK
5
20
100
AcDbEntity
100
AcDbBlockBegin
2
*MODEL_SPACE
0
ENDBLK
5
21
100
AcDbEntity
100
AcDbBlockEnd
0
BLOCK
5
1C
100
AcDbEntity
100
AcDbBlockBegin
2
*PAPER_SPACE
0
ENDBLK
5
1D
100
AcDbEntity
100
AcDbBlockEnd
0
ENDSEC
0
SECTION
2
ENTITIES
0
LWPOLYLINE
5
100
100
AcDbEntity
8
0
100
AcDbPolyline
90
19
70
1
43
0.0
10
-340.66305866164163
20
-11.998900311744782
42
-0.41421356237308227
10
-330.66496323921001
20
-1.9969960968495426
10
-254.28794782347802
20
-1.9824508865520429
10
-170.8385714488891
20
12.731925691583843
42
-0.039145615902707126
10
-166.17000789266103
20
13.18281682002959
42
-0.039145615902704795
10
-161.50144433641699
20
12.731925691584218
10
-77.969918979415993
20
-1.9969359685883825
10
1.9495610953744484
20
-1.9969359685884236
42
-0.4142135623730977
10
11.949561095374399
20
-11.996935968588483
10
11.949561095374399
20
-13.996935968588478
10
11.949999997625
20
-94.960004510357692
10
11.94999999762463
20
-96.960004508778383
42
-0.41421356214180577
10
1.9500000055217301
20
-106.96000450877798
10
-0.050000002375014674
20
-106.96000451035799
10
-328.65905687794998
20
-106.960192960706
10
-330.65905687795004
20
-106.960192960706
42
-0.41421356237306589
10
-340.65905687794901
20
-96.960192960705996
10
-340.65905687795004
20
-94.960192960705982
10
-340.66267778239597
20
-13.998900275477482
0
LWPOLYLINE
5
101
100
AcDbEntity
8
0
100
AcDbPolyline
90
41
70
1
43
0.0
10
-32.930001611588509
20
-89.67985969808538
42
-0.41425590102555537
10
-33.930146162625604
20
-90.679859687637872
10
-76.495579108918307
20
-90.673706810097485
42
0.36401115988943011
10
-76.988055260942915
20
-91.086882716040265
10
-77.100076707401911
20
-91.72218790875057
42
-0.41421356237309082
10
-77.679304672741495
20
-92.127767696423177
10
-152.18014669978001
20
-78.991259161557167
42
-0.41433818745670026
10
-152.99123230252454
20
-77.832384232672055
10
-150.02066478314299
20
-61.027273397404088
42
0.41433818745707163
10
-150.83175038588797
20
-59.868398468518635
10
-153.53935563553901
20
-59.390974609897356
42
-0.41421046593177346
10
-154.35051704662439
20
-58.232529090540119
10
-151.389808400682
20
-41.44047788301458
42
0.4142104659318116
10
-152.20096981176701
20
-40.282032363657329
10
-159.630165006624
20
-38.972064805854465
42
-0.41415732530162225
10
-160.44135790586114
20
-37.813797970513754
10
-157.47771310283301
20
-20.987240950869285
42
0.41415732530190669
10
-158.28890600207097
20
-19.828974115528396
10
-160.82313746331803
20
-19.382120733550437
42
-0.41418798682729496
10
-161.63431219806969
20
-18.22375079809337
10
-158.50992800970678
20
-0.49543525978732045
42
-0.41416753455050798
10
-157.35169768325903
20
0.31585273356103949
10
-83.572069954298414
20
-12.674889175119944
42
-0.4142466973001232
10
-82.760646816137395
20
-13.833258178348286
10
-85.727007277892312
20
-30.669254909796884
42
0.41417509308630412
10
-84.915824903369895
20
-31.827581490244171
10
-80.648638442755299
20
-32.580001594964386
10
-77.690003595082104
20
-32.580001594964386
42
0.41421356237309503
10
-76.690003595082118
20
-31.580001594964386
10
-76.690003595082104
20
-14.480000687763084
42
-0.41421356237309503
10
-75.690003595082104
20
-13.480000687763084
10
-29.099999349564296
20
-13.480000687763074
42
-0.4142135623730937
10
-28.099999349564293
20
-14.480000687763086
10
-28.099999349564321
20
-51.599998846650088
42
-0.41421356237309503
10
-29.0999993495643
20
-52.599998846650067
10
-30.100522844208601
20
-52.599998846650081
42
0.41406018941758538
10
-31.100522707090104
20
-53.599475170255587
10
-31.109478122913899
20
-70.700522096126292
42
-0.41406018941761397
10
-32.109477985795401
20
-71.699998419731884
10
-31.930001611588501
20
-71.699998419731884
42
0.41421356237309503
10
-32.930001611588501
20
-72.699998419731884
0
LWPOLYLINE
5
102
100
AcDbEntity
8
0
100
AcDbPolyline
90
46
70
1
43
0.0
10
-271.72001277776599
20
-91.650004210650906
42
-0.41421365511580932
10
-272.02001287275908
20
-91.35000421065088
10
-272.02001287275903
20
-91.004977982301085
42
0.41418790554253981
10
-272.31998659315099
20
-90.704977983452139
10
-328.17010318593407
20
-90.700085586071125
42
-0.41418790554204732
10
-329.17001558723905
20
-89.700085589907872
10
-329.17001558723814
20
-71.71000340604219
42
-0.41421356237274382
10
-328.17001558723905
20
-70.71000340604229
10
-327.35001426472797
20
-70.71000340604229
42
0.41421321424943042
10
-326.35001426472866
20
-69.710004594610979
10
-326.34999391642839
20
-52.590001309322183
42
-0.4142132142494252
10
-325.34999391642907
20
-51.590002497890907
10
-315.98001491324999
20
-51.590002497890985
42
0.41421356237309503
10
-314.98001491325005
20
-50.590002497890993
10
-314.98001491324999
20
-33.590001595439382
42
-0.41421356237309503
10
-313.98001491324999
20
-32.590001595439418
10
-311.06501467980002
20
-32.590001595439382
42
0.41421356237309503
10
-310.06501467980007
20
-31.590001595439382
10
-310.06501467980002
20
-14.479794459676585
42
-0.41415315462650809
10
-309.065220929151
20
-13.479794480946003
10
-262.58021872123197
20
-13.470206979182802
42
-0.41427397270009264
10
-261.58001247188105
20
-14.470206957913383
10
-261.58001247188099
20
-31.575001594726881
42
0.41421356237312495
10
-260.58001247188099
20
-32.575001594726963
10
-251.59779538296104
20
-32.575001594726885
10
-249.00377221915403
20
-32.11760532236498
42
0.4142051881649671
10
-248.19260767936345
20
-30.959177548808494
10
-251.1608443864036
20
-14.122655767773091
42
-0.41432463786311591
10
-250.34927821579402
20
-12.964157260305026
10
-185.79361643134996
20
-1.608395476322058
42
-0.41409412205628104
10
-184.63556213148883
20
-2.4196257855787029
10
-181.67121668067301
20
-19.231264247860583
42
0.41421356237317092
10
-180.51276074999299
20
-20.042423823205816
10
-177.77669770327299
20
-19.559982087149589
42
-0.41420624843537712
10
-176.61824610914067
20
-20.37111707051082
10
-173.49191343159464
20
-38.098842079119414
42
-0.41422087634861915
10
-174.30306867039303
20
-39.257322601782505
10
-181.70096662880101
20
-40.561771612377989
42
0.41421356237299767
10
-182.51212620414631
20
-41.720227543056964
10
-179.71605605889602
20
-57.577529324193584
42
0.41421356237314888
10
-178.55760012821702
20
-58.38868889953892
10
-175.84448292674301
20
-57.91029313509479
42
-0.41423078765107124
10
-174.68601678544471
20
-58.721510627697342
10
-171.56159878090165
20
-76.447061413250893
42
-0.41419633730485611
10
-172.37276856686603
20
-77.605459426672482
10
-252.02330469419303
20
-91.649997973814578
0
LWPOLYLINE
5
103
100
AcDbEntity
8
0
100
AcDbPolyline
90
24
70
1
43
0.0
10
-8.0999997742474115
20
-76.449998313561082
10
-5.2999998815357596
20
-76.449998313561082
42
0.41421356237309503
10
-4.2999998815357703
20
-75.449998313561082
10
-4.2999998815357765
20
-58.399998739361784
42
-0.41421356237309798
10
-3.2999998815357703
20
-57.399998739361784
10
-0.54999998770654113
20
-57.399998739361777
42
0.41421356237309681
10
0.45000001229346104
20
-56.399998739361777
10
0.45000001229345804
20
-38.299999277023986
42
0.41421360135593227
10
-0.55000012080226979
20
-37.299999277023986
10
-18.649999716235701
20
-37.300001686056696
42
0.4142135233902679
10
-19.649999583140001
20
-38.300001686056689
10
-19.649999583140008
20
-55.349998718127587
42
-0.41421356237309503
10
-20.649999583140005
20
-56.349998718127587
10
-23.494737196553402
20
-56.349998718127594
42
0.41575189625309228
10
-24.494723418787501
20
-57.355248036371982
10
-24.405276423260226
20
-74.394748974082589
42
-0.41575189625306364
10
-25.405262645494304
20
-75.399998292326885
10
-28.199999369680899
20
-75.399998292326885
42
0.41421356237309503
10
-29.199999369680899
20
-76.399998292326885
10
-29.199999369680889
20
-94.500001408159704
42
0.41421356237309503
10
-28.199999369680899
20
-95.50000140815969
10
-10.099999774247401
20
-95.50000140815969
42
0.41421356237309503
10
-9.0999997742474008
20
-94.500001408159704
10
-9.099999774247415
20
-77.449998313561082
42
-0.41421356237309503
0
LWPOLYLINE
5
104
100
AcDbEntity
8
0
100
AcDbPolyline
90
6
70
1
43
0.0
10
2.2149701673892088
20
-100.852880299258
10
2.2149701673891715
20
-98.197069060985726
10
4.5149701673891451
20
-96.869163441849579
10
6.814970167389153
20
-98.197069060985655
10
6.8149701673891894
20
-100.85288029925793
10
4.5149701673892162
20
-102.18078591839409
0
LWPOLYLINE
5
105
100
AcDbEntity
8
0
100
AcDbPolyline
90
6
70
1
43
0.0
10
2.214970156911801
20
-10.762935150417551
10
2.2149701569117979
20
-8.1071239121452763
10
4.5149701569117981
20
-6.7792182930091354
10
6.8149701569117997
20
-8.1071239121452692
10
6.8149701569118015
20
-10.762935150417547
10
4.5149701569118026
20
-12.090840769553688
0
LWPOLYLINE
5
106
100
AcDbEntity
8
0
100
AcDbPolyline
90
6
70
1
43
0.0
10
-145.04442800000001
20
-102.38902061913599
10
-145.04442800000004
20
-99.733209380863727
10
-142.744428
20
-98.405303761727538
10
-140.44442800000002
20
-99.73320938086367
10
-140.44442799999999
20
-102.38902061913598
10
-142.744428
20
-103.71692623827212
0
LWPOLYLINE
5
107
100
AcDbEntity
8
0
100
AcDbPolyline
90
6
70
1
43
0.0
10
-186.74442799999997
20
-102.38902061913599
10
-186.74442800000003
20
-99.733209380863727
10
-184.44442800000004
20
-98.405303761727566
10
-182.14442800000003
20
-99.73320938086367
10
-182.144428
20
-102.38902061913593
10
-184.44442799999996
20
-103.71692623827209
0
LWPOLYLINE
5
108
100
AcDbEntity
8
0
100
AcDbPolyline
90
6
70
1
43
0.0
10
-335.52775359580698
20
-100.85183726670463
10
-335.52775359580698
20
-98.196026028432399
10
-333.22775359580703
20
-96.868120409296253
10
-330.92775359580708
20
-98.196026028432385
10
-330.92775359580708
20
-100.85183726670463
10
-333.22775359580703
20
-102.17974288584075
0
LWPOLYLINE
5
109
100
AcDbEntity
8
0
100
AcDbPolyline
90
6
70
1
43
0.0
10
-335.52764212531804
20
-10.759537766804046
10
-335.52764212531798
20
-8.1037265285317677
10
-333.22764212531797
20
-6.77582090939568
10
-330.92764212531796
20
-8.1037265285318849
10
-330.92764212531802
20
-10.759537766804169
10
-333.22764212531808
20
-12.087443385940249
0
LWPOLYLINE
5
110
100
AcDbEntity
8
0
100
AcDbPolyline
90
6
70
1
43
0.0
10
-168.46685173074104
20
6.0492349879045335
10
-168.46685173074104
20
8.7050462261768242
10
-166.16685173074103
20
10.032951845312951
10
-163.86685173074102
20
8.70504622617681
10
-163.86685173074102
20
6.0492349879045282
10
-166.16685173074103
20
4.7213293687683882
0
ENDSEC
0
SECTION
2
OBJECTS
0
DICTIONARY
5
C
100
AcDbDictionary
3
ACAD_GROUP
350
D
3
ACAD_MLINESTYLE
350
17
0
DICTIONARY
5
D
100
AcDbDictionary
0
DICTIONARY
5
1A
330
C
100
AcDbDictionary
0
DICTIONARY
5
17
100
AcDbDictionary
0
ENDSEC
0
EOF
