0
SECTION
2
HEADER
9
$INSUNITS
70
4
9
$ACADVER
1
AC1014
9
$HANDSEED
5
FFFF
0
ENDSEC
0
SECTION
2
TABLES
0
TABLE
2
VPORT
5
8
100
AcDbSymbolTable
0
ENDTAB
0
TABLE
2
LTYPE
5
5
100
AcDbSymbolTable
0
LTYPE
5
14
100
AcDbSymbolTableRecord
100
AcDbLinetypeTableRecord
2
BYBLOCK
70
0
0
LTYPE
5
15
100
AcDbSymbolTableRecord
100
AcDbLinetypeTableRecord
2
BYLAYER
70
0
0
ENDTAB
0
TABLE
2
LAYER
5
2
100
AcDbSymbolTable
70
2
0
LAYER
5
50
100
AcDbSymbolTableRecord
100
AcDbLayerTableRecord
2
0
70
0
6
CONTINUOUS
0
ENDTAB
0
TABLE
2
STYLE
5
3
100
AcDbSymbolTable
70
1
0
STYLE
5
11
100
AcDbSymbolTableRecord
100
AcDbTextStyleTableRecord
2
STANDARD
70
0
0
ENDTAB
0
TABLE
2
VIEW
5
6
100
AcDbSymbolTable
70
0
0
ENDTAB
0
TABLE
2
UCS
5
7
100
AcDbSymbolTable
70
0
0
ENDTAB
0
TABLE
2
APPID
5
9
100
AcDbSymbolTable
70
2
0
APPID
5
12
100
AcDbSymbolTableRecord
100
AcDbRegAppTableRecord
2
ACAD
70
0
0
ENDTAB
0
TABLE
2
DIMSTYLE
5
A
100
AcDbSymbolTable
70
1
0
ENDTAB
0
TABLE
2
BLOCK_RECORD
5
1
100
AcDbSymbolTable
70
1
0
BLOCK_RECORD
5
1F
100
AcDbSymbolTableRecord
100
AcDbBlockTableRecord
2
*MODEL_SPACE
0
BLOCK_RECORD
5
1B
100
AcDbSymbolTableRecord
100
AcDbBlockTableRecord
2
*PAPER_SPACE
0
ENDTAB
0
ENDSEC
0
SECTION
2
BLOCKS
0
BLOCK
5
20
100
AcDbEntity
100
AcDbBlockBegin
2
*MODEL_SPACE
0
ENDBLK
5
21
100
AcDbEntity
100
AcDbBlockEnd
0
BLOCK
5
1C
100
AcDbEntity
100
AcDbBlockBegin
2
*PAPER_SPACE
0
ENDBLK
5
1D
100
AcDbEntity
100
AcDbBlockEnd
0
ENDSEC
0
SECTION
2
ENTITIES
0
LWPOLYLINE
5
100
100
AcDbEntity
8
0
100
AcDbPolyline
90
25
70
1
43
0.0
10
-154.74442566968099
20
-106.96009322434101
10
-154.744428
20
-102.89661500000001
10
-154.744428
20
-95.159115
10
-172.44442799999999
20
-95.159115
10
-172.44442799999999
20
-102.89661500000001
10
-172.44442566967504
20
-106.960103374917
10
-328.65905687794998
20
-106.96019296070702
10
-330.65905687795004
20
-106.96019296070661
42
-0.41421356237309503
10
-340.65905687795004
20
-96.960192960706607
10
-340.65905687795004
20
-94.960192960706621
10
-340.662677782397
20
-13.998900275477901
10
-340.66305866164271
20
-11.998900311745199
42
-0.41421356237308732
10
-330.66496323921103
20
-1.9969960968498601
10
-254.28794782347899
20
-1.9824508865523205
10
-170.83857144888907
20
12.73192569158363
42
-0.039145615902706793
10
-166.17000789266103
20
13.182816820029469
42
-0.039145615902704461
10
-161.50144433641699
20
12.731925691584101
10
-77.969918979416207
20
-1.9969359685884802
10
1.9495610953744484
20
-1.9969359685885613
42
-0.41421356237309537
10
11.949561095374399
20
-11.996935968588501
10
11.949561095374399
20
-13.996935968588495
10
11.9499999976252
20
-94.960004510358004
10
11.94999999762552
20
-96.96000450877861
42
-0.41421356214180577
10
1.9500000055218403
20
-106.96000450877901
10
-0.050000002374872565
20
-106.960004510358
0
LWPOLYLINE
5
101
100
AcDbEntity
8
0
100
AcDbPolyline
90
6
70
1
43
0.0
10
2.2149701673891626
20
-100.85288029925799
10
2.2149701673891582
20
-98.19706906098574
10
4.5149701673891425
20
-96.869163441849622
10
6.8149701673891174
20
-98.19706906098574
10
6.8149701673891165
20
-100.85288029925799
10
4.5149701673891398
20
-102.18078591839412
0
LWPOLYLINE
5
102
100
AcDbEntity
8
0
100
AcDbPolyline
90
6
70
1
43
0.0
10
-145.04442799999987
20
-102.38902061913595
10
-145.04442799999987
20
-99.73320938086367
10
-142.74442799999983
20
-98.405303761727538
10
-140.44442799999982
20
-99.733209380863713
10
-140.44442799999985
20
-102.38902061913599
10
-142.74442799999986
20
-103.71692623827212
0
LWPOLYLINE
5
103
100
AcDbEntity
8
0
100
AcDbPolyline
90
6
70
1
43
0.0
10
-186.7444279999998
20
-102.38902061913593
10
-186.7444279999998
20
-99.733209380863656
10
-184.44442799999979
20
-98.405303761727524
10
-182.14442799999978
20
-99.73320938086367
10
-182.14442799999978
20
-102.38902061913595
10
-184.44442799999979
20
-103.71692623827208
0
LWPOLYLINE
5
104
100
AcDbEntity
8
0
100
AcDbPolyline
90
6
70
1
43
0.0
10
-335.52775359580659
20
-100.85183726670454
10
-335.52775359580653
20
-98.196026028432271
10
-333.22775359580646
20
-96.868120409296168
10
-330.92775359580651
20
-98.196026028432357
10
-330.92775359580656
20
-100.85183726670465
10
-333.22775359580658
20
-102.17974288584074
0
LWPOLYLINE
5
105
100
AcDbEntity
8
0
100
AcDbPolyline
90
6
70
1
43
0.0
10
-335.52764212531764
20
-10.759537766803922
10
-335.52764212531758
20
-8.1037265285316504
10
-333.22764212531752
20
-6.7758209093955486
10
-330.92764212531756
20
-8.1037265285317535
10
-330.92764212531762
20
-10.759537766804037
10
-333.22764212531763
20
-12.087443385940119
0
LWPOLYLINE
5
106
100
AcDbEntity
8
0
100
AcDbPolyline
90
6
70
1
43
0.0
10
-168.46685173074079
20
6.0492349879045726
10
-168.46685173074079
20
8.7050462261768473
10
-166.16685173074077
20
10.032951845313004
10
-163.86685173074079
20
8.7050462261768615
10
-163.86685173074079
20
6.0492349879045779
10
-166.16685173074077
20
4.7213293687684352
0
LWPOLYLINE
5
107
100
AcDbEntity
8
0
100
AcDbPolyline
90
6
70
1
43
0.0
10
2.214970156911793
20
-10.76293515041753
10
2.2149701569117912
20
-8.1071239121452514
10
4.5149701569117893
20
-6.7792182930091096
10
6.8149701569117909
20
-8.1071239121452461
10
6.8149701569117935
20
-10.762935150417526
10
4.5149701569117937
20
-12.090840769553669
0
ENDSEC
0
SECTION
2
OBJECTS
0
DICTIONARY
5
C
100
AcDbDictionary
3
ACAD_GROUP
350
D
3
ACAD_MLINESTYLE
350
17
0
DICTIONARY
5
D
100
AcDbDictionary
0
DICTIONARY
5
1A
330
C
100
AcDbDictionary
0
DICTIONARY
5
17
100
AcDbDictionary
0
ENDSEC
0
EOF
