0
SECTION
2
HEADER
9
$INSUNITS
70
4
9
$ACADVER
1
AC1014
9
$HANDSEED
5
FFFF
0
ENDSEC
0
SECTION
2
TABLES
0
TABLE
2
VPORT
5
8
100
AcDbSymbolTable
0
ENDTAB
0
TABLE
2
LTYPE
5
5
100
AcDbSymbolTable
0
LTYPE
5
14
100
AcDbSymbolTableRecord
100
AcDbLinetypeTableRecord
2
BYBLOCK
70
0
0
LTYPE
5
15
100
AcDbSymbolTableRecord
100
AcDbLinetypeTableRecord
2
BYLAYER
70
0
0
ENDTAB
0
TABLE
2
LAYER
5
2
100
AcDbSymbolTable
70
2
0
LAYER
5
50
100
AcDbSymbolTableRecord
100
AcDbLayerTableRecord
2
0
70
0
6
CONTINUOUS
0
ENDTAB
0
TABLE
2
STYLE
5
3
100
AcDbSymbolTable
70
1
0
STYLE
5
11
100
AcDbSymbolTableRecord
100
AcDbTextStyleTableRecord
2
STANDARD
70
0
0
ENDTAB
0
TABLE
2
VIEW
5
6
100
AcDbSymbolTable
70
0
0
ENDTAB
0
TABLE
2
UCS
5
7
100
AcDbSymbolTable
70
0
0
ENDTAB
0
TABLE
2
APPID
5
9
100
AcDbSymbolTable
70
2
0
APPID
5
12
100
AcDbSymbolTableRecord
100
AcDbRegAppTableRecord
2
ACAD
70
0
0
ENDTAB
0
TABLE
2
DIMSTYLE
5
A
100
AcDbSymbolTable
70
1
0
ENDTAB
0
TABLE
2
BLOCK_RECORD
5
1
100
AcDbSymbolTable
70
1
0
BLOCK_RECORD
5
1F
100
AcDbSymbolTableRecord
100
AcDbBlockTableRecord
2
*MODEL_SPACE
0
BLOCK_RECORD
5
1B
100
AcDbSymbolTableRecord
100
AcDbBlockTableRecord
2
*PAPER_SPACE
0
ENDTAB
0
ENDSEC
0
SECTION
2
BLOCKS
0
BLOCK
5
20
100
AcDbEntity
100
AcDbBlockBegin
2
*MODEL_SPACE
0
ENDBLK
5
21
100
AcDbEntity
100
AcDbBlockEnd
0
BLOCK
5
1C
100
AcDbEntity
100
AcDbBlockBegin
2
*PAPER_SPACE
0
ENDBLK
5
1D
100
AcDbEntity
100
AcDbBlockEnd
0
ENDSEC
0
SECTION
2
ENTITIES
0
LWPOLYLINE
5
100
100
AcDbEntity
8
0
100
AcDbPolyline
90
19
70
1
43
0.0
10
-340.662677782397
20
-13.998900275477901
10
-340.66305866164271
20
-11.998900311745199
42
-0.41421356237308732
10
-330.66496323921103
20
-1.9969960968498601
10
-254.28794782347899
20
-1.9824508865523205
10
-170.83857144888907
20
12.73192569158363
42
-0.039145615902706793
10
-166.17000789266103
20
13.182816820029469
42
-0.039145615902704461
10
-161.50144433641699
20
12.731925691584101
10
-77.969918979416207
20
-1.9969359685884802
10
1.9495610953744285
20
-1.9969359685885613
42
-0.41421356237309592
10
11.949561095374399
20
-11.996935968588501
10
11.949561095374399
20
-13.996935968588495
10
11.9499999976252
20
-94.960004510358004
10
11.94999999762552
20
-96.96000450877861
42
-0.41421356214180577
10
1.9500000055218403
20
-106.96000450877901
10
-0.050000002374872565
20
-106.960004510358
10
-328.65905687794998
20
-106.96019296070702
10
-330.65905687795004
20
-106.96019296070661
42
-0.41421356237309503
10
-340.65905687795004
20
-96.960192960706607
10
-340.65905687795004
20
-94.960192960706621
0
LWPOLYLINE
5
101
100
AcDbEntity
8
0
100
AcDbPolyline
90
4
70
1
43
0.0
10
-35.9572
20
-87.974000000000018
10
-35.9572
20
-73.974299999999999
10
-49.956500000000005
20
-73.974299999999999
10
-49.956500000000005
20
-87.974000000000018
0
LWPOLYLINE
5
102
100
AcDbEntity
8
0
100
AcDbPolyline
90
4
70
1
43
0.0
10
-26.144100000000002
20
-92.736500000000021
10
-12.144700000000002
20
-92.736500000000021
10
-12.144700000000002
20
-78.736800000000002
10
-26.144100000000002
20
-78.736800000000002
0
LWPOLYLINE
5
103
100
AcDbEntity
8
0
100
AcDbPolyline
90
4
70
1
43
0.0
10
-55.007200000000005
20
-87.974000000000018
10
-55.007200000000005
20
-73.974299999999999
10
-69.006500000000003
20
-73.974299999999999
10
-69.006500000000003
20
-87.974000000000018
0
LWPOLYLINE
5
104
100
AcDbEntity
8
0
100
AcDbPolyline
90
4
70
1
43
0.0
10
-255.03200000000004
20
-74.9268
10
-269.03199999999998
20
-74.9268
10
-269.03199999999998
20
-88.926100000000019
10
-255.03200000000004
20
-88.926100000000019
0
LWPOLYLINE
5
105
100
AcDbEntity
8
0
100
AcDbPolyline
90
4
70
1
43
0.0
10
-288.08199999999999
20
-87.974000000000018
10
-274.08199999999999
20
-87.974000000000018
10
-274.08199999999999
20
-73.974299999999999
10
-288.08199999999999
20
-73.974299999999999
0
LWPOLYLINE
5
106
100
AcDbEntity
8
0
100
AcDbPolyline
90
4
70
1
43
0.0
10
-191.09000000000003
20
-63.9163
10
-188.65899999999999
20
-77.703500000000005
10
-174.87300000000002
20
-75.271100000000004
10
-177.304
20
-61.485300000000009
0
LWPOLYLINE
5
107
100
AcDbEntity
8
0
100
AcDbPolyline
90
4
70
1
43
0.0
10
-220.39100000000002
20
-63.954700000000003
10
-222.82200000000003
20
-50.167500000000004
10
-236.60900000000001
20
-52.598500000000001
10
-234.178
20
-66.3857
0
LWPOLYLINE
5
108
100
AcDbEntity
8
0
100
AcDbPolyline
90
4
70
1
43
0.0
10
-97.3459
20
-52.326800000000006
10
-111.13300000000001
20
-49.896200000000007
10
-113.56400000000001
20
-63.683399999999999
10
-99.776799999999994
20
-66.114099999999993
0
LWPOLYLINE
5
109
100
AcDbEntity
8
0
100
AcDbPolyline
90
4
70
1
43
0.0
10
-50.432100000000005
20
-54.924300000000002
10
-50.432100000000005
20
-68.924000000000007
10
-36.432400000000001
20
-68.924000000000007
10
-36.432400000000001
20
-54.924300000000002
0
LWPOLYLINE
5
110
100
AcDbEntity
8
0
100
AcDbPolyline
90
4
70
1
43
0.0
10
-212.393
20
-81.887100000000004
10
-214.82500000000002
20
-68.101299999999995
10
-228.61099999999999
20
-70.532300000000006
10
-226.18000000000001
20
-84.319500000000005
0
LWPOLYLINE
5
111
100
AcDbEntity
8
0
100
AcDbPolyline
90
4
70
1
43
0.0
10
-109.751
20
-69.483500000000021
10
-112.18200000000002
20
-83.270700000000005
10
-98.3947
20
-85.701700000000017
10
-95.963700000000003
20
-71.914500000000004
0
LWPOLYLINE
5
112
100
AcDbEntity
8
0
100
AcDbPolyline
90
4
70
1
43
0.0
10
-233.58400000000003
20
-71.408600000000007
10
-247.37300000000002
20
-73.839600000000004
10
-244.94200000000004
20
-87.628200000000021
10
-231.15300000000002
20
-85.19580000000002
0
LWPOLYLINE
5
113
100
AcDbEntity
8
0
100
AcDbPolyline
90
4
70
1
43
0.0
10
-326.18200000000002
20
-73.974299999999999
10
-326.18200000000002
20
-87.974000000000018
10
-312.18200000000002
20
-87.974000000000018
10
-312.18200000000002
20
-73.974299999999999
0
LWPOLYLINE
5
114
100
AcDbEntity
8
0
100
AcDbPolyline
90
4
70
1
43
0.0
10
-77.203300000000013
20
-75.221699999999998
10
-90.990600000000001
20
-72.790800000000004
10
-93.421199999999999
20
-86.579400000000021
10
-79.633900000000011
20
-89.010400000000004
0
LWPOLYLINE
5
115
100
AcDbEntity
8
0
100
AcDbPolyline
90
4
70
1
43
0.0
10
-94.803399999999996
20
-66.990700000000004
10
-81.016099999999994
20
-69.421400000000006
10
-78.585499999999996
20
-55.634100000000004
10
-92.372700000000009
20
-53.203500000000005
0
LWPOLYLINE
5
116
100
AcDbEntity
8
0
100
AcDbPolyline
90
4
70
1
43
0.0
10
-193.63200000000003
20
-78.579800000000006
10
-196.06300000000002
20
-64.792599999999993
10
-209.85200000000003
20
-67.223600000000005
10
-207.42099999999999
20
-81.012200000000007
0
LWPOLYLINE
5
117
100
AcDbEntity
8
0
100
AcDbPolyline
90
4
70
1
43
0.0
10
-21.381700000000002
20
-59.686799999999998
10
-21.381700000000002
20
-73.686499999999995
10
-7.3821600000000096
20
-73.686499999999995
10
-7.3821600000000087
20
-59.686799999999998
0
LWPOLYLINE
5
118
100
AcDbEntity
8
0
100
AcDbPolyline
90
4
70
1
43
0.0
10
-252.93900000000002
20
-69.694400000000002
10
-239.15300000000002
20
-67.263400000000004
10
-241.584
20
-53.476199999999999
10
-255.37100000000004
20
-55.90720000000001
0
LWPOLYLINE
5
119
100
AcDbEntity
8
0
100
AcDbPolyline
90
4
70
1
43
0.0
10
-293.13200000000001
20
-87.974000000000018
10
-293.13200000000001
20
-73.974299999999999
10
-307.13200000000001
20
-73.974299999999999
10
-307.13200000000001
20
-87.974000000000018
0
LWPOLYLINE
5
120
100
AcDbEntity
8
0
100
AcDbPolyline
90
4
70
1
43
0.0
10
-57.863700000000009
20
-54.924300000000002
10
-71.864699999999999
20
-54.924300000000002
10
-71.864699999999999
20
-68.924000000000007
10
-57.863700000000009
20
-68.924000000000007
0
LWPOLYLINE
5
121
100
AcDbEntity
8
0
100
AcDbPolyline
90
4
70
1
43
0.0
10
-261.69900000000001
20
-68.924000000000007
10
-261.69900000000001
20
-54.924300000000002
10
-275.69999999999999
20
-54.924300000000002
10
-275.69999999999999
20
-68.924000000000007
0
LWPOLYLINE
5
122
100
AcDbEntity
8
0
100
AcDbPolyline
90
4
70
1
43
0.0
10
-133.48500000000001
20
-65.298500000000004
10
-147.27199999999999
20
-62.867500000000007
10
-149.70300000000003
20
-76.654700000000005
10
-135.916
20
-79.085700000000003
0
LWPOLYLINE
5
123
100
AcDbEntity
8
0
100
AcDbPolyline
90
4
70
1
43
0.0
10
-132.32599999999999
20
-60.374699999999997
10
-118.538
20
-62.805400000000006
10
-116.10700000000001
20
-49.018100000000004
10
-129.89400000000001
20
-46.587500000000006
0
LWPOLYLINE
5
124
100
AcDbEntity
8
0
100
AcDbPolyline
90
4
70
1
43
0.0
10
-280.74900000000002
20
-54.924300000000002
10
-294.75
20
-54.924300000000002
10
-294.75
20
-68.924000000000007
10
-280.74900000000002
20
-68.924000000000007
0
LWPOLYLINE
5
125
100
AcDbEntity
8
0
100
AcDbPolyline
90
4
70
1
43
0.0
10
-304.56200000000001
20
-54.924300000000002
10
-318.56099999999998
20
-54.924300000000002
10
-318.56099999999998
20
-68.924000000000007
10
-304.56200000000001
20
-68.924000000000007
0
LWPOLYLINE
5
126
100
AcDbEntity
8
0
100
AcDbPolyline
90
4
70
1
43
0.0
10
-197.98900000000003
20
-26.444500000000005
10
-211.77700000000002
20
-28.875399999999999
10
-209.34600000000003
20
-42.662800000000004
10
-195.55900000000003
20
-40.2318
0
LWPOLYLINE
5
127
100
AcDbEntity
8
0
100
AcDbPolyline
90
4
70
1
43
0.0
10
-230.53700000000003
20
-32.184100000000001
10
-228.107
20
-45.971499999999999
10
-214.32000000000002
20
-43.540500000000002
10
-216.75
20
-29.7532
0
LWPOLYLINE
5
128
100
AcDbEntity
8
0
100
AcDbPolyline
90
4
70
1
43
0.0
10
-16.619199999999999
20
-54.636500000000005
10
-2.61965000000004
20
-54.636500000000005
10
-2.61965000000004
20
-40.636800000000008
10
-16.619199999999999
20
-40.636800000000008
0
LWPOLYLINE
5
129
100
AcDbEntity
8
0
100
AcDbPolyline
90
4
70
1
43
0.0
10
-255.03200000000004
20
-49.874000000000009
10
-255.03200000000004
20
-35.874299999999998
10
-269.03199999999998
20
-35.874299999999998
10
-269.03199999999998
20
-49.874000000000009
0
LWPOLYLINE
5
130
100
AcDbEntity
8
0
100
AcDbPolyline
90
4
70
1
43
0.0
10
-199.08799999999999
20
-45.982500000000002
10
-196.65700000000001
20
-59.769700000000007
10
-182.87000000000003
20
-57.338700000000003
10
-185.30200000000002
20
-43.551500000000004
0
LWPOLYLINE
5
131
100
AcDbEntity
8
0
100
AcDbPolyline
90
4
70
1
43
0.0
10
-138.398
20
-39.9602
10
-124.60900000000001
20
-42.391199999999998
10
-122.178
20
-28.603900000000003
10
-135.96700000000001
20
-26.173100000000002
0
LWPOLYLINE
5
132
100
AcDbEntity
8
0
100
AcDbPolyline
90
4
70
1
43
0.0
10
-128.512
20
-66.174800000000005
10
-130.94300000000001
20
-79.963400000000007
10
-117.155
20
-82.394400000000005
10
-114.724
20
-68.607200000000006
0
LWPOLYLINE
5
133
100
AcDbEntity
8
0
100
AcDbPolyline
90
4
70
1
43
0.0
10
-201.631
20
-60.647400000000005
10
-204.06100000000004
20
-46.860199999999999
10
-217.84999999999999
20
-49.291200000000011
10
-215.41900000000001
20
-63.078400000000002
0
LWPOLYLINE
5
134
100
AcDbEntity
8
0
100
AcDbPolyline
90
4
70
1
43
0.0
10
-52.337800000000001
20
-35.874299999999998
10
-52.337800000000001
20
-49.874000000000009
10
-38.3371
20
-49.874000000000009
10
-38.3371
20
-35.874299999999998
0
LWPOLYLINE
5
135
100
AcDbEntity
8
0
100
AcDbPolyline
90
4
70
1
43
0.0
10
-246.86700000000002
20
-49.278800000000004
10
-233.08000000000004
20
-46.847799999999999
10
-235.51100000000002
20
-33.060499999999998
10
-249.298
20
-35.491200000000006
0
LWPOLYLINE
5
136
100
AcDbEntity
8
0
100
AcDbPolyline
90
4
70
1
43
0.0
10
-176.798
20
-36.924500000000002
10
-179.22900000000001
20
-23.1372
10
-193.01600000000002
20
-25.568100000000005
10
-190.58500000000004
20
-39.355499999999999
0
LWPOLYLINE
5
137
100
AcDbEntity
8
0
100
AcDbPolyline
90
4
70
1
43
0.0
10
-78.531499999999994
20
-49.874000000000009
10
-64.532200000000003
20
-49.874000000000009
10
-64.532200000000003
20
-35.874299999999998
10
-78.531499999999994
20
-35.874299999999998
0
LWPOLYLINE
5
138
100
AcDbEntity
8
0
100
AcDbPolyline
90
4
70
1
43
0.0
10
-157.15700000000001
20
-36.651800000000001
10
-143.37100000000001
20
-39.0839
10
-140.93899999999999
20
-25.295300000000005
10
-154.726
20
-22.864400000000003
0
LWPOLYLINE
5
139
100
AcDbEntity
8
0
100
AcDbPolyline
90
4
70
1
43
0.0
10
-274.08199999999999
20
-35.874299999999998
10
-288.08199999999999
20
-35.874299999999998
10
-288.08199999999999
20
-49.874000000000009
10
-274.08199999999999
20
-49.874000000000009
0
LWPOLYLINE
5
140
100
AcDbEntity
8
0
100
AcDbPolyline
90
4
70
1
43
0.0
10
-295.512
20
-35.874299999999998
10
-309.51299999999998
20
-35.874299999999998
10
-309.51299999999998
20
-49.874000000000009
10
-295.512
20
-49.874000000000009
0
LWPOLYLINE
5
141
100
AcDbEntity
8
0
100
AcDbPolyline
90
4
70
1
43
0.0
10
-134.86699999999999
20
-45.710800000000006
10
-148.655
20
-43.280200000000008
10
-151.08500000000001
20
-57.067500000000003
10
-137.298
20
-59.498100000000001
0
LWPOLYLINE
5
142
100
AcDbEntity
8
0
100
AcDbPolyline
90
4
70
1
43
0.0
10
-33.575900000000004
20
-30.824000000000002
10
-33.575900000000004
20
-16.8245
10
-47.575299999999999
20
-16.8245
10
-47.575299999999999
20
-30.824000000000002
0
LWPOLYLINE
5
143
100
AcDbEntity
8
0
100
AcDbPolyline
90
4
70
1
43
0.0
10
-119.63700000000001
20
-43.267499999999998
10
-105.85000000000001
20
-45.6999
10
-103.41900000000001
20
-31.911200000000001
10
-117.20500000000001
20
-29.480400000000003
0
LWPOLYLINE
5
144
100
AcDbEntity
8
0
100
AcDbPolyline
90
4
70
1
43
0.0
10
-100.87600000000002
20
-46.576200000000007
10
-87.087800000000016
20
-49.007199999999997
10
-84.6571
20
-35.21990000000001
10
-98.445800000000006
20
-32.789000000000001
0
LWPOLYLINE
5
145
100
AcDbEntity
8
0
100
AcDbPolyline
90
4
70
1
43
0.0
10
-231.78300000000002
20
-13.059700000000001
10
-245.57000000000002
20
-15.490500000000003
10
-243.13999999999999
20
-29.277800000000003
10
-229.35200000000003
20
-26.847000000000001
0
LWPOLYLINE
5
146
100
AcDbEntity
8
0
100
AcDbPolyline
90
4
70
1
43
0.0
10
-102.172
20
-12.7882
10
-104.604
20
-26.575500000000005
10
-90.816999999999993
20
-29.0063
10
-88.385999999999996
20
-15.219000000000001
0
LWPOLYLINE
5
147
100
AcDbEntity
8
0
100
AcDbPolyline
90
4
70
1
43
0.0
10
-266.93700000000001
20
-16.8245
10
-280.93799999999999
20
-16.8245
10
-280.93799999999999
20
-30.824000000000002
10
-266.93700000000001
20
-30.824000000000002
0
LWPOLYLINE
5
148
100
AcDbEntity
8
0
100
AcDbPolyline
90
4
70
1
43
0.0
10
-71.387799999999999
20
-30.824000000000002
10
-57.387100000000004
20
-30.824000000000002
10
-57.387100000000004
20
-16.8245
10
-71.387799999999999
20
-16.8245
0
LWPOLYLINE
5
149
100
AcDbEntity
8
0
100
AcDbPolyline
90
4
70
1
43
0.0
10
-304.75
20
-30.824000000000002
10
-290.75099999999998
20
-30.824000000000002
10
-290.75099999999998
20
-16.8245
10
-304.75
20
-16.8245
0
LWPOLYLINE
5
150
100
AcDbEntity
8
0
100
AcDbPolyline
90
6
70
1
43
0.0
10
2.1649701673892126
20
-100.88174781271752
10
2.1649701673891721
20
-98.16820154752628
10
4.5149701673891416
20
-96.811428414930631
10
6.8649701673891457
20
-98.168201547526209
10
6.8649701673891848
20
-100.88174781271745
10
4.5149701673892215
20
-102.2385209453131
0
LWPOLYLINE
5
151
100
AcDbEntity
8
0
100
AcDbPolyline
90
6
70
1
43
0.0
10
-145.09442799999997
20
-102.41788813259582
10
-145.09442800000002
20
-99.704341867404565
10
-142.74442800000006
20
-98.347568734808931
10
-140.39442800000006
20
-99.704341867404494
10
-140.394428
20
-102.41788813259572
10
-142.74442799999997
20
-103.77466126519137
0
LWPOLYLINE
5
152
100
AcDbEntity
8
0
100
AcDbPolyline
90
6
70
1
43
0.0
10
-186.79442799999998
20
-102.41788813259552
10
-186.79442800000001
20
-99.704341867404281
10
-184.44442800000004
20
-98.347568734808632
10
-182.09442800000005
20
-99.704341867404224
10
-182.09442800000002
20
-102.41788813259545
10
-184.44442799999996
20
-103.7746612651911
0
LWPOLYLINE
5
153
100
AcDbEntity
8
0
100
AcDbPolyline
90
6
70
1
43
0.0
10
-335.57775359580694
20
-100.88070478016425
10
-335.57775359580694
20
-98.167158514972996
10
-333.22775359580692
20
-96.810385382377461
10
-330.87775359580689
20
-98.167158514973153
10
-330.87775359580695
20
-100.88070478016441
10
-333.22775359580703
20
-102.23747791275994
0
LWPOLYLINE
5
154
100
AcDbEntity
8
0
100
AcDbPolyline
90
6
70
1
43
0.0
10
2.1649701569118012
20
-10.791802663877041
10
2.1649701569117994
20
-8.0782563986858023
10
4.514970156911799
20
-6.7214832660901802
10
6.8649701569117987
20
-8.0782563986857987
10
6.8649701569117996
20
-10.791802663877039
10
4.5149701569118008
20
-12.14857579647266
0
LWPOLYLINE
5
155
100
AcDbEntity
8
0
100
AcDbPolyline
90
6
70
1
43
0.0
10
-168.51685173074105
20
6.0203674744450257
10
-168.51685173074105
20
8.7339137396362929
10
-166.16685173074103
20
10.090686872231947
10
-163.81685173074101
20
8.7339137396363071
10
-163.81685173074101
20
6.0203674744450311
10
-166.16685173074103
20
4.6635943418493913
0
LWPOLYLINE
5
156
100
AcDbEntity
8
0
100
AcDbPolyline
90
6
70
1
43
0.0
10
-335.57764212531811
20
-10.788405280263563
10
-335.57764212531811
20
-8.0748590150723292
10
-333.22764212531808
20
-6.7180858824767107
10
-330.87764212531806
20
-8.0748590150723292
10
-330.87764212531806
20
-10.788405280263564
10
-333.22764212531808
20
-12.145178412859181
0
LWPOLYLINE
5
157
100
AcDbEntity
8
0
100
AcDbPolyline
90
4
70
1
43
0.0
10
-142.125096003962
20
-19.959395046849803
10
-128.339096003962
20
-22.390295046849804
10
-125.90709600396201
20
-8.6029850468498559
10
-139.69409600396202
20
-6.1721350468498537
0
LWPOLYLINE
5
158
100
AcDbEntity
8
0
100
AcDbPolyline
90
4
70
1
43
0.0
10
-210.3079806138376
20
-23.488809970382075
10
-196.521009704703
20
-21.057795016858929
10
-198.95300000000006
20
-7.2705400000000031
10
-212.73900000000003
20
-9.7014399999999981
0
LWPOLYLINE
5
159
100
AcDbEntity
8
0
100
AcDbPolyline
90
4
70
1
43
0.0
10
-119.54784593771856
20
-24.924225626780778
10
-127.00570928034294
20
-23.610507369453533
10
-124.31377936394115
20
-8.3462831247652609
10
-116.85112185987036
20
-9.661116313960159
0
LWPOLYLINE
5
160
100
AcDbEntity
8
0
100
AcDbPolyline
90
4
70
1
43
0.0
10
-151.25608294193026
20
-19.333373488430677
10
-143.79542521938038
20
-20.648888738747178
10
-141.10379965117627
20
-5.3848895660671623
10
-148.56462290085153
20
-4.0693451000237024
0
LWPOLYLINE
5
161
100
AcDbEntity
8
0
100
AcDbPolyline
90
4
70
1
43
0.0
10
-187.39165251625707
20
-20.432706162612092
10
-194.85155535825589
20
-21.748088307120241
10
-197.54329635495506
20
-6.4833244961240855
10
-190.08324679200885
20
-5.1679164807542266
0
LWPOLYLINE
5
162
100
AcDbEntity
8
0
100
AcDbPolyline
90
4
70
1
43
0.0
10
-219.10068861991277
20
-26.024358444271844
10
-211.64140154501357
20
-24.709084876117181
10
-214.3332727898181
20
-9.4433203388847033
10
-221.79443919935983
20
-10.758925284442608
0
ENDSEC
0
SECTION
2
OBJECTS
0
DICTIONARY
5
C
100
AcDbDictionary
3
ACAD_GROUP
350
D
3
ACAD_MLINESTYLE
350
17
0
DICTIONARY
5
D
100
AcDbDictionary
0
DICTIONARY
5
1A
330
C
100
AcDbDictionary
0
DICTIONARY
5
17
100
AcDbDictionary
0
ENDSEC
0
EOF
