M48
; DRILL file {KiCad (5.1.4)-1} date 12/11/2020 07:59:03
; FORMAT={-:-/ absolute / inch / decimal}
; #@! TF.CreationDate,2020-11-12T07:59:03-08:00
; #@! TF.GenerationSoftware,Kicad,Pcbnew,(5.1.4)-1
; #@! TF.FileFunction,NonPlated,1,2,NPTH
FMAT,2
INCH
T1C0.0689
T2C0.1200
T3C0.1570
%
G90
G05
T1
X10.9858Y-6.1126
X11.3798Y-6.0432
X11.8033Y-6.0117
X12.2033Y-6.0117
X3.0835Y-6.7615
X3.4835Y-6.7615
X4.3035Y-6.0115
X4.7035Y-6.0115
X3.1775Y-4.5115
X3.5775Y-4.5115
X4.0395Y-5.2615
X4.4395Y-5.2615
X6.3253Y-4.7401
X6.7193Y-4.8095
X1.8655Y-5.8239
X2.2655Y-5.8239
X10.4862Y-5.4391
X10.8802Y-5.3697
X6.7655Y-7.1028
X7.1595Y-7.1722
X9.4329Y-4.8634
X9.8269Y-4.794
X12.2713Y-6.7619
X12.6713Y-6.7619
X10.2465Y-6.243
X10.6405Y-6.1736
X13.3019Y-4.5105
X13.7019Y-4.5105
X7.118Y-5.6413
X7.512Y-5.7107
X11.8033Y-4.4733
X12.2033Y-4.4733
X10.9103Y-4.6027
X11.3043Y-4.5333
X12.5535Y-6.0117
X12.9535Y-6.0117
X4.8485Y-4.4788
X5.2425Y-4.5482
X4.9025Y-5.2508
X5.2965Y-5.3202
X9.5456Y-7.1282
X9.9396Y-7.0588
X13.7533Y-5.2613
X14.1533Y-5.2613
X3.1975Y-5.2615
X3.5975Y-5.2615
X4.0215Y-6.7615
X4.4215Y-6.7615
X3.9275Y-4.5115
X4.3275Y-4.5115
X5.6411Y-5.3811
X6.0351Y-5.4505
X6.3795Y-5.511
X6.7735Y-5.5805
X13.2095Y-6.7615
X13.6095Y-6.7615
X8.7702Y-6.5032
X9.1642Y-6.4338
X12.0661Y-5.2611
X12.4661Y-5.2611
X11.2248Y-5.309
X11.6188Y-5.2396
X12.8161Y-5.2609
X13.2161Y-5.2609
X10.1716Y-4.7331
X10.5656Y-4.6637
X5.8805Y-6.1848
X6.2745Y-6.2542
X9.5088Y-6.3731
X9.9028Y-6.3037
X12.5531Y-4.5107
X12.9531Y-4.5107
X5.5865Y-4.6098
X5.9805Y-4.6792
X9.0088Y-5.6997
X9.4028Y-5.6303
X5.2885Y-6.8418
X5.6825Y-6.9112
X2.0531Y-5.0737
X2.4531Y-5.0737
X2.2417Y-4.3239
X2.6417Y-4.3239
X3.2715Y-6.0115
X3.6715Y-6.0115
X6.6185Y-6.3148
X7.0125Y-6.3842
X5.1425Y-6.0548
X5.5365Y-6.1242
X10.8391Y-6.9
X11.233Y-6.8305
X14.0533Y-4.5105
X14.4533Y-4.5105
X9.7478Y-5.5693
X10.1418Y-5.4999
X7.0641Y-4.8704
X7.4581Y-4.9398
X8.6942Y-4.9935
X9.0882Y-4.9241
X13.3971Y-6.0111
X13.7971Y-6.0111
X7.3578Y-6.4451
X7.7518Y-6.5145
T2
X6.4531Y-7.3269
X7.3764Y-7.4897
X9.3287Y-7.4457
X10.252Y-7.2829
T3
X9.2058Y-5.665
X5.4855Y-6.8765
X2.2531Y-5.0737
X2.4417Y-4.3239
X3.4715Y-6.0115
X6.8155Y-6.3495
X5.3395Y-6.0895
X11.0361Y-6.8653
X14.2533Y-4.5105
X9.9448Y-5.5346
X7.2611Y-4.9051
X8.8912Y-4.9588
X13.5971Y-6.0111
X7.5548Y-6.4798
X11.1828Y-6.0779
X12.0033Y-6.0117
X3.2835Y-6.7615
X4.5035Y-6.0115
X3.3775Y-4.5115
X4.2395Y-5.2615
X6.5223Y-4.7748
X2.0655Y-5.8239
X10.6832Y-5.4044
X6.5573Y-6.736
X6.9625Y-7.1375
X7.4806Y-6.8988
X9.6299Y-4.8287
X12.4713Y-6.7619
X10.4435Y-6.2083
X13.5019Y-4.5105
X7.315Y-5.676
X12.0033Y-4.4733
X11.1073Y-4.568
X12.7535Y-6.0117
X5.0455Y-4.5135
X5.0995Y-5.2855
X9.2245Y-6.8548
X9.7426Y-7.0935
X10.1478Y-6.692
X13.9533Y-5.2613
X3.3975Y-5.2615
X4.2215Y-6.7615
X4.1275Y-4.5115
X5.8381Y-5.4158
X6.5765Y-5.5458
X13.4095Y-6.7615
X8.9672Y-6.4685
X12.2661Y-5.2611
X11.4218Y-5.2743
X13.0161Y-5.2609
X10.3686Y-4.6984
X6.0775Y-6.2195
X9.7058Y-6.3384
X12.7531Y-4.5107
X5.7835Y-4.6445
T0
M30
