G04 #@! TF.GenerationSoftware,KiCad,Pcbnew,(5.1.4)-1*
G04 #@! TF.CreationDate,2020-11-12T07:58:55-08:00*
G04 #@! TF.ProjectId,ariesuRev2,61726965-7375-4526-9576-322e6b696361,2*
G04 #@! TF.SameCoordinates,Original*
G04 #@! TF.FileFunction,Copper,L2,Bot*
G04 #@! TF.FilePolarity,Positive*
%FSLAX46Y46*%
G04 Gerber Fmt 4.6, Leading zero omitted, Abs format (unit mm)*
G04 Created by KiCad (PCBNEW (5.1.4)-1) date 2020-11-12 07:58:55*
%MOMM*%
%LPD*%
G04 APERTURE LIST*
%ADD10C,2.250000*%
%ADD11C,0.900000*%
%ADD12C,0.100000*%
%ADD13R,1.800000X1.100000*%
%ADD14C,0.550000*%
%ADD15C,0.975000*%
%ADD16O,1.700000X2.700000*%
%ADD17R,0.500000X2.250000*%
%ADD18C,1.200000*%
%ADD19R,0.650000X1.060000*%
%ADD20C,1.250000*%
%ADD21R,1.200000X0.900000*%
%ADD22C,0.800000*%
%ADD23C,0.381000*%
%ADD24C,0.254000*%
G04 APERTURE END LIST*
D10*
X243268856Y-178335088D03*
X249081319Y-174731010D03*
X248146599Y-155551470D03*
X242334136Y-159155548D03*
D11*
X260406381Y-137468007D03*
D12*
G36*
X261075407Y-137806982D02*
G01*
X259893638Y-138015359D01*
X259737355Y-137129032D01*
X260919124Y-136920655D01*
X261075407Y-137806982D01*
X261075407Y-137806982D01*
G37*
D11*
X260979419Y-140717873D03*
D12*
G36*
X261648445Y-141056848D02*
G01*
X260466676Y-141265225D01*
X260310393Y-140378898D01*
X261492162Y-140170521D01*
X261648445Y-141056848D01*
X261648445Y-141056848D01*
G37*
D11*
X297871381Y-130864007D03*
D12*
G36*
X298540407Y-131202982D02*
G01*
X297358638Y-131411359D01*
X297202355Y-130525032D01*
X298384124Y-130316655D01*
X298540407Y-131202982D01*
X298540407Y-131202982D01*
G37*
D11*
X298444419Y-134113873D03*
D12*
G36*
X299113445Y-134452848D02*
G01*
X297931676Y-134661225D01*
X297775393Y-133774898D01*
X298957162Y-133566521D01*
X299113445Y-134452848D01*
X299113445Y-134452848D01*
G37*
D10*
X235446599Y-138447110D03*
X229634136Y-142051188D03*
D11*
X181452019Y-161125567D03*
D12*
G36*
X181964762Y-161672919D02*
G01*
X180782993Y-161464542D01*
X180939276Y-160578215D01*
X182121045Y-160786592D01*
X181964762Y-161672919D01*
X181964762Y-161672919D01*
G37*
D11*
X180878981Y-164375433D03*
D12*
G36*
X181391724Y-164922785D02*
G01*
X180209955Y-164714408D01*
X180366238Y-163828081D01*
X181548007Y-164036458D01*
X181391724Y-164922785D01*
X181391724Y-164922785D01*
G37*
D11*
X137891019Y-134074567D03*
D12*
G36*
X138403762Y-134621919D02*
G01*
X137221993Y-134413542D01*
X137378276Y-133527215D01*
X138560045Y-133735592D01*
X138403762Y-134621919D01*
X138403762Y-134621919D01*
G37*
D11*
X137317981Y-137324433D03*
D12*
G36*
X137830724Y-137871785D02*
G01*
X136648955Y-137663408D01*
X136805238Y-136777081D01*
X137987007Y-136985458D01*
X137830724Y-137871785D01*
X137830724Y-137871785D01*
G37*
D10*
X187815484Y-120027783D03*
X181120889Y-121426529D03*
X356953198Y-128555805D03*
X350603198Y-131095805D03*
X364573198Y-109485485D03*
X358223198Y-112025485D03*
X343140678Y-166660885D03*
X336790678Y-169200885D03*
X347905718Y-147600725D03*
X341555718Y-150140725D03*
X345487638Y-109485485D03*
X339137638Y-112025485D03*
X319310398Y-166671045D03*
X312960398Y-169211045D03*
X326478278Y-147615965D03*
X320128278Y-150155965D03*
X333148318Y-128545645D03*
X326798318Y-131085645D03*
X326468118Y-109490565D03*
X320118118Y-112030565D03*
X307423198Y-147615965D03*
X301073198Y-150155965D03*
X314098318Y-128550725D03*
X307748318Y-131090725D03*
X307423198Y-108540605D03*
X301073198Y-111080605D03*
X285662399Y-148934770D03*
X279849936Y-152538848D03*
X291732999Y-128523330D03*
X285920536Y-132127408D03*
X283744699Y-110583310D03*
X277932236Y-114187388D03*
X281935597Y-168933515D03*
X276123134Y-172537593D03*
X266884179Y-152246930D03*
X261071716Y-155851008D03*
X272972559Y-131827870D03*
X267160096Y-135431948D03*
X264981719Y-113895470D03*
X259169256Y-117499548D03*
X254217199Y-135134950D03*
X248404736Y-138739028D03*
X246218739Y-117205090D03*
X240406276Y-120809168D03*
X229386159Y-158856010D03*
X223573696Y-162460088D03*
X227455759Y-120509630D03*
X221643296Y-124113708D03*
X195275464Y-160025163D03*
X188580869Y-161423909D03*
X189184544Y-139608643D03*
X182489949Y-141007389D03*
X176497244Y-156715543D03*
X169802649Y-158114289D03*
X170426644Y-136300743D03*
X163732049Y-137699489D03*
X169049964Y-116718163D03*
X162355369Y-118116909D03*
X157752044Y-153413543D03*
X151057449Y-154812289D03*
X151671284Y-132999563D03*
X144976689Y-134398309D03*
X150284444Y-113408543D03*
X143589849Y-114807289D03*
X142715244Y-170101343D03*
X136020649Y-171500089D03*
X139006844Y-150111543D03*
X132312249Y-151510289D03*
X132910844Y-129689943D03*
X126216249Y-131088689D03*
X131539244Y-110081143D03*
X124844649Y-111479889D03*
X109766100Y-166662100D03*
X103416100Y-169202100D03*
X116928900Y-147612100D03*
X110578900Y-150152100D03*
X110223300Y-128562100D03*
X103873300Y-131102100D03*
X107378500Y-109512100D03*
X101028500Y-112052100D03*
X85940900Y-166662100D03*
X79590900Y-169202100D03*
X90716100Y-147612100D03*
X84366100Y-150152100D03*
X88836500Y-128562100D03*
X82486500Y-131102100D03*
X88328500Y-109512100D03*
X81978500Y-112052100D03*
X55003700Y-142845845D03*
X48653700Y-145385845D03*
X59768118Y-123790765D03*
X53418118Y-126330765D03*
X64558558Y-104745845D03*
X58208558Y-107285845D03*
D11*
X288219381Y-171250007D03*
D12*
G36*
X288888407Y-171588982D02*
G01*
X287706638Y-171797359D01*
X287550355Y-170911032D01*
X288732124Y-170702655D01*
X288888407Y-171588982D01*
X288888407Y-171588982D01*
G37*
D11*
X288792419Y-174499873D03*
D12*
G36*
X289461445Y-174838848D02*
G01*
X288279676Y-175047225D01*
X288123393Y-174160898D01*
X289305162Y-173952521D01*
X289461445Y-174838848D01*
X289461445Y-174838848D01*
G37*
D10*
X180231044Y-176730743D03*
X173536449Y-178129489D03*
D13*
X213747928Y-154809635D03*
X207547928Y-158509635D03*
X213747928Y-158509635D03*
X207547928Y-154809635D03*
D14*
X205242754Y-122692549D03*
D12*
G36*
X205967538Y-123028425D02*
G01*
X205578630Y-123417333D01*
X204517970Y-122356673D01*
X204906878Y-121967765D01*
X205967538Y-123028425D01*
X205967538Y-123028425D01*
G37*
D14*
X204677069Y-123258235D03*
D12*
G36*
X205401853Y-123594111D02*
G01*
X205012945Y-123983019D01*
X203952285Y-122922359D01*
X204341193Y-122533451D01*
X205401853Y-123594111D01*
X205401853Y-123594111D01*
G37*
D14*
X204111384Y-123823920D03*
D12*
G36*
X204836168Y-124159796D02*
G01*
X204447260Y-124548704D01*
X203386600Y-123488044D01*
X203775508Y-123099136D01*
X204836168Y-124159796D01*
X204836168Y-124159796D01*
G37*
D14*
X203545698Y-124389605D03*
D12*
G36*
X204270482Y-124725481D02*
G01*
X203881574Y-125114389D01*
X202820914Y-124053729D01*
X203209822Y-123664821D01*
X204270482Y-124725481D01*
X204270482Y-124725481D01*
G37*
D14*
X202980013Y-124955291D03*
D12*
G36*
X203704797Y-125291167D02*
G01*
X203315889Y-125680075D01*
X202255229Y-124619415D01*
X202644137Y-124230507D01*
X203704797Y-125291167D01*
X203704797Y-125291167D01*
G37*
D14*
X202414327Y-125520976D03*
D12*
G36*
X203139111Y-125856852D02*
G01*
X202750203Y-126245760D01*
X201689543Y-125185100D01*
X202078451Y-124796192D01*
X203139111Y-125856852D01*
X203139111Y-125856852D01*
G37*
D14*
X201848642Y-126086662D03*
D12*
G36*
X202573426Y-126422538D02*
G01*
X202184518Y-126811446D01*
X201123858Y-125750786D01*
X201512766Y-125361878D01*
X202573426Y-126422538D01*
X202573426Y-126422538D01*
G37*
D14*
X201282956Y-126652347D03*
D12*
G36*
X202007740Y-126988223D02*
G01*
X201618832Y-127377131D01*
X200558172Y-126316471D01*
X200947080Y-125927563D01*
X202007740Y-126988223D01*
X202007740Y-126988223D01*
G37*
D14*
X200717271Y-127218033D03*
D12*
G36*
X201442055Y-127553909D02*
G01*
X201053147Y-127942817D01*
X199992487Y-126882157D01*
X200381395Y-126493249D01*
X201442055Y-127553909D01*
X201442055Y-127553909D01*
G37*
D14*
X200151586Y-127783718D03*
D12*
G36*
X200876370Y-128119594D02*
G01*
X200487462Y-128508502D01*
X199426802Y-127447842D01*
X199815710Y-127058934D01*
X200876370Y-128119594D01*
X200876370Y-128119594D01*
G37*
D14*
X199585900Y-128349403D03*
D12*
G36*
X200310684Y-128685279D02*
G01*
X199921776Y-129074187D01*
X198861116Y-128013527D01*
X199250024Y-127624619D01*
X200310684Y-128685279D01*
X200310684Y-128685279D01*
G37*
D14*
X199585900Y-130753567D03*
D12*
G36*
X199921776Y-130028783D02*
G01*
X200310684Y-130417691D01*
X199250024Y-131478351D01*
X198861116Y-131089443D01*
X199921776Y-130028783D01*
X199921776Y-130028783D01*
G37*
D14*
X200151586Y-131319252D03*
D12*
G36*
X200487462Y-130594468D02*
G01*
X200876370Y-130983376D01*
X199815710Y-132044036D01*
X199426802Y-131655128D01*
X200487462Y-130594468D01*
X200487462Y-130594468D01*
G37*
D14*
X200717271Y-131884937D03*
D12*
G36*
X201053147Y-131160153D02*
G01*
X201442055Y-131549061D01*
X200381395Y-132609721D01*
X199992487Y-132220813D01*
X201053147Y-131160153D01*
X201053147Y-131160153D01*
G37*
D14*
X201282956Y-132450623D03*
D12*
G36*
X201618832Y-131725839D02*
G01*
X202007740Y-132114747D01*
X200947080Y-133175407D01*
X200558172Y-132786499D01*
X201618832Y-131725839D01*
X201618832Y-131725839D01*
G37*
D14*
X201848642Y-133016308D03*
D12*
G36*
X202184518Y-132291524D02*
G01*
X202573426Y-132680432D01*
X201512766Y-133741092D01*
X201123858Y-133352184D01*
X202184518Y-132291524D01*
X202184518Y-132291524D01*
G37*
D14*
X202414327Y-133581994D03*
D12*
G36*
X202750203Y-132857210D02*
G01*
X203139111Y-133246118D01*
X202078451Y-134306778D01*
X201689543Y-133917870D01*
X202750203Y-132857210D01*
X202750203Y-132857210D01*
G37*
D14*
X202980013Y-134147679D03*
D12*
G36*
X203315889Y-133422895D02*
G01*
X203704797Y-133811803D01*
X202644137Y-134872463D01*
X202255229Y-134483555D01*
X203315889Y-133422895D01*
X203315889Y-133422895D01*
G37*
D14*
X203545698Y-134713365D03*
D12*
G36*
X203881574Y-133988581D02*
G01*
X204270482Y-134377489D01*
X203209822Y-135438149D01*
X202820914Y-135049241D01*
X203881574Y-133988581D01*
X203881574Y-133988581D01*
G37*
D14*
X204111384Y-135279050D03*
D12*
G36*
X204447260Y-134554266D02*
G01*
X204836168Y-134943174D01*
X203775508Y-136003834D01*
X203386600Y-135614926D01*
X204447260Y-134554266D01*
X204447260Y-134554266D01*
G37*
D14*
X204677069Y-135844735D03*
D12*
G36*
X205012945Y-135119951D02*
G01*
X205401853Y-135508859D01*
X204341193Y-136569519D01*
X203952285Y-136180611D01*
X205012945Y-135119951D01*
X205012945Y-135119951D01*
G37*
D14*
X205242754Y-136410421D03*
D12*
G36*
X205578630Y-135685637D02*
G01*
X205967538Y-136074545D01*
X204906878Y-137135205D01*
X204517970Y-136746297D01*
X205578630Y-135685637D01*
X205578630Y-135685637D01*
G37*
D14*
X207646918Y-136410421D03*
D12*
G36*
X208371702Y-136746297D02*
G01*
X207982794Y-137135205D01*
X206922134Y-136074545D01*
X207311042Y-135685637D01*
X208371702Y-136746297D01*
X208371702Y-136746297D01*
G37*
D14*
X208212603Y-135844735D03*
D12*
G36*
X208937387Y-136180611D02*
G01*
X208548479Y-136569519D01*
X207487819Y-135508859D01*
X207876727Y-135119951D01*
X208937387Y-136180611D01*
X208937387Y-136180611D01*
G37*
D14*
X208778288Y-135279050D03*
D12*
G36*
X209503072Y-135614926D02*
G01*
X209114164Y-136003834D01*
X208053504Y-134943174D01*
X208442412Y-134554266D01*
X209503072Y-135614926D01*
X209503072Y-135614926D01*
G37*
D14*
X209343974Y-134713365D03*
D12*
G36*
X210068758Y-135049241D02*
G01*
X209679850Y-135438149D01*
X208619190Y-134377489D01*
X209008098Y-133988581D01*
X210068758Y-135049241D01*
X210068758Y-135049241D01*
G37*
D14*
X209909659Y-134147679D03*
D12*
G36*
X210634443Y-134483555D02*
G01*
X210245535Y-134872463D01*
X209184875Y-133811803D01*
X209573783Y-133422895D01*
X210634443Y-134483555D01*
X210634443Y-134483555D01*
G37*
D14*
X210475345Y-133581994D03*
D12*
G36*
X211200129Y-133917870D02*
G01*
X210811221Y-134306778D01*
X209750561Y-133246118D01*
X210139469Y-132857210D01*
X211200129Y-133917870D01*
X211200129Y-133917870D01*
G37*
D14*
X211041030Y-133016308D03*
D12*
G36*
X211765814Y-133352184D02*
G01*
X211376906Y-133741092D01*
X210316246Y-132680432D01*
X210705154Y-132291524D01*
X211765814Y-133352184D01*
X211765814Y-133352184D01*
G37*
D14*
X211606716Y-132450623D03*
D12*
G36*
X212331500Y-132786499D02*
G01*
X211942592Y-133175407D01*
X210881932Y-132114747D01*
X211270840Y-131725839D01*
X212331500Y-132786499D01*
X212331500Y-132786499D01*
G37*
D14*
X212172401Y-131884937D03*
D12*
G36*
X212897185Y-132220813D02*
G01*
X212508277Y-132609721D01*
X211447617Y-131549061D01*
X211836525Y-131160153D01*
X212897185Y-132220813D01*
X212897185Y-132220813D01*
G37*
D14*
X212738086Y-131319252D03*
D12*
G36*
X213462870Y-131655128D02*
G01*
X213073962Y-132044036D01*
X212013302Y-130983376D01*
X212402210Y-130594468D01*
X213462870Y-131655128D01*
X213462870Y-131655128D01*
G37*
D14*
X213303772Y-130753567D03*
D12*
G36*
X214028556Y-131089443D02*
G01*
X213639648Y-131478351D01*
X212578988Y-130417691D01*
X212967896Y-130028783D01*
X214028556Y-131089443D01*
X214028556Y-131089443D01*
G37*
D14*
X213303772Y-128349403D03*
D12*
G36*
X213639648Y-127624619D02*
G01*
X214028556Y-128013527D01*
X212967896Y-129074187D01*
X212578988Y-128685279D01*
X213639648Y-127624619D01*
X213639648Y-127624619D01*
G37*
D14*
X212738086Y-127783718D03*
D12*
G36*
X213073962Y-127058934D02*
G01*
X213462870Y-127447842D01*
X212402210Y-128508502D01*
X212013302Y-128119594D01*
X213073962Y-127058934D01*
X213073962Y-127058934D01*
G37*
D14*
X212172401Y-127218033D03*
D12*
G36*
X212508277Y-126493249D02*
G01*
X212897185Y-126882157D01*
X211836525Y-127942817D01*
X211447617Y-127553909D01*
X212508277Y-126493249D01*
X212508277Y-126493249D01*
G37*
D14*
X211606716Y-126652347D03*
D12*
G36*
X211942592Y-125927563D02*
G01*
X212331500Y-126316471D01*
X211270840Y-127377131D01*
X210881932Y-126988223D01*
X211942592Y-125927563D01*
X211942592Y-125927563D01*
G37*
D14*
X211041030Y-126086662D03*
D12*
G36*
X211376906Y-125361878D02*
G01*
X211765814Y-125750786D01*
X210705154Y-126811446D01*
X210316246Y-126422538D01*
X211376906Y-125361878D01*
X211376906Y-125361878D01*
G37*
D14*
X210475345Y-125520976D03*
D12*
G36*
X210811221Y-124796192D02*
G01*
X211200129Y-125185100D01*
X210139469Y-126245760D01*
X209750561Y-125856852D01*
X210811221Y-124796192D01*
X210811221Y-124796192D01*
G37*
D14*
X209909659Y-124955291D03*
D12*
G36*
X210245535Y-124230507D02*
G01*
X210634443Y-124619415D01*
X209573783Y-125680075D01*
X209184875Y-125291167D01*
X210245535Y-124230507D01*
X210245535Y-124230507D01*
G37*
D14*
X209343974Y-124389605D03*
D12*
G36*
X209679850Y-123664821D02*
G01*
X210068758Y-124053729D01*
X209008098Y-125114389D01*
X208619190Y-124725481D01*
X209679850Y-123664821D01*
X209679850Y-123664821D01*
G37*
D14*
X208778288Y-123823920D03*
D12*
G36*
X209114164Y-123099136D02*
G01*
X209503072Y-123488044D01*
X208442412Y-124548704D01*
X208053504Y-124159796D01*
X209114164Y-123099136D01*
X209114164Y-123099136D01*
G37*
D14*
X208212603Y-123258235D03*
D12*
G36*
X208548479Y-122533451D02*
G01*
X208937387Y-122922359D01*
X207876727Y-123983019D01*
X207487819Y-123594111D01*
X208548479Y-122533451D01*
X208548479Y-122533451D01*
G37*
D14*
X207646918Y-122692549D03*
D12*
G36*
X207982794Y-121967765D02*
G01*
X208371702Y-122356673D01*
X207311042Y-123417333D01*
X206922134Y-123028425D01*
X207982794Y-121967765D01*
X207982794Y-121967765D01*
G37*
G36*
X202619070Y-106310809D02*
G01*
X202642731Y-106314319D01*
X202665935Y-106320131D01*
X202688457Y-106328189D01*
X202710081Y-106338417D01*
X202730598Y-106350714D01*
X202749811Y-106364964D01*
X202767535Y-106381028D01*
X202783599Y-106398752D01*
X202797849Y-106417965D01*
X202810146Y-106438482D01*
X202820374Y-106460106D01*
X202828432Y-106482628D01*
X202834244Y-106505832D01*
X202837754Y-106529493D01*
X202838928Y-106553385D01*
X202838928Y-107040885D01*
X202837754Y-107064777D01*
X202834244Y-107088438D01*
X202828432Y-107111642D01*
X202820374Y-107134164D01*
X202810146Y-107155788D01*
X202797849Y-107176305D01*
X202783599Y-107195518D01*
X202767535Y-107213242D01*
X202749811Y-107229306D01*
X202730598Y-107243556D01*
X202710081Y-107255853D01*
X202688457Y-107266081D01*
X202665935Y-107274139D01*
X202642731Y-107279951D01*
X202619070Y-107283461D01*
X202595178Y-107284635D01*
X201682678Y-107284635D01*
X201658786Y-107283461D01*
X201635125Y-107279951D01*
X201611921Y-107274139D01*
X201589399Y-107266081D01*
X201567775Y-107255853D01*
X201547258Y-107243556D01*
X201528045Y-107229306D01*
X201510321Y-107213242D01*
X201494257Y-107195518D01*
X201480007Y-107176305D01*
X201467710Y-107155788D01*
X201457482Y-107134164D01*
X201449424Y-107111642D01*
X201443612Y-107088438D01*
X201440102Y-107064777D01*
X201438928Y-107040885D01*
X201438928Y-106553385D01*
X201440102Y-106529493D01*
X201443612Y-106505832D01*
X201449424Y-106482628D01*
X201457482Y-106460106D01*
X201467710Y-106438482D01*
X201480007Y-106417965D01*
X201494257Y-106398752D01*
X201510321Y-106381028D01*
X201528045Y-106364964D01*
X201547258Y-106350714D01*
X201567775Y-106338417D01*
X201589399Y-106328189D01*
X201611921Y-106320131D01*
X201635125Y-106314319D01*
X201658786Y-106310809D01*
X201682678Y-106309635D01*
X202595178Y-106309635D01*
X202619070Y-106310809D01*
X202619070Y-106310809D01*
G37*
D15*
X202138928Y-106797135D03*
D12*
G36*
X202619070Y-104435809D02*
G01*
X202642731Y-104439319D01*
X202665935Y-104445131D01*
X202688457Y-104453189D01*
X202710081Y-104463417D01*
X202730598Y-104475714D01*
X202749811Y-104489964D01*
X202767535Y-104506028D01*
X202783599Y-104523752D01*
X202797849Y-104542965D01*
X202810146Y-104563482D01*
X202820374Y-104585106D01*
X202828432Y-104607628D01*
X202834244Y-104630832D01*
X202837754Y-104654493D01*
X202838928Y-104678385D01*
X202838928Y-105165885D01*
X202837754Y-105189777D01*
X202834244Y-105213438D01*
X202828432Y-105236642D01*
X202820374Y-105259164D01*
X202810146Y-105280788D01*
X202797849Y-105301305D01*
X202783599Y-105320518D01*
X202767535Y-105338242D01*
X202749811Y-105354306D01*
X202730598Y-105368556D01*
X202710081Y-105380853D01*
X202688457Y-105391081D01*
X202665935Y-105399139D01*
X202642731Y-105404951D01*
X202619070Y-105408461D01*
X202595178Y-105409635D01*
X201682678Y-105409635D01*
X201658786Y-105408461D01*
X201635125Y-105404951D01*
X201611921Y-105399139D01*
X201589399Y-105391081D01*
X201567775Y-105380853D01*
X201547258Y-105368556D01*
X201528045Y-105354306D01*
X201510321Y-105338242D01*
X201494257Y-105320518D01*
X201480007Y-105301305D01*
X201467710Y-105280788D01*
X201457482Y-105259164D01*
X201449424Y-105236642D01*
X201443612Y-105213438D01*
X201440102Y-105189777D01*
X201438928Y-105165885D01*
X201438928Y-104678385D01*
X201440102Y-104654493D01*
X201443612Y-104630832D01*
X201449424Y-104607628D01*
X201457482Y-104585106D01*
X201467710Y-104563482D01*
X201480007Y-104542965D01*
X201494257Y-104523752D01*
X201510321Y-104506028D01*
X201528045Y-104489964D01*
X201547258Y-104475714D01*
X201567775Y-104463417D01*
X201589399Y-104453189D01*
X201611921Y-104445131D01*
X201635125Y-104439319D01*
X201658786Y-104435809D01*
X201682678Y-104434635D01*
X202595178Y-104434635D01*
X202619070Y-104435809D01*
X202619070Y-104435809D01*
G37*
D15*
X202138928Y-104922135D03*
D16*
X202806928Y-93953385D03*
X210106928Y-93953385D03*
X210106928Y-98453385D03*
X202806928Y-98453385D03*
D17*
X204856928Y-98453385D03*
X205656928Y-98453385D03*
X206456928Y-98453385D03*
X207256928Y-98453385D03*
X208056928Y-98453385D03*
D12*
G36*
X219833762Y-136088537D02*
G01*
X219857423Y-136092047D01*
X219880627Y-136097859D01*
X219903149Y-136105917D01*
X219924773Y-136116145D01*
X219945290Y-136128442D01*
X219964503Y-136142692D01*
X219982227Y-136158756D01*
X220326942Y-136503471D01*
X220343006Y-136521195D01*
X220357256Y-136540408D01*
X220369553Y-136560925D01*
X220379781Y-136582549D01*
X220387839Y-136605071D01*
X220393651Y-136628275D01*
X220397161Y-136651936D01*
X220398335Y-136675828D01*
X220397161Y-136699720D01*
X220393651Y-136723381D01*
X220387839Y-136746585D01*
X220379781Y-136769107D01*
X220369553Y-136790731D01*
X220357256Y-136811248D01*
X220343006Y-136830461D01*
X220326942Y-136848185D01*
X219681707Y-137493420D01*
X219663983Y-137509484D01*
X219644770Y-137523734D01*
X219624253Y-137536031D01*
X219602629Y-137546259D01*
X219580107Y-137554317D01*
X219556903Y-137560129D01*
X219533242Y-137563639D01*
X219509350Y-137564813D01*
X219485458Y-137563639D01*
X219461797Y-137560129D01*
X219438593Y-137554317D01*
X219416071Y-137546259D01*
X219394447Y-137536031D01*
X219373930Y-137523734D01*
X219354717Y-137509484D01*
X219336993Y-137493420D01*
X218992278Y-137148705D01*
X218976214Y-137130981D01*
X218961964Y-137111768D01*
X218949667Y-137091251D01*
X218939439Y-137069627D01*
X218931381Y-137047105D01*
X218925569Y-137023901D01*
X218922059Y-137000240D01*
X218920885Y-136976348D01*
X218922059Y-136952456D01*
X218925569Y-136928795D01*
X218931381Y-136905591D01*
X218939439Y-136883069D01*
X218949667Y-136861445D01*
X218961964Y-136840928D01*
X218976214Y-136821715D01*
X218992278Y-136803991D01*
X219637513Y-136158756D01*
X219655237Y-136142692D01*
X219674450Y-136128442D01*
X219694967Y-136116145D01*
X219716591Y-136105917D01*
X219739113Y-136097859D01*
X219762317Y-136092047D01*
X219785978Y-136088537D01*
X219809870Y-136087363D01*
X219833762Y-136088537D01*
X219833762Y-136088537D01*
G37*
D15*
X219659610Y-136826088D03*
D12*
G36*
X218507936Y-134762711D02*
G01*
X218531597Y-134766221D01*
X218554801Y-134772033D01*
X218577323Y-134780091D01*
X218598947Y-134790319D01*
X218619464Y-134802616D01*
X218638677Y-134816866D01*
X218656401Y-134832930D01*
X219001116Y-135177645D01*
X219017180Y-135195369D01*
X219031430Y-135214582D01*
X219043727Y-135235099D01*
X219053955Y-135256723D01*
X219062013Y-135279245D01*
X219067825Y-135302449D01*
X219071335Y-135326110D01*
X219072509Y-135350002D01*
X219071335Y-135373894D01*
X219067825Y-135397555D01*
X219062013Y-135420759D01*
X219053955Y-135443281D01*
X219043727Y-135464905D01*
X219031430Y-135485422D01*
X219017180Y-135504635D01*
X219001116Y-135522359D01*
X218355881Y-136167594D01*
X218338157Y-136183658D01*
X218318944Y-136197908D01*
X218298427Y-136210205D01*
X218276803Y-136220433D01*
X218254281Y-136228491D01*
X218231077Y-136234303D01*
X218207416Y-136237813D01*
X218183524Y-136238987D01*
X218159632Y-136237813D01*
X218135971Y-136234303D01*
X218112767Y-136228491D01*
X218090245Y-136220433D01*
X218068621Y-136210205D01*
X218048104Y-136197908D01*
X218028891Y-136183658D01*
X218011167Y-136167594D01*
X217666452Y-135822879D01*
X217650388Y-135805155D01*
X217636138Y-135785942D01*
X217623841Y-135765425D01*
X217613613Y-135743801D01*
X217605555Y-135721279D01*
X217599743Y-135698075D01*
X217596233Y-135674414D01*
X217595059Y-135650522D01*
X217596233Y-135626630D01*
X217599743Y-135602969D01*
X217605555Y-135579765D01*
X217613613Y-135557243D01*
X217623841Y-135535619D01*
X217636138Y-135515102D01*
X217650388Y-135495889D01*
X217666452Y-135478165D01*
X218311687Y-134832930D01*
X218329411Y-134816866D01*
X218348624Y-134802616D01*
X218369141Y-134790319D01*
X218390765Y-134780091D01*
X218413287Y-134772033D01*
X218436491Y-134766221D01*
X218460152Y-134762711D01*
X218484044Y-134761537D01*
X218507936Y-134762711D01*
X218507936Y-134762711D01*
G37*
D15*
X218333784Y-135500262D03*
D18*
X214322085Y-139779390D03*
D12*
G36*
X214251374Y-140698629D02*
G01*
X213402846Y-139850101D01*
X214392796Y-138860151D01*
X215241324Y-139708679D01*
X214251374Y-140698629D01*
X214251374Y-140698629D01*
G37*
D18*
X215877720Y-138223755D03*
D12*
G36*
X215807009Y-139142994D02*
G01*
X214958481Y-138294466D01*
X215948431Y-137304516D01*
X216796959Y-138153044D01*
X215807009Y-139142994D01*
X215807009Y-139142994D01*
G37*
D18*
X217079801Y-139425836D03*
D12*
G36*
X217009090Y-140345075D02*
G01*
X216160562Y-139496547D01*
X217150512Y-138506597D01*
X217999040Y-139355125D01*
X217009090Y-140345075D01*
X217009090Y-140345075D01*
G37*
D18*
X215524166Y-140981471D03*
D12*
G36*
X215453455Y-141900710D02*
G01*
X214604927Y-141052182D01*
X215594877Y-140062232D01*
X216443405Y-140910760D01*
X215453455Y-141900710D01*
X215453455Y-141900710D01*
G37*
G36*
X211772743Y-141497903D02*
G01*
X211796404Y-141501413D01*
X211819608Y-141507225D01*
X211842130Y-141515283D01*
X211863754Y-141525511D01*
X211884271Y-141537808D01*
X211903484Y-141552058D01*
X211921208Y-141568122D01*
X212265923Y-141912837D01*
X212281987Y-141930561D01*
X212296237Y-141949774D01*
X212308534Y-141970291D01*
X212318762Y-141991915D01*
X212326820Y-142014437D01*
X212332632Y-142037641D01*
X212336142Y-142061302D01*
X212337316Y-142085194D01*
X212336142Y-142109086D01*
X212332632Y-142132747D01*
X212326820Y-142155951D01*
X212318762Y-142178473D01*
X212308534Y-142200097D01*
X212296237Y-142220614D01*
X212281987Y-142239827D01*
X212265923Y-142257551D01*
X211620688Y-142902786D01*
X211602964Y-142918850D01*
X211583751Y-142933100D01*
X211563234Y-142945397D01*
X211541610Y-142955625D01*
X211519088Y-142963683D01*
X211495884Y-142969495D01*
X211472223Y-142973005D01*
X211448331Y-142974179D01*
X211424439Y-142973005D01*
X211400778Y-142969495D01*
X211377574Y-142963683D01*
X211355052Y-142955625D01*
X211333428Y-142945397D01*
X211312911Y-142933100D01*
X211293698Y-142918850D01*
X211275974Y-142902786D01*
X210931259Y-142558071D01*
X210915195Y-142540347D01*
X210900945Y-142521134D01*
X210888648Y-142500617D01*
X210878420Y-142478993D01*
X210870362Y-142456471D01*
X210864550Y-142433267D01*
X210861040Y-142409606D01*
X210859866Y-142385714D01*
X210861040Y-142361822D01*
X210864550Y-142338161D01*
X210870362Y-142314957D01*
X210878420Y-142292435D01*
X210888648Y-142270811D01*
X210900945Y-142250294D01*
X210915195Y-142231081D01*
X210931259Y-142213357D01*
X211576494Y-141568122D01*
X211594218Y-141552058D01*
X211613431Y-141537808D01*
X211633948Y-141525511D01*
X211655572Y-141515283D01*
X211678094Y-141507225D01*
X211701298Y-141501413D01*
X211724959Y-141497903D01*
X211748851Y-141496729D01*
X211772743Y-141497903D01*
X211772743Y-141497903D01*
G37*
D15*
X211598591Y-142235454D03*
D12*
G36*
X213098569Y-142823729D02*
G01*
X213122230Y-142827239D01*
X213145434Y-142833051D01*
X213167956Y-142841109D01*
X213189580Y-142851337D01*
X213210097Y-142863634D01*
X213229310Y-142877884D01*
X213247034Y-142893948D01*
X213591749Y-143238663D01*
X213607813Y-143256387D01*
X213622063Y-143275600D01*
X213634360Y-143296117D01*
X213644588Y-143317741D01*
X213652646Y-143340263D01*
X213658458Y-143363467D01*
X213661968Y-143387128D01*
X213663142Y-143411020D01*
X213661968Y-143434912D01*
X213658458Y-143458573D01*
X213652646Y-143481777D01*
X213644588Y-143504299D01*
X213634360Y-143525923D01*
X213622063Y-143546440D01*
X213607813Y-143565653D01*
X213591749Y-143583377D01*
X212946514Y-144228612D01*
X212928790Y-144244676D01*
X212909577Y-144258926D01*
X212889060Y-144271223D01*
X212867436Y-144281451D01*
X212844914Y-144289509D01*
X212821710Y-144295321D01*
X212798049Y-144298831D01*
X212774157Y-144300005D01*
X212750265Y-144298831D01*
X212726604Y-144295321D01*
X212703400Y-144289509D01*
X212680878Y-144281451D01*
X212659254Y-144271223D01*
X212638737Y-144258926D01*
X212619524Y-144244676D01*
X212601800Y-144228612D01*
X212257085Y-143883897D01*
X212241021Y-143866173D01*
X212226771Y-143846960D01*
X212214474Y-143826443D01*
X212204246Y-143804819D01*
X212196188Y-143782297D01*
X212190376Y-143759093D01*
X212186866Y-143735432D01*
X212185692Y-143711540D01*
X212186866Y-143687648D01*
X212190376Y-143663987D01*
X212196188Y-143640783D01*
X212204246Y-143618261D01*
X212214474Y-143596637D01*
X212226771Y-143576120D01*
X212241021Y-143556907D01*
X212257085Y-143539183D01*
X212902320Y-142893948D01*
X212920044Y-142877884D01*
X212939257Y-142863634D01*
X212959774Y-142851337D01*
X212981398Y-142841109D01*
X213003920Y-142833051D01*
X213027124Y-142827239D01*
X213050785Y-142823729D01*
X213074677Y-142822555D01*
X213098569Y-142823729D01*
X213098569Y-142823729D01*
G37*
D15*
X212924417Y-143561280D03*
D19*
X206075928Y-105906750D03*
X205125928Y-105906750D03*
X207025928Y-105906750D03*
X207025928Y-103706750D03*
X206075928Y-103706750D03*
X205125928Y-103706750D03*
D12*
G36*
X196951167Y-132748421D02*
G01*
X196974828Y-132751931D01*
X196998032Y-132757743D01*
X197020554Y-132765801D01*
X197042178Y-132776029D01*
X197062695Y-132788326D01*
X197081908Y-132802576D01*
X197099632Y-132818640D01*
X197444347Y-133163355D01*
X197460411Y-133181079D01*
X197474661Y-133200292D01*
X197486958Y-133220809D01*
X197497186Y-133242433D01*
X197505244Y-133264955D01*
X197511056Y-133288159D01*
X197514566Y-133311820D01*
X197515740Y-133335712D01*
X197514566Y-133359604D01*
X197511056Y-133383265D01*
X197505244Y-133406469D01*
X197497186Y-133428991D01*
X197486958Y-133450615D01*
X197474661Y-133471132D01*
X197460411Y-133490345D01*
X197444347Y-133508069D01*
X196799112Y-134153304D01*
X196781388Y-134169368D01*
X196762175Y-134183618D01*
X196741658Y-134195915D01*
X196720034Y-134206143D01*
X196697512Y-134214201D01*
X196674308Y-134220013D01*
X196650647Y-134223523D01*
X196626755Y-134224697D01*
X196602863Y-134223523D01*
X196579202Y-134220013D01*
X196555998Y-134214201D01*
X196533476Y-134206143D01*
X196511852Y-134195915D01*
X196491335Y-134183618D01*
X196472122Y-134169368D01*
X196454398Y-134153304D01*
X196109683Y-133808589D01*
X196093619Y-133790865D01*
X196079369Y-133771652D01*
X196067072Y-133751135D01*
X196056844Y-133729511D01*
X196048786Y-133706989D01*
X196042974Y-133683785D01*
X196039464Y-133660124D01*
X196038290Y-133636232D01*
X196039464Y-133612340D01*
X196042974Y-133588679D01*
X196048786Y-133565475D01*
X196056844Y-133542953D01*
X196067072Y-133521329D01*
X196079369Y-133500812D01*
X196093619Y-133481599D01*
X196109683Y-133463875D01*
X196754918Y-132818640D01*
X196772642Y-132802576D01*
X196791855Y-132788326D01*
X196812372Y-132776029D01*
X196833996Y-132765801D01*
X196856518Y-132757743D01*
X196879722Y-132751931D01*
X196903383Y-132748421D01*
X196927275Y-132747247D01*
X196951167Y-132748421D01*
X196951167Y-132748421D01*
G37*
D15*
X196777015Y-133485972D03*
D12*
G36*
X198276993Y-134074247D02*
G01*
X198300654Y-134077757D01*
X198323858Y-134083569D01*
X198346380Y-134091627D01*
X198368004Y-134101855D01*
X198388521Y-134114152D01*
X198407734Y-134128402D01*
X198425458Y-134144466D01*
X198770173Y-134489181D01*
X198786237Y-134506905D01*
X198800487Y-134526118D01*
X198812784Y-134546635D01*
X198823012Y-134568259D01*
X198831070Y-134590781D01*
X198836882Y-134613985D01*
X198840392Y-134637646D01*
X198841566Y-134661538D01*
X198840392Y-134685430D01*
X198836882Y-134709091D01*
X198831070Y-134732295D01*
X198823012Y-134754817D01*
X198812784Y-134776441D01*
X198800487Y-134796958D01*
X198786237Y-134816171D01*
X198770173Y-134833895D01*
X198124938Y-135479130D01*
X198107214Y-135495194D01*
X198088001Y-135509444D01*
X198067484Y-135521741D01*
X198045860Y-135531969D01*
X198023338Y-135540027D01*
X198000134Y-135545839D01*
X197976473Y-135549349D01*
X197952581Y-135550523D01*
X197928689Y-135549349D01*
X197905028Y-135545839D01*
X197881824Y-135540027D01*
X197859302Y-135531969D01*
X197837678Y-135521741D01*
X197817161Y-135509444D01*
X197797948Y-135495194D01*
X197780224Y-135479130D01*
X197435509Y-135134415D01*
X197419445Y-135116691D01*
X197405195Y-135097478D01*
X197392898Y-135076961D01*
X197382670Y-135055337D01*
X197374612Y-135032815D01*
X197368800Y-135009611D01*
X197365290Y-134985950D01*
X197364116Y-134962058D01*
X197365290Y-134938166D01*
X197368800Y-134914505D01*
X197374612Y-134891301D01*
X197382670Y-134868779D01*
X197392898Y-134847155D01*
X197405195Y-134826638D01*
X197419445Y-134807425D01*
X197435509Y-134789701D01*
X198080744Y-134144466D01*
X198098468Y-134128402D01*
X198117681Y-134114152D01*
X198138198Y-134101855D01*
X198159822Y-134091627D01*
X198182344Y-134083569D01*
X198205548Y-134077757D01*
X198229209Y-134074247D01*
X198253101Y-134073073D01*
X198276993Y-134074247D01*
X198276993Y-134074247D01*
G37*
D15*
X198102841Y-134811798D03*
D12*
G36*
X207693820Y-144372059D02*
G01*
X207717481Y-144375569D01*
X207740685Y-144381381D01*
X207763207Y-144389439D01*
X207784831Y-144399667D01*
X207805348Y-144411964D01*
X207824561Y-144426214D01*
X207842285Y-144442278D01*
X207858349Y-144460002D01*
X207872599Y-144479215D01*
X207884896Y-144499732D01*
X207895124Y-144521356D01*
X207903182Y-144543878D01*
X207908994Y-144567082D01*
X207912504Y-144590743D01*
X207913678Y-144614635D01*
X207913678Y-145527135D01*
X207912504Y-145551027D01*
X207908994Y-145574688D01*
X207903182Y-145597892D01*
X207895124Y-145620414D01*
X207884896Y-145642038D01*
X207872599Y-145662555D01*
X207858349Y-145681768D01*
X207842285Y-145699492D01*
X207824561Y-145715556D01*
X207805348Y-145729806D01*
X207784831Y-145742103D01*
X207763207Y-145752331D01*
X207740685Y-145760389D01*
X207717481Y-145766201D01*
X207693820Y-145769711D01*
X207669928Y-145770885D01*
X207182428Y-145770885D01*
X207158536Y-145769711D01*
X207134875Y-145766201D01*
X207111671Y-145760389D01*
X207089149Y-145752331D01*
X207067525Y-145742103D01*
X207047008Y-145729806D01*
X207027795Y-145715556D01*
X207010071Y-145699492D01*
X206994007Y-145681768D01*
X206979757Y-145662555D01*
X206967460Y-145642038D01*
X206957232Y-145620414D01*
X206949174Y-145597892D01*
X206943362Y-145574688D01*
X206939852Y-145551027D01*
X206938678Y-145527135D01*
X206938678Y-144614635D01*
X206939852Y-144590743D01*
X206943362Y-144567082D01*
X206949174Y-144543878D01*
X206957232Y-144521356D01*
X206967460Y-144499732D01*
X206979757Y-144479215D01*
X206994007Y-144460002D01*
X207010071Y-144442278D01*
X207027795Y-144426214D01*
X207047008Y-144411964D01*
X207067525Y-144399667D01*
X207089149Y-144389439D01*
X207111671Y-144381381D01*
X207134875Y-144375569D01*
X207158536Y-144372059D01*
X207182428Y-144370885D01*
X207669928Y-144370885D01*
X207693820Y-144372059D01*
X207693820Y-144372059D01*
G37*
D15*
X207426178Y-145070885D03*
D12*
G36*
X205818820Y-144372059D02*
G01*
X205842481Y-144375569D01*
X205865685Y-144381381D01*
X205888207Y-144389439D01*
X205909831Y-144399667D01*
X205930348Y-144411964D01*
X205949561Y-144426214D01*
X205967285Y-144442278D01*
X205983349Y-144460002D01*
X205997599Y-144479215D01*
X206009896Y-144499732D01*
X206020124Y-144521356D01*
X206028182Y-144543878D01*
X206033994Y-144567082D01*
X206037504Y-144590743D01*
X206038678Y-144614635D01*
X206038678Y-145527135D01*
X206037504Y-145551027D01*
X206033994Y-145574688D01*
X206028182Y-145597892D01*
X206020124Y-145620414D01*
X206009896Y-145642038D01*
X205997599Y-145662555D01*
X205983349Y-145681768D01*
X205967285Y-145699492D01*
X205949561Y-145715556D01*
X205930348Y-145729806D01*
X205909831Y-145742103D01*
X205888207Y-145752331D01*
X205865685Y-145760389D01*
X205842481Y-145766201D01*
X205818820Y-145769711D01*
X205794928Y-145770885D01*
X205307428Y-145770885D01*
X205283536Y-145769711D01*
X205259875Y-145766201D01*
X205236671Y-145760389D01*
X205214149Y-145752331D01*
X205192525Y-145742103D01*
X205172008Y-145729806D01*
X205152795Y-145715556D01*
X205135071Y-145699492D01*
X205119007Y-145681768D01*
X205104757Y-145662555D01*
X205092460Y-145642038D01*
X205082232Y-145620414D01*
X205074174Y-145597892D01*
X205068362Y-145574688D01*
X205064852Y-145551027D01*
X205063678Y-145527135D01*
X205063678Y-144614635D01*
X205064852Y-144590743D01*
X205068362Y-144567082D01*
X205074174Y-144543878D01*
X205082232Y-144521356D01*
X205092460Y-144499732D01*
X205104757Y-144479215D01*
X205119007Y-144460002D01*
X205135071Y-144442278D01*
X205152795Y-144426214D01*
X205172008Y-144411964D01*
X205192525Y-144399667D01*
X205214149Y-144389439D01*
X205236671Y-144381381D01*
X205259875Y-144375569D01*
X205283536Y-144372059D01*
X205307428Y-144370885D01*
X205794928Y-144370885D01*
X205818820Y-144372059D01*
X205818820Y-144372059D01*
G37*
D15*
X205551178Y-145070885D03*
D12*
G36*
X207871142Y-109224924D02*
G01*
X207894803Y-109228434D01*
X207918007Y-109234246D01*
X207940529Y-109242304D01*
X207962153Y-109252532D01*
X207982670Y-109264829D01*
X208001883Y-109279079D01*
X208019607Y-109295143D01*
X208035671Y-109312867D01*
X208049921Y-109332080D01*
X208062218Y-109352597D01*
X208072446Y-109374221D01*
X208080504Y-109396743D01*
X208086316Y-109419947D01*
X208089826Y-109443608D01*
X208091000Y-109467500D01*
X208091000Y-109955000D01*
X208089826Y-109978892D01*
X208086316Y-110002553D01*
X208080504Y-110025757D01*
X208072446Y-110048279D01*
X208062218Y-110069903D01*
X208049921Y-110090420D01*
X208035671Y-110109633D01*
X208019607Y-110127357D01*
X208001883Y-110143421D01*
X207982670Y-110157671D01*
X207962153Y-110169968D01*
X207940529Y-110180196D01*
X207918007Y-110188254D01*
X207894803Y-110194066D01*
X207871142Y-110197576D01*
X207847250Y-110198750D01*
X206934750Y-110198750D01*
X206910858Y-110197576D01*
X206887197Y-110194066D01*
X206863993Y-110188254D01*
X206841471Y-110180196D01*
X206819847Y-110169968D01*
X206799330Y-110157671D01*
X206780117Y-110143421D01*
X206762393Y-110127357D01*
X206746329Y-110109633D01*
X206732079Y-110090420D01*
X206719782Y-110069903D01*
X206709554Y-110048279D01*
X206701496Y-110025757D01*
X206695684Y-110002553D01*
X206692174Y-109978892D01*
X206691000Y-109955000D01*
X206691000Y-109467500D01*
X206692174Y-109443608D01*
X206695684Y-109419947D01*
X206701496Y-109396743D01*
X206709554Y-109374221D01*
X206719782Y-109352597D01*
X206732079Y-109332080D01*
X206746329Y-109312867D01*
X206762393Y-109295143D01*
X206780117Y-109279079D01*
X206799330Y-109264829D01*
X206819847Y-109252532D01*
X206841471Y-109242304D01*
X206863993Y-109234246D01*
X206887197Y-109228434D01*
X206910858Y-109224924D01*
X206934750Y-109223750D01*
X207847250Y-109223750D01*
X207871142Y-109224924D01*
X207871142Y-109224924D01*
G37*
D15*
X207391000Y-109711250D03*
D12*
G36*
X207871142Y-111099924D02*
G01*
X207894803Y-111103434D01*
X207918007Y-111109246D01*
X207940529Y-111117304D01*
X207962153Y-111127532D01*
X207982670Y-111139829D01*
X208001883Y-111154079D01*
X208019607Y-111170143D01*
X208035671Y-111187867D01*
X208049921Y-111207080D01*
X208062218Y-111227597D01*
X208072446Y-111249221D01*
X208080504Y-111271743D01*
X208086316Y-111294947D01*
X208089826Y-111318608D01*
X208091000Y-111342500D01*
X208091000Y-111830000D01*
X208089826Y-111853892D01*
X208086316Y-111877553D01*
X208080504Y-111900757D01*
X208072446Y-111923279D01*
X208062218Y-111944903D01*
X208049921Y-111965420D01*
X208035671Y-111984633D01*
X208019607Y-112002357D01*
X208001883Y-112018421D01*
X207982670Y-112032671D01*
X207962153Y-112044968D01*
X207940529Y-112055196D01*
X207918007Y-112063254D01*
X207894803Y-112069066D01*
X207871142Y-112072576D01*
X207847250Y-112073750D01*
X206934750Y-112073750D01*
X206910858Y-112072576D01*
X206887197Y-112069066D01*
X206863993Y-112063254D01*
X206841471Y-112055196D01*
X206819847Y-112044968D01*
X206799330Y-112032671D01*
X206780117Y-112018421D01*
X206762393Y-112002357D01*
X206746329Y-111984633D01*
X206732079Y-111965420D01*
X206719782Y-111944903D01*
X206709554Y-111923279D01*
X206701496Y-111900757D01*
X206695684Y-111877553D01*
X206692174Y-111853892D01*
X206691000Y-111830000D01*
X206691000Y-111342500D01*
X206692174Y-111318608D01*
X206695684Y-111294947D01*
X206701496Y-111271743D01*
X206709554Y-111249221D01*
X206719782Y-111227597D01*
X206732079Y-111207080D01*
X206746329Y-111187867D01*
X206762393Y-111170143D01*
X206780117Y-111154079D01*
X206799330Y-111139829D01*
X206819847Y-111127532D01*
X206841471Y-111117304D01*
X206863993Y-111109246D01*
X206887197Y-111103434D01*
X206910858Y-111099924D01*
X206934750Y-111098750D01*
X207847250Y-111098750D01*
X207871142Y-111099924D01*
X207871142Y-111099924D01*
G37*
D15*
X207391000Y-111586250D03*
D12*
G36*
X205204142Y-109224924D02*
G01*
X205227803Y-109228434D01*
X205251007Y-109234246D01*
X205273529Y-109242304D01*
X205295153Y-109252532D01*
X205315670Y-109264829D01*
X205334883Y-109279079D01*
X205352607Y-109295143D01*
X205368671Y-109312867D01*
X205382921Y-109332080D01*
X205395218Y-109352597D01*
X205405446Y-109374221D01*
X205413504Y-109396743D01*
X205419316Y-109419947D01*
X205422826Y-109443608D01*
X205424000Y-109467500D01*
X205424000Y-109955000D01*
X205422826Y-109978892D01*
X205419316Y-110002553D01*
X205413504Y-110025757D01*
X205405446Y-110048279D01*
X205395218Y-110069903D01*
X205382921Y-110090420D01*
X205368671Y-110109633D01*
X205352607Y-110127357D01*
X205334883Y-110143421D01*
X205315670Y-110157671D01*
X205295153Y-110169968D01*
X205273529Y-110180196D01*
X205251007Y-110188254D01*
X205227803Y-110194066D01*
X205204142Y-110197576D01*
X205180250Y-110198750D01*
X204267750Y-110198750D01*
X204243858Y-110197576D01*
X204220197Y-110194066D01*
X204196993Y-110188254D01*
X204174471Y-110180196D01*
X204152847Y-110169968D01*
X204132330Y-110157671D01*
X204113117Y-110143421D01*
X204095393Y-110127357D01*
X204079329Y-110109633D01*
X204065079Y-110090420D01*
X204052782Y-110069903D01*
X204042554Y-110048279D01*
X204034496Y-110025757D01*
X204028684Y-110002553D01*
X204025174Y-109978892D01*
X204024000Y-109955000D01*
X204024000Y-109467500D01*
X204025174Y-109443608D01*
X204028684Y-109419947D01*
X204034496Y-109396743D01*
X204042554Y-109374221D01*
X204052782Y-109352597D01*
X204065079Y-109332080D01*
X204079329Y-109312867D01*
X204095393Y-109295143D01*
X204113117Y-109279079D01*
X204132330Y-109264829D01*
X204152847Y-109252532D01*
X204174471Y-109242304D01*
X204196993Y-109234246D01*
X204220197Y-109228434D01*
X204243858Y-109224924D01*
X204267750Y-109223750D01*
X205180250Y-109223750D01*
X205204142Y-109224924D01*
X205204142Y-109224924D01*
G37*
D15*
X204724000Y-109711250D03*
D12*
G36*
X205204142Y-111099924D02*
G01*
X205227803Y-111103434D01*
X205251007Y-111109246D01*
X205273529Y-111117304D01*
X205295153Y-111127532D01*
X205315670Y-111139829D01*
X205334883Y-111154079D01*
X205352607Y-111170143D01*
X205368671Y-111187867D01*
X205382921Y-111207080D01*
X205395218Y-111227597D01*
X205405446Y-111249221D01*
X205413504Y-111271743D01*
X205419316Y-111294947D01*
X205422826Y-111318608D01*
X205424000Y-111342500D01*
X205424000Y-111830000D01*
X205422826Y-111853892D01*
X205419316Y-111877553D01*
X205413504Y-111900757D01*
X205405446Y-111923279D01*
X205395218Y-111944903D01*
X205382921Y-111965420D01*
X205368671Y-111984633D01*
X205352607Y-112002357D01*
X205334883Y-112018421D01*
X205315670Y-112032671D01*
X205295153Y-112044968D01*
X205273529Y-112055196D01*
X205251007Y-112063254D01*
X205227803Y-112069066D01*
X205204142Y-112072576D01*
X205180250Y-112073750D01*
X204267750Y-112073750D01*
X204243858Y-112072576D01*
X204220197Y-112069066D01*
X204196993Y-112063254D01*
X204174471Y-112055196D01*
X204152847Y-112044968D01*
X204132330Y-112032671D01*
X204113117Y-112018421D01*
X204095393Y-112002357D01*
X204079329Y-111984633D01*
X204065079Y-111965420D01*
X204052782Y-111944903D01*
X204042554Y-111923279D01*
X204034496Y-111900757D01*
X204028684Y-111877553D01*
X204025174Y-111853892D01*
X204024000Y-111830000D01*
X204024000Y-111342500D01*
X204025174Y-111318608D01*
X204028684Y-111294947D01*
X204034496Y-111271743D01*
X204042554Y-111249221D01*
X204052782Y-111227597D01*
X204065079Y-111207080D01*
X204079329Y-111187867D01*
X204095393Y-111170143D01*
X204113117Y-111154079D01*
X204132330Y-111139829D01*
X204152847Y-111127532D01*
X204174471Y-111117304D01*
X204196993Y-111109246D01*
X204220197Y-111103434D01*
X204243858Y-111099924D01*
X204267750Y-111098750D01*
X205180250Y-111098750D01*
X205204142Y-111099924D01*
X205204142Y-111099924D01*
G37*
D15*
X204724000Y-111586250D03*
D12*
G36*
X198851432Y-103835839D02*
G01*
X198875701Y-103839439D01*
X198899499Y-103845400D01*
X198922599Y-103853665D01*
X198944777Y-103864155D01*
X198965821Y-103876768D01*
X198985526Y-103891382D01*
X199003705Y-103907858D01*
X199020181Y-103926037D01*
X199034795Y-103945742D01*
X199047408Y-103966786D01*
X199057898Y-103988964D01*
X199066163Y-104012064D01*
X199072124Y-104035862D01*
X199075724Y-104060131D01*
X199076928Y-104084635D01*
X199076928Y-104834635D01*
X199075724Y-104859139D01*
X199072124Y-104883408D01*
X199066163Y-104907206D01*
X199057898Y-104930306D01*
X199047408Y-104952484D01*
X199034795Y-104973528D01*
X199020181Y-104993233D01*
X199003705Y-105011412D01*
X198985526Y-105027888D01*
X198965821Y-105042502D01*
X198944777Y-105055115D01*
X198922599Y-105065605D01*
X198899499Y-105073870D01*
X198875701Y-105079831D01*
X198851432Y-105083431D01*
X198826928Y-105084635D01*
X197576928Y-105084635D01*
X197552424Y-105083431D01*
X197528155Y-105079831D01*
X197504357Y-105073870D01*
X197481257Y-105065605D01*
X197459079Y-105055115D01*
X197438035Y-105042502D01*
X197418330Y-105027888D01*
X197400151Y-105011412D01*
X197383675Y-104993233D01*
X197369061Y-104973528D01*
X197356448Y-104952484D01*
X197345958Y-104930306D01*
X197337693Y-104907206D01*
X197331732Y-104883408D01*
X197328132Y-104859139D01*
X197326928Y-104834635D01*
X197326928Y-104084635D01*
X197328132Y-104060131D01*
X197331732Y-104035862D01*
X197337693Y-104012064D01*
X197345958Y-103988964D01*
X197356448Y-103966786D01*
X197369061Y-103945742D01*
X197383675Y-103926037D01*
X197400151Y-103907858D01*
X197418330Y-103891382D01*
X197438035Y-103876768D01*
X197459079Y-103864155D01*
X197481257Y-103853665D01*
X197504357Y-103845400D01*
X197528155Y-103839439D01*
X197552424Y-103835839D01*
X197576928Y-103834635D01*
X198826928Y-103834635D01*
X198851432Y-103835839D01*
X198851432Y-103835839D01*
G37*
D20*
X198201928Y-104459635D03*
D12*
G36*
X198851432Y-106635839D02*
G01*
X198875701Y-106639439D01*
X198899499Y-106645400D01*
X198922599Y-106653665D01*
X198944777Y-106664155D01*
X198965821Y-106676768D01*
X198985526Y-106691382D01*
X199003705Y-106707858D01*
X199020181Y-106726037D01*
X199034795Y-106745742D01*
X199047408Y-106766786D01*
X199057898Y-106788964D01*
X199066163Y-106812064D01*
X199072124Y-106835862D01*
X199075724Y-106860131D01*
X199076928Y-106884635D01*
X199076928Y-107634635D01*
X199075724Y-107659139D01*
X199072124Y-107683408D01*
X199066163Y-107707206D01*
X199057898Y-107730306D01*
X199047408Y-107752484D01*
X199034795Y-107773528D01*
X199020181Y-107793233D01*
X199003705Y-107811412D01*
X198985526Y-107827888D01*
X198965821Y-107842502D01*
X198944777Y-107855115D01*
X198922599Y-107865605D01*
X198899499Y-107873870D01*
X198875701Y-107879831D01*
X198851432Y-107883431D01*
X198826928Y-107884635D01*
X197576928Y-107884635D01*
X197552424Y-107883431D01*
X197528155Y-107879831D01*
X197504357Y-107873870D01*
X197481257Y-107865605D01*
X197459079Y-107855115D01*
X197438035Y-107842502D01*
X197418330Y-107827888D01*
X197400151Y-107811412D01*
X197383675Y-107793233D01*
X197369061Y-107773528D01*
X197356448Y-107752484D01*
X197345958Y-107730306D01*
X197337693Y-107707206D01*
X197331732Y-107683408D01*
X197328132Y-107659139D01*
X197326928Y-107634635D01*
X197326928Y-106884635D01*
X197328132Y-106860131D01*
X197331732Y-106835862D01*
X197337693Y-106812064D01*
X197345958Y-106788964D01*
X197356448Y-106766786D01*
X197369061Y-106745742D01*
X197383675Y-106726037D01*
X197400151Y-106707858D01*
X197418330Y-106691382D01*
X197438035Y-106676768D01*
X197459079Y-106664155D01*
X197481257Y-106653665D01*
X197504357Y-106645400D01*
X197528155Y-106639439D01*
X197552424Y-106635839D01*
X197576928Y-106634635D01*
X198826928Y-106634635D01*
X198851432Y-106635839D01*
X198851432Y-106635839D01*
G37*
D20*
X198201928Y-107259635D03*
D21*
X362566598Y-132021365D03*
X362566598Y-135321365D03*
X370181518Y-116235805D03*
X370181518Y-112935805D03*
X348754078Y-170141685D03*
X348754078Y-173441685D03*
X353524198Y-151096765D03*
X353524198Y-154396765D03*
X351136598Y-112900245D03*
X351136598Y-116200245D03*
X324928878Y-170187405D03*
X324928878Y-173487405D03*
X332091678Y-151086605D03*
X332091678Y-154386605D03*
X338756638Y-132031525D03*
X338756638Y-135331525D03*
X332086598Y-112935805D03*
X332086598Y-116235805D03*
X313036598Y-151035805D03*
X313036598Y-154335805D03*
X319706638Y-132092485D03*
X319706638Y-135392485D03*
X313041678Y-111985845D03*
X313041678Y-115285845D03*
D11*
X291902381Y-151311007D03*
D12*
G36*
X292571407Y-151649982D02*
G01*
X291389638Y-151858359D01*
X291233355Y-150972032D01*
X292415124Y-150763655D01*
X292571407Y-151649982D01*
X292571407Y-151649982D01*
G37*
D11*
X292475419Y-154560873D03*
D12*
G36*
X293144445Y-154899848D02*
G01*
X291962676Y-155108225D01*
X291806393Y-154221898D01*
X292988162Y-154013521D01*
X293144445Y-154899848D01*
X293144445Y-154899848D01*
G37*
D11*
X289997381Y-112957007D03*
D12*
G36*
X290666407Y-113295982D02*
G01*
X289484638Y-113504359D01*
X289328355Y-112618032D01*
X290510124Y-112409655D01*
X290666407Y-113295982D01*
X290666407Y-113295982D01*
G37*
D11*
X290570419Y-116206873D03*
D12*
G36*
X291239445Y-116545848D02*
G01*
X290057676Y-116754225D01*
X289901393Y-115867898D01*
X291083162Y-115659521D01*
X291239445Y-116545848D01*
X291239445Y-116545848D01*
G37*
D11*
X273106381Y-154613007D03*
D12*
G36*
X273775407Y-154951982D02*
G01*
X272593638Y-155160359D01*
X272437355Y-154274032D01*
X273619124Y-154065655D01*
X273775407Y-154951982D01*
X273775407Y-154951982D01*
G37*
D11*
X273679419Y-157862873D03*
D12*
G36*
X274348445Y-158201848D02*
G01*
X273166676Y-158410225D01*
X273010393Y-157523898D01*
X274192162Y-157315521D01*
X274348445Y-158201848D01*
X274348445Y-158201848D01*
G37*
D11*
X279202381Y-134166007D03*
D12*
G36*
X279871407Y-134504982D02*
G01*
X278689638Y-134713359D01*
X278533355Y-133827032D01*
X279715124Y-133618655D01*
X279871407Y-134504982D01*
X279871407Y-134504982D01*
G37*
D11*
X279775419Y-137415873D03*
D12*
G36*
X280444445Y-137754848D02*
G01*
X279262676Y-137963225D01*
X279106393Y-137076898D01*
X280288162Y-136868521D01*
X280444445Y-137754848D01*
X280444445Y-137754848D01*
G37*
D11*
X271201381Y-116259007D03*
D12*
G36*
X271870407Y-116597982D02*
G01*
X270688638Y-116806359D01*
X270532355Y-115920032D01*
X271714124Y-115711655D01*
X271870407Y-116597982D01*
X271870407Y-116597982D01*
G37*
D11*
X271774419Y-119508873D03*
D12*
G36*
X272443445Y-119847848D02*
G01*
X271261676Y-120056225D01*
X271105393Y-119169898D01*
X272287162Y-118961521D01*
X272443445Y-119847848D01*
X272443445Y-119847848D01*
G37*
D11*
X255224159Y-176973952D03*
D12*
G36*
X255893185Y-177312927D02*
G01*
X254711416Y-177521304D01*
X254555133Y-176634977D01*
X255736902Y-176426600D01*
X255893185Y-177312927D01*
X255893185Y-177312927D01*
G37*
D11*
X255797197Y-180223818D03*
D12*
G36*
X256466223Y-180562793D02*
G01*
X255284454Y-180771170D01*
X255128171Y-179884843D01*
X256309940Y-179676466D01*
X256466223Y-180562793D01*
X256466223Y-180562793D01*
G37*
D11*
X254310381Y-157915007D03*
D12*
G36*
X254979407Y-158253982D02*
G01*
X253797638Y-158462359D01*
X253641355Y-157576032D01*
X254823124Y-157367655D01*
X254979407Y-158253982D01*
X254979407Y-158253982D01*
G37*
D11*
X254883419Y-161164873D03*
D12*
G36*
X255552445Y-161503848D02*
G01*
X254370676Y-161712225D01*
X254214393Y-160825898D01*
X255396162Y-160617521D01*
X255552445Y-161503848D01*
X255552445Y-161503848D01*
G37*
D11*
X252405381Y-119561007D03*
D12*
G36*
X253074407Y-119899982D02*
G01*
X251892638Y-120108359D01*
X251736355Y-119222032D01*
X252918124Y-119013655D01*
X253074407Y-119899982D01*
X253074407Y-119899982D01*
G37*
D11*
X252978419Y-122810873D03*
D12*
G36*
X253647445Y-123149848D02*
G01*
X252465676Y-123358225D01*
X252309393Y-122471898D01*
X253491162Y-122263521D01*
X253647445Y-123149848D01*
X253647445Y-123149848D01*
G37*
D11*
X235514381Y-161217007D03*
D12*
G36*
X236183407Y-161555982D02*
G01*
X235001638Y-161764359D01*
X234845355Y-160878032D01*
X236027124Y-160669655D01*
X236183407Y-161555982D01*
X236183407Y-161555982D01*
G37*
D11*
X236087419Y-164466873D03*
D12*
G36*
X236756445Y-164805848D02*
G01*
X235574676Y-165014225D01*
X235418393Y-164127898D01*
X236600162Y-163919521D01*
X236756445Y-164805848D01*
X236756445Y-164805848D01*
G37*
D11*
X241610381Y-140770007D03*
D12*
G36*
X242279407Y-141108982D02*
G01*
X241097638Y-141317359D01*
X240941355Y-140431032D01*
X242123124Y-140222655D01*
X242279407Y-141108982D01*
X242279407Y-141108982D01*
G37*
D11*
X242183419Y-144019873D03*
D12*
G36*
X242852445Y-144358848D02*
G01*
X241670676Y-144567225D01*
X241514393Y-143680898D01*
X242696162Y-143472521D01*
X242852445Y-144358848D01*
X242852445Y-144358848D01*
G37*
D11*
X233609381Y-122863007D03*
D12*
G36*
X234278407Y-123201982D02*
G01*
X233096638Y-123410359D01*
X232940355Y-122524032D01*
X234122124Y-122315655D01*
X234278407Y-123201982D01*
X234278407Y-123201982D01*
G37*
D11*
X234182419Y-126112873D03*
D12*
G36*
X234851445Y-126451848D02*
G01*
X233669676Y-126660225D01*
X233513393Y-125773898D01*
X234695162Y-125565521D01*
X234851445Y-126451848D01*
X234851445Y-126451848D01*
G37*
D11*
X200248019Y-164427567D03*
D12*
G36*
X200760762Y-164974919D02*
G01*
X199578993Y-164766542D01*
X199735276Y-163880215D01*
X200917045Y-164088592D01*
X200760762Y-164974919D01*
X200760762Y-164974919D01*
G37*
D11*
X199674981Y-167677433D03*
D12*
G36*
X200187724Y-168224785D02*
G01*
X199005955Y-168016408D01*
X199162238Y-167130081D01*
X200344007Y-167338458D01*
X200187724Y-168224785D01*
X200187724Y-168224785D01*
G37*
D11*
X194152019Y-143980567D03*
D12*
G36*
X194664762Y-144527919D02*
G01*
X193482993Y-144319542D01*
X193639276Y-143433215D01*
X194821045Y-143641592D01*
X194664762Y-144527919D01*
X194664762Y-144527919D01*
G37*
D11*
X193578981Y-147230433D03*
D12*
G36*
X194091724Y-147777785D02*
G01*
X192909955Y-147569408D01*
X193066238Y-146683081D01*
X194248007Y-146891458D01*
X194091724Y-147777785D01*
X194091724Y-147777785D01*
G37*
D11*
X192755019Y-124422567D03*
D12*
G36*
X193267762Y-124969919D02*
G01*
X192085993Y-124761542D01*
X192242276Y-123875215D01*
X193424045Y-124083592D01*
X193267762Y-124969919D01*
X193267762Y-124969919D01*
G37*
D11*
X192181981Y-127672433D03*
D12*
G36*
X192694724Y-128219785D02*
G01*
X191512955Y-128011408D01*
X191669238Y-127125081D01*
X192851007Y-127333458D01*
X192694724Y-128219785D01*
X192694724Y-128219785D01*
G37*
D11*
X185185197Y-180783952D03*
D12*
G36*
X185697940Y-181331304D02*
G01*
X184516171Y-181122927D01*
X184672454Y-180236600D01*
X185854223Y-180444977D01*
X185697940Y-181331304D01*
X185697940Y-181331304D01*
G37*
D11*
X184612159Y-184033818D03*
D12*
G36*
X185124902Y-184581170D02*
G01*
X183943133Y-184372793D01*
X184099416Y-183486466D01*
X185281185Y-183694843D01*
X185124902Y-184581170D01*
X185124902Y-184581170D01*
G37*
D11*
X175356019Y-140678567D03*
D12*
G36*
X175868762Y-141225919D02*
G01*
X174686993Y-141017542D01*
X174843276Y-140131215D01*
X176025045Y-140339592D01*
X175868762Y-141225919D01*
X175868762Y-141225919D01*
G37*
D11*
X174782981Y-143928433D03*
D12*
G36*
X175295724Y-144475785D02*
G01*
X174113955Y-144267408D01*
X174270238Y-143381081D01*
X175452007Y-143589458D01*
X175295724Y-144475785D01*
X175295724Y-144475785D01*
G37*
D11*
X173959019Y-121120567D03*
D12*
G36*
X174471762Y-121667919D02*
G01*
X173289993Y-121459542D01*
X173446276Y-120573215D01*
X174628045Y-120781592D01*
X174471762Y-121667919D01*
X174471762Y-121667919D01*
G37*
D11*
X173385981Y-124370433D03*
D12*
G36*
X173898724Y-124917785D02*
G01*
X172716955Y-124709408D01*
X172873238Y-123823081D01*
X174055007Y-124031458D01*
X173898724Y-124917785D01*
X173898724Y-124917785D01*
G37*
D11*
X162681419Y-157823567D03*
D12*
G36*
X163194162Y-158370919D02*
G01*
X162012393Y-158162542D01*
X162168676Y-157276215D01*
X163350445Y-157484592D01*
X163194162Y-158370919D01*
X163194162Y-158370919D01*
G37*
D11*
X162108381Y-161073433D03*
D12*
G36*
X162621124Y-161620785D02*
G01*
X161439355Y-161412408D01*
X161595638Y-160526081D01*
X162777407Y-160734458D01*
X162621124Y-161620785D01*
X162621124Y-161620785D01*
G37*
D11*
X156595579Y-137419747D03*
D12*
G36*
X157108322Y-137967099D02*
G01*
X155926553Y-137758722D01*
X156082836Y-136872395D01*
X157264605Y-137080772D01*
X157108322Y-137967099D01*
X157108322Y-137967099D01*
G37*
D11*
X156022541Y-140669613D03*
D12*
G36*
X156535284Y-141216965D02*
G01*
X155353515Y-141008588D01*
X155509798Y-140122261D01*
X156691567Y-140330638D01*
X156535284Y-141216965D01*
X156535284Y-141216965D01*
G37*
D11*
X155213819Y-117793167D03*
D12*
G36*
X155726562Y-118340519D02*
G01*
X154544793Y-118132142D01*
X154701076Y-117245815D01*
X155882845Y-117454192D01*
X155726562Y-118340519D01*
X155726562Y-118340519D01*
G37*
D11*
X154640781Y-121043033D03*
D12*
G36*
X155153524Y-121590385D02*
G01*
X153971755Y-121382008D01*
X154128038Y-120495681D01*
X155309807Y-120704058D01*
X155153524Y-121590385D01*
X155153524Y-121590385D01*
G37*
D11*
X147670019Y-174460567D03*
D12*
G36*
X148182762Y-175007919D02*
G01*
X147000993Y-174799542D01*
X147157276Y-173913215D01*
X148339045Y-174121592D01*
X148182762Y-175007919D01*
X148182762Y-175007919D01*
G37*
D11*
X147096981Y-177710433D03*
D12*
G36*
X147609724Y-178257785D02*
G01*
X146427955Y-178049408D01*
X146584238Y-177163081D01*
X147766007Y-177371458D01*
X147609724Y-178257785D01*
X147609724Y-178257785D01*
G37*
D11*
X143860019Y-154521567D03*
D12*
G36*
X144372762Y-155068919D02*
G01*
X143190993Y-154860542D01*
X143347276Y-153974215D01*
X144529045Y-154182592D01*
X144372762Y-155068919D01*
X144372762Y-155068919D01*
G37*
D11*
X143286981Y-157771433D03*
D12*
G36*
X143799724Y-158318785D02*
G01*
X142617955Y-158110408D01*
X142774238Y-157224081D01*
X143956007Y-157432458D01*
X143799724Y-158318785D01*
X143799724Y-158318785D01*
G37*
D11*
X136494019Y-114516567D03*
D12*
G36*
X137006762Y-115063919D02*
G01*
X135824993Y-114855542D01*
X135981276Y-113969215D01*
X137163045Y-114177592D01*
X137006762Y-115063919D01*
X137006762Y-115063919D01*
G37*
D11*
X135920981Y-117766433D03*
D12*
G36*
X136433724Y-118313785D02*
G01*
X135251955Y-118105408D01*
X135408238Y-117219081D01*
X136590007Y-117427458D01*
X136433724Y-118313785D01*
X136433724Y-118313785D01*
G37*
D21*
X115379500Y-170117500D03*
X115379500Y-173417500D03*
X122491500Y-151067500D03*
X122491500Y-154367500D03*
X115862100Y-131992100D03*
X115862100Y-135292100D03*
X112966500Y-112967500D03*
X112966500Y-116267500D03*
X91503500Y-170117500D03*
X91503500Y-173417500D03*
X96329500Y-151067500D03*
X96329500Y-154367500D03*
X94424500Y-132017500D03*
X94424500Y-135317500D03*
X93916500Y-112967500D03*
X93916500Y-116267500D03*
X60631718Y-146240285D03*
X60631718Y-149540285D03*
X65376438Y-127180125D03*
X65376438Y-130480125D03*
X70136398Y-108141500D03*
X70136398Y-111441500D03*
D12*
G36*
X202492647Y-119278747D02*
G01*
X202516308Y-119282257D01*
X202539512Y-119288069D01*
X202562034Y-119296127D01*
X202583658Y-119306355D01*
X202604175Y-119318652D01*
X202623388Y-119332902D01*
X202641112Y-119348966D01*
X203286347Y-119994201D01*
X203302411Y-120011925D01*
X203316661Y-120031138D01*
X203328958Y-120051655D01*
X203339186Y-120073279D01*
X203347244Y-120095801D01*
X203353056Y-120119005D01*
X203356566Y-120142666D01*
X203357740Y-120166558D01*
X203356566Y-120190450D01*
X203353056Y-120214111D01*
X203347244Y-120237315D01*
X203339186Y-120259837D01*
X203328958Y-120281461D01*
X203316661Y-120301978D01*
X203302411Y-120321191D01*
X203286347Y-120338915D01*
X202941632Y-120683630D01*
X202923908Y-120699694D01*
X202904695Y-120713944D01*
X202884178Y-120726241D01*
X202862554Y-120736469D01*
X202840032Y-120744527D01*
X202816828Y-120750339D01*
X202793167Y-120753849D01*
X202769275Y-120755023D01*
X202745383Y-120753849D01*
X202721722Y-120750339D01*
X202698518Y-120744527D01*
X202675996Y-120736469D01*
X202654372Y-120726241D01*
X202633855Y-120713944D01*
X202614642Y-120699694D01*
X202596918Y-120683630D01*
X201951683Y-120038395D01*
X201935619Y-120020671D01*
X201921369Y-120001458D01*
X201909072Y-119980941D01*
X201898844Y-119959317D01*
X201890786Y-119936795D01*
X201884974Y-119913591D01*
X201881464Y-119889930D01*
X201880290Y-119866038D01*
X201881464Y-119842146D01*
X201884974Y-119818485D01*
X201890786Y-119795281D01*
X201898844Y-119772759D01*
X201909072Y-119751135D01*
X201921369Y-119730618D01*
X201935619Y-119711405D01*
X201951683Y-119693681D01*
X202296398Y-119348966D01*
X202314122Y-119332902D01*
X202333335Y-119318652D01*
X202353852Y-119306355D01*
X202375476Y-119296127D01*
X202397998Y-119288069D01*
X202421202Y-119282257D01*
X202444863Y-119278747D01*
X202468755Y-119277573D01*
X202492647Y-119278747D01*
X202492647Y-119278747D01*
G37*
D15*
X202619015Y-120016298D03*
D12*
G36*
X203818473Y-117952921D02*
G01*
X203842134Y-117956431D01*
X203865338Y-117962243D01*
X203887860Y-117970301D01*
X203909484Y-117980529D01*
X203930001Y-117992826D01*
X203949214Y-118007076D01*
X203966938Y-118023140D01*
X204612173Y-118668375D01*
X204628237Y-118686099D01*
X204642487Y-118705312D01*
X204654784Y-118725829D01*
X204665012Y-118747453D01*
X204673070Y-118769975D01*
X204678882Y-118793179D01*
X204682392Y-118816840D01*
X204683566Y-118840732D01*
X204682392Y-118864624D01*
X204678882Y-118888285D01*
X204673070Y-118911489D01*
X204665012Y-118934011D01*
X204654784Y-118955635D01*
X204642487Y-118976152D01*
X204628237Y-118995365D01*
X204612173Y-119013089D01*
X204267458Y-119357804D01*
X204249734Y-119373868D01*
X204230521Y-119388118D01*
X204210004Y-119400415D01*
X204188380Y-119410643D01*
X204165858Y-119418701D01*
X204142654Y-119424513D01*
X204118993Y-119428023D01*
X204095101Y-119429197D01*
X204071209Y-119428023D01*
X204047548Y-119424513D01*
X204024344Y-119418701D01*
X204001822Y-119410643D01*
X203980198Y-119400415D01*
X203959681Y-119388118D01*
X203940468Y-119373868D01*
X203922744Y-119357804D01*
X203277509Y-118712569D01*
X203261445Y-118694845D01*
X203247195Y-118675632D01*
X203234898Y-118655115D01*
X203224670Y-118633491D01*
X203216612Y-118610969D01*
X203210800Y-118587765D01*
X203207290Y-118564104D01*
X203206116Y-118540212D01*
X203207290Y-118516320D01*
X203210800Y-118492659D01*
X203216612Y-118469455D01*
X203224670Y-118446933D01*
X203234898Y-118425309D01*
X203247195Y-118404792D01*
X203261445Y-118385579D01*
X203277509Y-118367855D01*
X203622224Y-118023140D01*
X203639948Y-118007076D01*
X203659161Y-117992826D01*
X203679678Y-117980529D01*
X203701302Y-117970301D01*
X203723824Y-117962243D01*
X203747028Y-117956431D01*
X203770689Y-117952921D01*
X203794581Y-117951747D01*
X203818473Y-117952921D01*
X203818473Y-117952921D01*
G37*
D15*
X203944841Y-118690472D03*
D12*
G36*
X204118993Y-139122497D02*
G01*
X204142654Y-139126007D01*
X204165858Y-139131819D01*
X204188380Y-139139877D01*
X204210004Y-139150105D01*
X204230521Y-139162402D01*
X204249734Y-139176652D01*
X204267458Y-139192716D01*
X204612173Y-139537431D01*
X204628237Y-139555155D01*
X204642487Y-139574368D01*
X204654784Y-139594885D01*
X204665012Y-139616509D01*
X204673070Y-139639031D01*
X204678882Y-139662235D01*
X204682392Y-139685896D01*
X204683566Y-139709788D01*
X204682392Y-139733680D01*
X204678882Y-139757341D01*
X204673070Y-139780545D01*
X204665012Y-139803067D01*
X204654784Y-139824691D01*
X204642487Y-139845208D01*
X204628237Y-139864421D01*
X204612173Y-139882145D01*
X203966938Y-140527380D01*
X203949214Y-140543444D01*
X203930001Y-140557694D01*
X203909484Y-140569991D01*
X203887860Y-140580219D01*
X203865338Y-140588277D01*
X203842134Y-140594089D01*
X203818473Y-140597599D01*
X203794581Y-140598773D01*
X203770689Y-140597599D01*
X203747028Y-140594089D01*
X203723824Y-140588277D01*
X203701302Y-140580219D01*
X203679678Y-140569991D01*
X203659161Y-140557694D01*
X203639948Y-140543444D01*
X203622224Y-140527380D01*
X203277509Y-140182665D01*
X203261445Y-140164941D01*
X203247195Y-140145728D01*
X203234898Y-140125211D01*
X203224670Y-140103587D01*
X203216612Y-140081065D01*
X203210800Y-140057861D01*
X203207290Y-140034200D01*
X203206116Y-140010308D01*
X203207290Y-139986416D01*
X203210800Y-139962755D01*
X203216612Y-139939551D01*
X203224670Y-139917029D01*
X203234898Y-139895405D01*
X203247195Y-139874888D01*
X203261445Y-139855675D01*
X203277509Y-139837951D01*
X203922744Y-139192716D01*
X203940468Y-139176652D01*
X203959681Y-139162402D01*
X203980198Y-139150105D01*
X204001822Y-139139877D01*
X204024344Y-139131819D01*
X204047548Y-139126007D01*
X204071209Y-139122497D01*
X204095101Y-139121323D01*
X204118993Y-139122497D01*
X204118993Y-139122497D01*
G37*
D15*
X203944841Y-139860048D03*
D12*
G36*
X202793167Y-137796671D02*
G01*
X202816828Y-137800181D01*
X202840032Y-137805993D01*
X202862554Y-137814051D01*
X202884178Y-137824279D01*
X202904695Y-137836576D01*
X202923908Y-137850826D01*
X202941632Y-137866890D01*
X203286347Y-138211605D01*
X203302411Y-138229329D01*
X203316661Y-138248542D01*
X203328958Y-138269059D01*
X203339186Y-138290683D01*
X203347244Y-138313205D01*
X203353056Y-138336409D01*
X203356566Y-138360070D01*
X203357740Y-138383962D01*
X203356566Y-138407854D01*
X203353056Y-138431515D01*
X203347244Y-138454719D01*
X203339186Y-138477241D01*
X203328958Y-138498865D01*
X203316661Y-138519382D01*
X203302411Y-138538595D01*
X203286347Y-138556319D01*
X202641112Y-139201554D01*
X202623388Y-139217618D01*
X202604175Y-139231868D01*
X202583658Y-139244165D01*
X202562034Y-139254393D01*
X202539512Y-139262451D01*
X202516308Y-139268263D01*
X202492647Y-139271773D01*
X202468755Y-139272947D01*
X202444863Y-139271773D01*
X202421202Y-139268263D01*
X202397998Y-139262451D01*
X202375476Y-139254393D01*
X202353852Y-139244165D01*
X202333335Y-139231868D01*
X202314122Y-139217618D01*
X202296398Y-139201554D01*
X201951683Y-138856839D01*
X201935619Y-138839115D01*
X201921369Y-138819902D01*
X201909072Y-138799385D01*
X201898844Y-138777761D01*
X201890786Y-138755239D01*
X201884974Y-138732035D01*
X201881464Y-138708374D01*
X201880290Y-138684482D01*
X201881464Y-138660590D01*
X201884974Y-138636929D01*
X201890786Y-138613725D01*
X201898844Y-138591203D01*
X201909072Y-138569579D01*
X201921369Y-138549062D01*
X201935619Y-138529849D01*
X201951683Y-138512125D01*
X202596918Y-137866890D01*
X202614642Y-137850826D01*
X202633855Y-137836576D01*
X202654372Y-137824279D01*
X202675996Y-137814051D01*
X202698518Y-137805993D01*
X202721722Y-137800181D01*
X202745383Y-137796671D01*
X202769275Y-137795497D01*
X202793167Y-137796671D01*
X202793167Y-137796671D01*
G37*
D15*
X202619015Y-138534222D03*
D12*
G36*
X211524417Y-121127921D02*
G01*
X211548078Y-121131431D01*
X211571282Y-121137243D01*
X211593804Y-121145301D01*
X211615428Y-121155529D01*
X211635945Y-121167826D01*
X211655158Y-121182076D01*
X211672882Y-121198140D01*
X212017597Y-121542855D01*
X212033661Y-121560579D01*
X212047911Y-121579792D01*
X212060208Y-121600309D01*
X212070436Y-121621933D01*
X212078494Y-121644455D01*
X212084306Y-121667659D01*
X212087816Y-121691320D01*
X212088990Y-121715212D01*
X212087816Y-121739104D01*
X212084306Y-121762765D01*
X212078494Y-121785969D01*
X212070436Y-121808491D01*
X212060208Y-121830115D01*
X212047911Y-121850632D01*
X212033661Y-121869845D01*
X212017597Y-121887569D01*
X211372362Y-122532804D01*
X211354638Y-122548868D01*
X211335425Y-122563118D01*
X211314908Y-122575415D01*
X211293284Y-122585643D01*
X211270762Y-122593701D01*
X211247558Y-122599513D01*
X211223897Y-122603023D01*
X211200005Y-122604197D01*
X211176113Y-122603023D01*
X211152452Y-122599513D01*
X211129248Y-122593701D01*
X211106726Y-122585643D01*
X211085102Y-122575415D01*
X211064585Y-122563118D01*
X211045372Y-122548868D01*
X211027648Y-122532804D01*
X210682933Y-122188089D01*
X210666869Y-122170365D01*
X210652619Y-122151152D01*
X210640322Y-122130635D01*
X210630094Y-122109011D01*
X210622036Y-122086489D01*
X210616224Y-122063285D01*
X210612714Y-122039624D01*
X210611540Y-122015732D01*
X210612714Y-121991840D01*
X210616224Y-121968179D01*
X210622036Y-121944975D01*
X210630094Y-121922453D01*
X210640322Y-121900829D01*
X210652619Y-121880312D01*
X210666869Y-121861099D01*
X210682933Y-121843375D01*
X211328168Y-121198140D01*
X211345892Y-121182076D01*
X211365105Y-121167826D01*
X211385622Y-121155529D01*
X211407246Y-121145301D01*
X211429768Y-121137243D01*
X211452972Y-121131431D01*
X211476633Y-121127921D01*
X211500525Y-121126747D01*
X211524417Y-121127921D01*
X211524417Y-121127921D01*
G37*
D15*
X211350265Y-121865472D03*
D12*
G36*
X212850243Y-122453747D02*
G01*
X212873904Y-122457257D01*
X212897108Y-122463069D01*
X212919630Y-122471127D01*
X212941254Y-122481355D01*
X212961771Y-122493652D01*
X212980984Y-122507902D01*
X212998708Y-122523966D01*
X213343423Y-122868681D01*
X213359487Y-122886405D01*
X213373737Y-122905618D01*
X213386034Y-122926135D01*
X213396262Y-122947759D01*
X213404320Y-122970281D01*
X213410132Y-122993485D01*
X213413642Y-123017146D01*
X213414816Y-123041038D01*
X213413642Y-123064930D01*
X213410132Y-123088591D01*
X213404320Y-123111795D01*
X213396262Y-123134317D01*
X213386034Y-123155941D01*
X213373737Y-123176458D01*
X213359487Y-123195671D01*
X213343423Y-123213395D01*
X212698188Y-123858630D01*
X212680464Y-123874694D01*
X212661251Y-123888944D01*
X212640734Y-123901241D01*
X212619110Y-123911469D01*
X212596588Y-123919527D01*
X212573384Y-123925339D01*
X212549723Y-123928849D01*
X212525831Y-123930023D01*
X212501939Y-123928849D01*
X212478278Y-123925339D01*
X212455074Y-123919527D01*
X212432552Y-123911469D01*
X212410928Y-123901241D01*
X212390411Y-123888944D01*
X212371198Y-123874694D01*
X212353474Y-123858630D01*
X212008759Y-123513915D01*
X211992695Y-123496191D01*
X211978445Y-123476978D01*
X211966148Y-123456461D01*
X211955920Y-123434837D01*
X211947862Y-123412315D01*
X211942050Y-123389111D01*
X211938540Y-123365450D01*
X211937366Y-123341558D01*
X211938540Y-123317666D01*
X211942050Y-123294005D01*
X211947862Y-123270801D01*
X211955920Y-123248279D01*
X211966148Y-123226655D01*
X211978445Y-123206138D01*
X211992695Y-123186925D01*
X212008759Y-123169201D01*
X212653994Y-122523966D01*
X212671718Y-122507902D01*
X212690931Y-122493652D01*
X212711448Y-122481355D01*
X212733072Y-122471127D01*
X212755594Y-122463069D01*
X212778798Y-122457257D01*
X212802459Y-122453747D01*
X212826351Y-122452573D01*
X212850243Y-122453747D01*
X212850243Y-122453747D01*
G37*
D15*
X212676091Y-123191298D03*
D12*
G36*
X197468473Y-125096671D02*
G01*
X197492134Y-125100181D01*
X197515338Y-125105993D01*
X197537860Y-125114051D01*
X197559484Y-125124279D01*
X197580001Y-125136576D01*
X197599214Y-125150826D01*
X197616938Y-125166890D01*
X198262173Y-125812125D01*
X198278237Y-125829849D01*
X198292487Y-125849062D01*
X198304784Y-125869579D01*
X198315012Y-125891203D01*
X198323070Y-125913725D01*
X198328882Y-125936929D01*
X198332392Y-125960590D01*
X198333566Y-125984482D01*
X198332392Y-126008374D01*
X198328882Y-126032035D01*
X198323070Y-126055239D01*
X198315012Y-126077761D01*
X198304784Y-126099385D01*
X198292487Y-126119902D01*
X198278237Y-126139115D01*
X198262173Y-126156839D01*
X197917458Y-126501554D01*
X197899734Y-126517618D01*
X197880521Y-126531868D01*
X197860004Y-126544165D01*
X197838380Y-126554393D01*
X197815858Y-126562451D01*
X197792654Y-126568263D01*
X197768993Y-126571773D01*
X197745101Y-126572947D01*
X197721209Y-126571773D01*
X197697548Y-126568263D01*
X197674344Y-126562451D01*
X197651822Y-126554393D01*
X197630198Y-126544165D01*
X197609681Y-126531868D01*
X197590468Y-126517618D01*
X197572744Y-126501554D01*
X196927509Y-125856319D01*
X196911445Y-125838595D01*
X196897195Y-125819382D01*
X196884898Y-125798865D01*
X196874670Y-125777241D01*
X196866612Y-125754719D01*
X196860800Y-125731515D01*
X196857290Y-125707854D01*
X196856116Y-125683962D01*
X196857290Y-125660070D01*
X196860800Y-125636409D01*
X196866612Y-125613205D01*
X196874670Y-125590683D01*
X196884898Y-125569059D01*
X196897195Y-125548542D01*
X196911445Y-125529329D01*
X196927509Y-125511605D01*
X197272224Y-125166890D01*
X197289948Y-125150826D01*
X197309161Y-125136576D01*
X197329678Y-125124279D01*
X197351302Y-125114051D01*
X197373824Y-125105993D01*
X197397028Y-125100181D01*
X197420689Y-125096671D01*
X197444581Y-125095497D01*
X197468473Y-125096671D01*
X197468473Y-125096671D01*
G37*
D15*
X197594841Y-125834222D03*
D12*
G36*
X196142647Y-126422497D02*
G01*
X196166308Y-126426007D01*
X196189512Y-126431819D01*
X196212034Y-126439877D01*
X196233658Y-126450105D01*
X196254175Y-126462402D01*
X196273388Y-126476652D01*
X196291112Y-126492716D01*
X196936347Y-127137951D01*
X196952411Y-127155675D01*
X196966661Y-127174888D01*
X196978958Y-127195405D01*
X196989186Y-127217029D01*
X196997244Y-127239551D01*
X197003056Y-127262755D01*
X197006566Y-127286416D01*
X197007740Y-127310308D01*
X197006566Y-127334200D01*
X197003056Y-127357861D01*
X196997244Y-127381065D01*
X196989186Y-127403587D01*
X196978958Y-127425211D01*
X196966661Y-127445728D01*
X196952411Y-127464941D01*
X196936347Y-127482665D01*
X196591632Y-127827380D01*
X196573908Y-127843444D01*
X196554695Y-127857694D01*
X196534178Y-127869991D01*
X196512554Y-127880219D01*
X196490032Y-127888277D01*
X196466828Y-127894089D01*
X196443167Y-127897599D01*
X196419275Y-127898773D01*
X196395383Y-127897599D01*
X196371722Y-127894089D01*
X196348518Y-127888277D01*
X196325996Y-127880219D01*
X196304372Y-127869991D01*
X196283855Y-127857694D01*
X196264642Y-127843444D01*
X196246918Y-127827380D01*
X195601683Y-127182145D01*
X195585619Y-127164421D01*
X195571369Y-127145208D01*
X195559072Y-127124691D01*
X195548844Y-127103067D01*
X195540786Y-127080545D01*
X195534974Y-127057341D01*
X195531464Y-127033680D01*
X195530290Y-127009788D01*
X195531464Y-126985896D01*
X195534974Y-126962235D01*
X195540786Y-126939031D01*
X195548844Y-126916509D01*
X195559072Y-126894885D01*
X195571369Y-126874368D01*
X195585619Y-126855155D01*
X195601683Y-126837431D01*
X195946398Y-126492716D01*
X195964122Y-126476652D01*
X195983335Y-126462402D01*
X196003852Y-126450105D01*
X196025476Y-126439877D01*
X196047998Y-126431819D01*
X196071202Y-126426007D01*
X196094863Y-126422497D01*
X196118755Y-126421323D01*
X196142647Y-126422497D01*
X196142647Y-126422497D01*
G37*
D15*
X196269015Y-127160048D03*
D12*
G36*
X219200243Y-130391247D02*
G01*
X219223904Y-130394757D01*
X219247108Y-130400569D01*
X219269630Y-130408627D01*
X219291254Y-130418855D01*
X219311771Y-130431152D01*
X219330984Y-130445402D01*
X219348708Y-130461466D01*
X219693423Y-130806181D01*
X219709487Y-130823905D01*
X219723737Y-130843118D01*
X219736034Y-130863635D01*
X219746262Y-130885259D01*
X219754320Y-130907781D01*
X219760132Y-130930985D01*
X219763642Y-130954646D01*
X219764816Y-130978538D01*
X219763642Y-131002430D01*
X219760132Y-131026091D01*
X219754320Y-131049295D01*
X219746262Y-131071817D01*
X219736034Y-131093441D01*
X219723737Y-131113958D01*
X219709487Y-131133171D01*
X219693423Y-131150895D01*
X219048188Y-131796130D01*
X219030464Y-131812194D01*
X219011251Y-131826444D01*
X218990734Y-131838741D01*
X218969110Y-131848969D01*
X218946588Y-131857027D01*
X218923384Y-131862839D01*
X218899723Y-131866349D01*
X218875831Y-131867523D01*
X218851939Y-131866349D01*
X218828278Y-131862839D01*
X218805074Y-131857027D01*
X218782552Y-131848969D01*
X218760928Y-131838741D01*
X218740411Y-131826444D01*
X218721198Y-131812194D01*
X218703474Y-131796130D01*
X218358759Y-131451415D01*
X218342695Y-131433691D01*
X218328445Y-131414478D01*
X218316148Y-131393961D01*
X218305920Y-131372337D01*
X218297862Y-131349815D01*
X218292050Y-131326611D01*
X218288540Y-131302950D01*
X218287366Y-131279058D01*
X218288540Y-131255166D01*
X218292050Y-131231505D01*
X218297862Y-131208301D01*
X218305920Y-131185779D01*
X218316148Y-131164155D01*
X218328445Y-131143638D01*
X218342695Y-131124425D01*
X218358759Y-131106701D01*
X219003994Y-130461466D01*
X219021718Y-130445402D01*
X219040931Y-130431152D01*
X219061448Y-130418855D01*
X219083072Y-130408627D01*
X219105594Y-130400569D01*
X219128798Y-130394757D01*
X219152459Y-130391247D01*
X219176351Y-130390073D01*
X219200243Y-130391247D01*
X219200243Y-130391247D01*
G37*
D15*
X219026091Y-131128798D03*
D12*
G36*
X217874417Y-129065421D02*
G01*
X217898078Y-129068931D01*
X217921282Y-129074743D01*
X217943804Y-129082801D01*
X217965428Y-129093029D01*
X217985945Y-129105326D01*
X218005158Y-129119576D01*
X218022882Y-129135640D01*
X218367597Y-129480355D01*
X218383661Y-129498079D01*
X218397911Y-129517292D01*
X218410208Y-129537809D01*
X218420436Y-129559433D01*
X218428494Y-129581955D01*
X218434306Y-129605159D01*
X218437816Y-129628820D01*
X218438990Y-129652712D01*
X218437816Y-129676604D01*
X218434306Y-129700265D01*
X218428494Y-129723469D01*
X218420436Y-129745991D01*
X218410208Y-129767615D01*
X218397911Y-129788132D01*
X218383661Y-129807345D01*
X218367597Y-129825069D01*
X217722362Y-130470304D01*
X217704638Y-130486368D01*
X217685425Y-130500618D01*
X217664908Y-130512915D01*
X217643284Y-130523143D01*
X217620762Y-130531201D01*
X217597558Y-130537013D01*
X217573897Y-130540523D01*
X217550005Y-130541697D01*
X217526113Y-130540523D01*
X217502452Y-130537013D01*
X217479248Y-130531201D01*
X217456726Y-130523143D01*
X217435102Y-130512915D01*
X217414585Y-130500618D01*
X217395372Y-130486368D01*
X217377648Y-130470304D01*
X217032933Y-130125589D01*
X217016869Y-130107865D01*
X217002619Y-130088652D01*
X216990322Y-130068135D01*
X216980094Y-130046511D01*
X216972036Y-130023989D01*
X216966224Y-130000785D01*
X216962714Y-129977124D01*
X216961540Y-129953232D01*
X216962714Y-129929340D01*
X216966224Y-129905679D01*
X216972036Y-129882475D01*
X216980094Y-129859953D01*
X216990322Y-129838329D01*
X217002619Y-129817812D01*
X217016869Y-129798599D01*
X217032933Y-129780875D01*
X217678168Y-129135640D01*
X217695892Y-129119576D01*
X217715105Y-129105326D01*
X217735622Y-129093029D01*
X217757246Y-129082801D01*
X217779768Y-129074743D01*
X217802972Y-129068931D01*
X217826633Y-129065421D01*
X217850525Y-129064247D01*
X217874417Y-129065421D01*
X217874417Y-129065421D01*
G37*
D15*
X217700265Y-129802972D03*
D22*
X203944841Y-137708334D03*
X208838178Y-148722135D03*
X208838178Y-116763178D03*
X214394428Y-156659635D03*
X198963928Y-135672885D03*
X204787500Y-115887500D03*
X207899000Y-120777000D03*
X218915737Y-128587500D03*
X205663178Y-147134635D03*
X201612500Y-116358131D03*
X214707117Y-123013117D03*
X210343750Y-188912500D03*
X199882003Y-141986000D03*
X226684940Y-181768750D03*
X233444428Y-132847135D03*
X210343750Y-190059362D03*
X198882000Y-141986000D03*
X227684943Y-181768750D03*
X238918750Y-146843750D03*
X210343750Y-191059365D03*
X197739000Y-141986000D03*
X210343750Y-192087500D03*
X196738997Y-141986000D03*
X201803000Y-137287000D03*
X191293750Y-137318750D03*
X200826261Y-119848541D03*
X200119573Y-120556069D03*
X199410058Y-121260762D03*
X198712927Y-121977707D03*
X197938108Y-122609892D03*
X197231000Y-123317000D03*
X211409928Y-135545885D03*
X203662928Y-147102885D03*
X297642928Y-119035885D03*
X210647928Y-136307885D03*
X315930928Y-119035885D03*
X202646928Y-147102885D03*
X209819743Y-136983924D03*
X201630928Y-147102885D03*
X335742928Y-119035885D03*
X200614928Y-147102885D03*
X354792928Y-119035885D03*
X206313822Y-139847779D03*
X207416400Y-143510000D03*
X213868000Y-132334000D03*
X207472928Y-148753885D03*
X207250678Y-156659635D03*
D23*
X203944841Y-137708334D02*
X205242754Y-136410421D01*
X203944841Y-139860048D02*
X203944841Y-137708334D01*
X198202090Y-125834222D02*
X200151586Y-127783718D01*
X197594841Y-125834222D02*
X198202090Y-125834222D01*
X202619015Y-121200181D02*
X204677069Y-123258235D01*
X202619015Y-120016298D02*
X202619015Y-121200181D01*
X212207756Y-133051663D02*
X211606716Y-132450623D01*
X200151586Y-127783718D02*
X200341782Y-127783718D01*
X204677069Y-123258235D02*
X206923733Y-125504899D01*
X204031632Y-128397000D02*
X206923733Y-125504899D01*
X200764868Y-128397000D02*
X204031632Y-128397000D01*
X200151586Y-127783718D02*
X200764868Y-128397000D01*
X207484215Y-131849583D02*
X204031632Y-128397000D01*
X211005676Y-131849583D02*
X207484215Y-131849583D01*
X211606716Y-132450623D02*
X211005676Y-131849583D01*
X207484215Y-134168960D02*
X207484215Y-131849583D01*
X205242754Y-136410421D02*
X207484215Y-134168960D01*
X209308619Y-125556331D02*
X209909659Y-124955291D01*
X206975165Y-125556331D02*
X209308619Y-125556331D01*
X206923733Y-125504899D02*
X206975165Y-125556331D01*
X212996547Y-133840454D02*
X212207756Y-133051663D01*
X216314435Y-133840454D02*
X212996547Y-133840454D01*
X219026091Y-131128798D02*
X216314435Y-133840454D01*
X205816793Y-141732000D02*
X203944841Y-139860048D01*
X207899000Y-141732000D02*
X205816793Y-141732000D01*
X208756250Y-147637500D02*
X208756250Y-142589250D01*
X208756250Y-142589250D02*
X207899000Y-141732000D01*
X221456250Y-136525000D02*
X220628103Y-135696853D01*
X221456250Y-137318750D02*
X221456250Y-136525000D01*
X217298555Y-141476445D02*
X221456250Y-137318750D01*
X215524166Y-140981471D02*
X216019140Y-141476445D01*
X216019140Y-141476445D02*
X217298555Y-141476445D01*
X220628103Y-135696853D02*
X220628103Y-135690503D01*
X220628103Y-135690503D02*
X219557600Y-134620000D01*
X219214046Y-134620000D02*
X218333784Y-135500262D01*
X219557600Y-134620000D02*
X219214046Y-134620000D01*
D24*
X216089851Y-140415786D02*
X215524166Y-140981471D01*
X216089851Y-139978102D02*
X216089851Y-140415786D01*
X215312035Y-139200286D02*
X216089851Y-139978102D01*
X215312035Y-138789440D02*
X215312035Y-139200286D01*
X215877720Y-138223755D02*
X215312035Y-138789440D01*
D23*
X212944357Y-143561280D02*
X215524166Y-140981471D01*
X212924417Y-143561280D02*
X212944357Y-143561280D01*
X216673976Y-133840454D02*
X216314435Y-133840454D01*
X218333784Y-135500262D02*
X216673976Y-133840454D01*
X210106928Y-98453385D02*
X210106928Y-97953385D01*
X202806928Y-98453385D02*
X202806928Y-97953385D01*
X208838178Y-93953385D02*
X210106928Y-93953385D01*
X205575928Y-93953385D02*
X205663178Y-93953385D01*
X202806928Y-96722385D02*
X205575928Y-93953385D01*
X202806928Y-98453385D02*
X202806928Y-96722385D01*
X202806928Y-93953385D02*
X205663178Y-93953385D01*
X207337928Y-93953385D02*
X207250678Y-93953385D01*
X210106928Y-98453385D02*
X210106928Y-96722385D01*
X205663178Y-93953385D02*
X207250678Y-93953385D01*
X207250678Y-93953385D02*
X208838178Y-93953385D01*
X208056928Y-94734635D02*
X208088053Y-94703510D01*
X208056928Y-98453385D02*
X208056928Y-94734635D01*
X210106928Y-96722385D02*
X208088053Y-94703510D01*
X208088053Y-94703510D02*
X207337928Y-93953385D01*
X211931250Y-121284487D02*
X211350265Y-121865472D01*
X211931250Y-119856250D02*
X211931250Y-121284487D01*
X208838178Y-116763178D02*
X211931250Y-119856250D01*
X208056928Y-98453385D02*
X208056928Y-101878385D01*
X208056928Y-101878385D02*
X208838178Y-102659635D01*
X208838178Y-102659635D02*
X208838178Y-103478385D01*
X208756250Y-147637500D02*
X208756250Y-148640207D01*
X208756250Y-148640207D02*
X208838178Y-148722135D01*
X210820000Y-124044950D02*
X209909659Y-124955291D01*
X210820000Y-123825000D02*
X210820000Y-124044950D01*
X210462524Y-123467524D02*
X210820000Y-123825000D01*
X210462524Y-122753213D02*
X210462524Y-123467524D01*
X211350265Y-121865472D02*
X210462524Y-122753213D01*
X213747928Y-154809635D02*
X213747928Y-156013135D01*
X213747928Y-156013135D02*
X214394428Y-156659635D01*
X206477911Y-104716635D02*
X208838178Y-104716635D01*
X206075928Y-104314652D02*
X206477911Y-104716635D01*
X206075928Y-103706750D02*
X206075928Y-104314652D01*
X208838178Y-103478385D02*
X208838178Y-104716635D01*
X208838178Y-104716635D02*
X208838178Y-116763178D01*
X202138928Y-106797135D02*
X202138928Y-113574885D01*
X198102841Y-134811798D02*
X198963928Y-135672885D01*
X202138928Y-113574885D02*
X202138928Y-114032678D01*
X202138928Y-114032678D02*
X203993750Y-115887500D01*
X203993750Y-115887500D02*
X204787500Y-115887500D01*
X198396545Y-127160048D02*
X199585900Y-128349403D01*
X196269015Y-127160048D02*
X198396545Y-127160048D01*
X205242754Y-122692549D02*
X203962000Y-121411795D01*
X203962000Y-121411795D02*
X203962000Y-121031000D01*
X203962000Y-121031000D02*
X204724000Y-120269000D01*
X204724000Y-119469631D02*
X203944841Y-118690472D01*
X204724000Y-120269000D02*
X204724000Y-119469631D01*
X212773441Y-132485977D02*
X212172401Y-131884937D01*
X213411965Y-133124501D02*
X212773441Y-132485977D01*
X214378736Y-133124501D02*
X213411965Y-133124501D01*
X217700265Y-129802972D02*
X214378736Y-133124501D01*
X201612500Y-116358131D02*
X203944841Y-118690472D01*
X203159375Y-118690472D02*
X203944841Y-118690472D01*
X200687586Y-118690472D02*
X203159375Y-118690472D01*
X196269015Y-123109043D02*
X200687586Y-118690472D01*
X196269015Y-127160048D02*
X196269015Y-123109043D01*
X217700265Y-129802972D02*
X218915737Y-128587500D01*
X208813643Y-121691643D02*
X207899000Y-120777000D01*
X208212603Y-123258235D02*
X208813643Y-122657195D01*
X208813643Y-122657195D02*
X208813643Y-121691643D01*
X202619015Y-137902789D02*
X204677069Y-135844735D01*
X202619015Y-138534222D02*
X202619015Y-137902789D01*
X205551178Y-145070885D02*
X205551178Y-147022635D01*
X205551178Y-147022635D02*
X205663178Y-147134635D01*
X211041030Y-126086662D02*
X214114575Y-123013117D01*
X214114575Y-123013117D02*
X214707117Y-123013117D01*
X205551178Y-143053885D02*
X205551178Y-145070885D01*
X205054793Y-142557500D02*
X205551178Y-143053885D01*
X204261043Y-142557500D02*
X205054793Y-142557500D01*
X201930000Y-140226457D02*
X204261043Y-142557500D01*
X202619015Y-138534222D02*
X201930000Y-139223237D01*
X201930000Y-139223237D02*
X201930000Y-140226457D01*
X201694428Y-116276203D02*
X201612500Y-116358131D01*
X202938928Y-104922135D02*
X202138928Y-104922135D01*
X205699215Y-104922135D02*
X202938928Y-104922135D01*
X206075928Y-105298848D02*
X205699215Y-104922135D01*
X206075928Y-105906750D02*
X206075928Y-105298848D01*
X201612500Y-116358131D02*
X198201928Y-112947559D01*
X198201928Y-112947559D02*
X198201928Y-107259635D01*
X200539428Y-104922135D02*
X200106928Y-105354635D01*
X202138928Y-104922135D02*
X200539428Y-104922135D01*
X200106928Y-105354635D02*
X200106928Y-106653385D01*
X199500678Y-107259635D02*
X198201928Y-107259635D01*
X200106928Y-106653385D02*
X199500678Y-107259635D01*
D24*
X214054655Y-139779390D02*
X214322085Y-139779390D01*
X211598591Y-142235454D02*
X214054655Y-139779390D01*
X213518750Y-136625399D02*
X210475345Y-133581994D01*
X214322085Y-139779390D02*
X213518750Y-138976055D01*
X213518750Y-138976055D02*
X213518750Y-136625399D01*
X211054464Y-133016308D02*
X211041030Y-133016308D01*
X217645486Y-138860151D02*
X217645486Y-137476736D01*
X217079801Y-139425836D02*
X217645486Y-138860151D01*
X211642070Y-133617348D02*
X211041030Y-133016308D01*
X212382686Y-134357964D02*
X211642070Y-133617348D01*
X214526714Y-134357964D02*
X212382686Y-134357964D01*
X217645486Y-137476736D02*
X214526714Y-134357964D01*
X219008962Y-137476736D02*
X219659610Y-136826088D01*
X217645486Y-137476736D02*
X219008962Y-137476736D01*
X210475345Y-125392044D02*
X210475345Y-125520976D01*
X212676091Y-123191298D02*
X210475345Y-125392044D01*
X64558558Y-104745845D02*
X69027095Y-104745845D01*
X70136398Y-105855148D02*
X70136398Y-108141500D01*
X69027095Y-104745845D02*
X70136398Y-105855148D01*
X201478261Y-134518060D02*
X202414327Y-133581994D01*
X201478261Y-136422902D02*
X201478261Y-134518060D01*
X199882003Y-141986000D02*
X199882003Y-139715997D01*
X199882003Y-138019160D02*
X199882003Y-139715997D01*
X201478261Y-136422902D02*
X199882003Y-138019160D01*
X210343750Y-188912500D02*
X211362970Y-189931720D01*
X211362970Y-189931720D02*
X220892080Y-189931720D01*
X70136398Y-111441500D02*
X70136398Y-113792648D01*
X70136398Y-113792648D02*
X73818750Y-117475000D01*
X92709000Y-117475000D02*
X93916500Y-116267500D01*
X73818750Y-117475000D02*
X92709000Y-117475000D01*
X93916500Y-116267500D02*
X94042500Y-116267500D01*
X94042500Y-116267500D02*
X95250000Y-117475000D01*
X111759000Y-117475000D02*
X112966500Y-116267500D01*
X95250000Y-117475000D02*
X111759000Y-117475000D01*
X114174000Y-117475000D02*
X135629548Y-117475000D01*
X112966500Y-116267500D02*
X114174000Y-117475000D01*
X290831873Y-116206873D02*
X291306250Y-116681250D01*
X311646273Y-116681250D02*
X313041678Y-115285845D01*
X291306250Y-116681250D02*
X311646273Y-116681250D01*
X330847403Y-117475000D02*
X332086598Y-116235805D01*
X315230833Y-117475000D02*
X330847403Y-117475000D01*
X313041678Y-115285845D02*
X315230833Y-117475000D01*
X332086598Y-116235805D02*
X332135805Y-116235805D01*
X332135805Y-116235805D02*
X333375000Y-117475000D01*
X349861843Y-117475000D02*
X351136598Y-116200245D01*
X333375000Y-117475000D02*
X349861843Y-117475000D01*
X351136598Y-116200245D02*
X351150245Y-116200245D01*
X351150245Y-116200245D02*
X352425000Y-117475000D01*
X368942323Y-117475000D02*
X370181518Y-116235805D01*
X352425000Y-117475000D02*
X368942323Y-117475000D01*
X233362500Y-126932792D02*
X234182419Y-126112873D01*
X201382918Y-189931720D02*
X209324530Y-189931720D01*
X195376770Y-183925572D02*
X201382918Y-189931720D01*
X195376770Y-173816717D02*
X195376770Y-183925572D01*
X198876977Y-170316510D02*
X195376770Y-173816717D01*
X201006807Y-170316510D02*
X198876977Y-170316510D01*
X209324530Y-189931720D02*
X210343750Y-188912500D01*
X192181981Y-127672433D02*
X192881250Y-128371702D01*
X202860259Y-168463057D02*
X201006807Y-170316510D01*
X192881250Y-139851684D02*
X195716510Y-142686944D01*
X195716510Y-142686944D02*
X195716510Y-153799444D01*
X195716510Y-153799444D02*
X202860260Y-160943193D01*
X202860260Y-160943193D02*
X202860259Y-168463057D01*
X192881250Y-128371702D02*
X192881250Y-139851684D01*
X192060664Y-127793750D02*
X192181981Y-127672433D01*
X139197581Y-121043033D02*
X154640781Y-121043033D01*
X135920981Y-117766433D02*
X139197581Y-121043033D01*
X157968181Y-124370433D02*
X173385981Y-124370433D01*
X154640781Y-121043033D02*
X157968181Y-124370433D01*
X176687981Y-127672433D02*
X192181981Y-127672433D01*
X173385981Y-124370433D02*
X176687981Y-127672433D01*
X287268419Y-119508873D02*
X290570419Y-116206873D01*
X271774419Y-119508873D02*
X287268419Y-119508873D01*
X268472419Y-122810873D02*
X271774419Y-119508873D01*
X252978419Y-122810873D02*
X268472419Y-122810873D01*
X249676419Y-126112873D02*
X252978419Y-122810873D01*
X234182419Y-126112873D02*
X249676419Y-126112873D01*
X220892080Y-189931720D02*
X220892081Y-189931720D01*
X220892081Y-189931720D02*
X226684940Y-184138861D01*
X226684940Y-184138861D02*
X226684940Y-181768750D01*
X233362500Y-132765207D02*
X233362500Y-126932792D01*
X233444428Y-132847135D02*
X233362500Y-132765207D01*
X59768118Y-123790765D02*
X64259515Y-123790765D01*
X65376438Y-124907688D02*
X65376438Y-127180125D01*
X64259515Y-123790765D02*
X65376438Y-124907688D01*
X198882000Y-141420315D02*
X198882000Y-141986000D01*
X198882000Y-138377096D02*
X198882000Y-141420315D01*
X201024251Y-136234845D02*
X198882000Y-138377096D01*
X201848642Y-133016308D02*
X201024251Y-133840699D01*
X201024251Y-133840699D02*
X201024251Y-136234845D01*
X210670118Y-190385730D02*
X221080137Y-190385730D01*
X210343750Y-190059362D02*
X210670118Y-190385730D01*
X65376438Y-130480125D02*
X65376438Y-132051438D01*
X65376438Y-132051438D02*
X69850000Y-136525000D01*
X93217000Y-136525000D02*
X94424500Y-135317500D01*
X69850000Y-136525000D02*
X93217000Y-136525000D01*
X114629200Y-136525000D02*
X115862100Y-135292100D01*
X95632000Y-136525000D02*
X114629200Y-136525000D01*
X94424500Y-135317500D02*
X95632000Y-136525000D01*
X210017382Y-190385730D02*
X210343750Y-190059362D01*
X201194862Y-190385730D02*
X210017382Y-190385730D01*
X194922760Y-184113628D02*
X201194862Y-190385730D01*
X202406250Y-161131250D02*
X202406250Y-168275000D01*
X202406250Y-168275000D02*
X200818750Y-169862500D01*
X200818750Y-169862500D02*
X198688921Y-169862500D01*
X194922760Y-173628661D02*
X194922760Y-184113628D01*
X198688921Y-169862500D02*
X194922760Y-173628661D01*
X193578981Y-147230433D02*
X194061683Y-147230433D01*
X195262500Y-148431250D02*
X195262500Y-153987500D01*
X194061683Y-147230433D02*
X195262500Y-148431250D01*
X195262500Y-153987500D02*
X202406250Y-161131250D01*
X242183419Y-144019873D02*
X242272601Y-143930691D01*
X337563163Y-136525000D02*
X338756638Y-135331525D01*
X320839153Y-136525000D02*
X337563163Y-136525000D01*
X319706638Y-135392485D02*
X320839153Y-136525000D01*
X361362963Y-136525000D02*
X362566598Y-135321365D01*
X339950113Y-136525000D02*
X361362963Y-136525000D01*
X338756638Y-135331525D02*
X339950113Y-136525000D01*
X137312298Y-137318750D02*
X137317981Y-137324433D01*
X117888750Y-137318750D02*
X137312298Y-137318750D01*
X115862100Y-135292100D02*
X117888750Y-137318750D01*
X155846678Y-140493750D02*
X156022541Y-140669613D01*
X140487298Y-140493750D02*
X155846678Y-140493750D01*
X137317981Y-137324433D02*
X140487298Y-140493750D01*
X174523298Y-143668750D02*
X174782981Y-143928433D01*
X159021678Y-143668750D02*
X174523298Y-143668750D01*
X156022541Y-140669613D02*
X159021678Y-143668750D01*
X193192298Y-146843750D02*
X193578981Y-147230433D01*
X177698298Y-146843750D02*
X193192298Y-146843750D01*
X174782981Y-143928433D02*
X177698298Y-146843750D01*
X300855546Y-136525000D02*
X298444419Y-134113873D01*
X319706638Y-135392485D02*
X318574123Y-136525000D01*
X318574123Y-136525000D02*
X300855546Y-136525000D01*
X257677419Y-144019873D02*
X260979419Y-140717873D01*
X242183419Y-144019873D02*
X257677419Y-144019873D01*
X276473419Y-140717873D02*
X279775419Y-137415873D01*
X260979419Y-140717873D02*
X276473419Y-140717873D01*
X295142419Y-137415873D02*
X298444419Y-134113873D01*
X279775419Y-137415873D02*
X295142419Y-137415873D01*
X221080137Y-190385730D02*
X221346090Y-190119777D01*
X221346090Y-190119777D02*
X227684943Y-183780924D01*
X227684943Y-183780924D02*
X227684943Y-181768750D01*
X241742627Y-144019873D02*
X238918750Y-146843750D01*
X242183419Y-144019873D02*
X241742627Y-144019873D01*
X55003700Y-142845845D02*
X59502095Y-142845845D01*
X60631718Y-143975468D02*
X60631718Y-146240285D01*
X59502095Y-142845845D02*
X60631718Y-143975468D01*
X221268194Y-190839740D02*
X228411943Y-183695990D01*
X210563375Y-190839740D02*
X210343750Y-191059365D01*
X221268194Y-190839740D02*
X210563375Y-190839740D01*
X201282956Y-132450623D02*
X200570241Y-133163338D01*
X200570241Y-133163338D02*
X200570241Y-136046788D01*
X197739000Y-141986000D02*
X197739000Y-139700000D01*
X197739000Y-138878029D02*
X197739000Y-139700000D01*
X200570241Y-136046788D02*
X197739000Y-138878029D01*
X60631718Y-149540285D02*
X60631718Y-150325468D01*
X60631718Y-150325468D02*
X65881250Y-155575000D01*
X95122000Y-155575000D02*
X96329500Y-154367500D01*
X65881250Y-155575000D02*
X95122000Y-155575000D01*
X96329500Y-154367500D02*
X96423750Y-154367500D01*
X96423750Y-154367500D02*
X97631250Y-155575000D01*
X121284000Y-155575000D02*
X122491500Y-154367500D01*
X97631250Y-155575000D02*
X121284000Y-155575000D01*
X210124125Y-190839740D02*
X210343750Y-191059365D01*
X201006806Y-190839740D02*
X210124125Y-190839740D01*
X194468750Y-184301684D02*
X201006806Y-190839740D01*
X194468750Y-173440605D02*
X194468750Y-184301684D01*
X311797403Y-155575000D02*
X313036598Y-154335805D01*
X293489546Y-155575000D02*
X311797403Y-155575000D01*
X292475419Y-154560873D02*
X293489546Y-155575000D01*
X330903283Y-155575000D02*
X332091678Y-154386605D01*
X314275793Y-155575000D02*
X330903283Y-155575000D01*
X313036598Y-154335805D02*
X314275793Y-155575000D01*
X332091678Y-154386605D02*
X333280073Y-155575000D01*
X198500864Y-169408490D02*
X200479010Y-169408490D01*
X194468750Y-173440605D02*
X198500864Y-169408490D01*
X200479010Y-169408490D02*
X200818750Y-169068750D01*
X200818750Y-169068750D02*
X200818750Y-168275000D01*
X200221183Y-167677433D02*
X200818750Y-168275000D01*
X199674981Y-167677433D02*
X200221183Y-167677433D01*
X143102164Y-157956250D02*
X143286981Y-157771433D01*
X126080250Y-157956250D02*
X143102164Y-157956250D01*
X122491500Y-154367500D02*
X126080250Y-157956250D01*
X162050564Y-161131250D02*
X162108381Y-161073433D01*
X146646798Y-161131250D02*
X162050564Y-161131250D01*
X143286981Y-157771433D02*
X146646798Y-161131250D01*
X180809798Y-164306250D02*
X180878981Y-164375433D01*
X165341198Y-164306250D02*
X180809798Y-164306250D01*
X162108381Y-161073433D02*
X165341198Y-164306250D01*
X184180981Y-167677433D02*
X199674981Y-167677433D01*
X180878981Y-164375433D02*
X184180981Y-167677433D01*
X333280073Y-155575000D02*
X352345963Y-155575000D01*
X352345963Y-155575000D02*
X353524198Y-154396765D01*
X270377419Y-161164873D02*
X273679419Y-157862873D01*
X254883419Y-161164873D02*
X270377419Y-161164873D01*
X289173419Y-157862873D02*
X292475419Y-154560873D01*
X273679419Y-157862873D02*
X289173419Y-157862873D01*
X251581419Y-164466873D02*
X254883419Y-161164873D01*
X236087419Y-164466873D02*
X251581419Y-164466873D01*
X228411943Y-172142349D02*
X236087419Y-164466873D01*
X228411943Y-183695990D02*
X228411943Y-172142349D01*
X88328500Y-109512100D02*
X92843350Y-109512100D01*
X93916500Y-110585250D02*
X93916500Y-112967500D01*
X92843350Y-109512100D02*
X93916500Y-110585250D01*
X88836500Y-128562100D02*
X92843350Y-128562100D01*
X94424500Y-130143250D02*
X94424500Y-132017500D01*
X92843350Y-128562100D02*
X94424500Y-130143250D01*
X90716100Y-147612100D02*
X95224600Y-147612100D01*
X96329500Y-148717000D02*
X96329500Y-151067500D01*
X95224600Y-147612100D02*
X96329500Y-148717000D01*
X85940900Y-166662100D02*
X90462100Y-166662100D01*
X91503500Y-167703500D02*
X91503500Y-170117500D01*
X90462100Y-166662100D02*
X91503500Y-167703500D01*
X200818750Y-191293750D02*
X209550000Y-191293750D01*
X209550000Y-191293750D02*
X210343750Y-192087500D01*
X200116231Y-132485977D02*
X200717271Y-131884937D01*
X200116231Y-135858731D02*
X200116231Y-132485977D01*
X196738997Y-139235966D02*
X200116231Y-135858731D01*
X196738997Y-141986000D02*
X196738997Y-139235966D01*
X91503500Y-173417500D02*
X91661250Y-173417500D01*
X91661250Y-173417500D02*
X92868750Y-174625000D01*
X114172000Y-174625000D02*
X115379500Y-173417500D01*
X92868750Y-174625000D02*
X114172000Y-174625000D01*
X184612159Y-184033818D02*
X193558818Y-184033818D01*
X193558818Y-184033818D02*
X200818750Y-191293750D01*
X251871015Y-184150000D02*
X255797197Y-180223818D01*
X228600000Y-184150000D02*
X251871015Y-184150000D01*
X221456250Y-191293750D02*
X228600000Y-184150000D01*
X210343750Y-192087500D02*
X211137500Y-191293750D01*
X211137500Y-191293750D02*
X221456250Y-191293750D01*
X324928878Y-173487405D02*
X325093655Y-173487405D01*
X115379500Y-173417500D02*
X119762000Y-177800000D01*
X147007414Y-177800000D02*
X147096981Y-177710433D01*
X119762000Y-177800000D02*
X147007414Y-177800000D01*
X147096981Y-177710433D02*
X165010433Y-177710433D01*
X171333818Y-184033818D02*
X184612159Y-184033818D01*
X165010433Y-177710433D02*
X171333818Y-184033818D01*
X347570763Y-174625000D02*
X348754078Y-173441685D01*
X326066473Y-174625000D02*
X347570763Y-174625000D01*
X324928878Y-173487405D02*
X326066473Y-174625000D01*
X323916410Y-174499873D02*
X324928878Y-173487405D01*
X288792419Y-174499873D02*
X323916410Y-174499873D01*
X283068474Y-180223818D02*
X288792419Y-174499873D01*
X255797197Y-180223818D02*
X283068474Y-180223818D01*
X107378500Y-109512100D02*
X111893350Y-109512100D01*
X112966500Y-110585250D02*
X112966500Y-112967500D01*
X111893350Y-109512100D02*
X112966500Y-110585250D01*
X110223300Y-128562100D02*
X114274600Y-128562100D01*
X115862100Y-130149600D02*
X115862100Y-131992100D01*
X114274600Y-128562100D02*
X115862100Y-130149600D01*
X116928900Y-147612100D02*
X121418350Y-147612100D01*
X122491500Y-148685250D02*
X122491500Y-151067500D01*
X121418350Y-147612100D02*
X122491500Y-148685250D01*
X109766100Y-166662100D02*
X114274600Y-166662100D01*
X115379500Y-167767000D02*
X115379500Y-170117500D01*
X114274600Y-166662100D02*
X115379500Y-167767000D01*
X131539244Y-110081143D02*
X135481143Y-110081143D01*
X136494019Y-111094019D02*
X136494019Y-114516567D01*
X135481143Y-110081143D02*
X136494019Y-111094019D01*
X132910844Y-129689943D02*
X136039943Y-129689943D01*
X137891019Y-131541019D02*
X137891019Y-134074567D01*
X136039943Y-129689943D02*
X137891019Y-131541019D01*
X139006844Y-150111543D02*
X142174043Y-150111543D01*
X143860019Y-151797519D02*
X143860019Y-154521567D01*
X142174043Y-150111543D02*
X143860019Y-151797519D01*
X142715244Y-170101343D02*
X146288843Y-170101343D01*
X147670019Y-171482519D02*
X147670019Y-174460567D01*
X146288843Y-170101343D02*
X147670019Y-171482519D01*
X150284444Y-113408543D02*
X153889793Y-113408543D01*
X155213819Y-114732569D02*
X155213819Y-117793167D01*
X153889793Y-113408543D02*
X155213819Y-114732569D01*
X151671284Y-132999563D02*
X155224563Y-132999563D01*
X156595579Y-134370579D02*
X156595579Y-137419747D01*
X155224563Y-132999563D02*
X156595579Y-134370579D01*
X157752044Y-153413543D02*
X161351043Y-153413543D01*
X162681419Y-154743919D02*
X162681419Y-157823567D01*
X161351043Y-153413543D02*
X162681419Y-154743919D01*
X169049964Y-116718163D02*
X173074413Y-116718163D01*
X173959019Y-117602769D02*
X173959019Y-121120567D01*
X173074413Y-116718163D02*
X173959019Y-117602769D01*
X170426644Y-136300743D02*
X173606993Y-136300743D01*
X175356019Y-138049769D02*
X175356019Y-140678567D01*
X173606993Y-136300743D02*
X175356019Y-138049769D01*
X176497244Y-156715543D02*
X180528043Y-156715543D01*
X181452019Y-157639519D02*
X181452019Y-161125567D01*
X180528043Y-156715543D02*
X181452019Y-157639519D01*
X180231044Y-176730743D02*
X183874493Y-176730743D01*
X185185197Y-178041447D02*
X185185197Y-180783952D01*
X183874493Y-176730743D02*
X185185197Y-178041447D01*
X187815484Y-120027783D02*
X191465283Y-120027783D01*
X192755019Y-121317519D02*
X192755019Y-124422567D01*
X191465283Y-120027783D02*
X192755019Y-121317519D01*
X189184544Y-139608643D02*
X191996143Y-139608643D01*
X194152019Y-141764519D02*
X194152019Y-143980567D01*
X191996143Y-139608643D02*
X194152019Y-141764519D01*
X195275464Y-160025163D02*
X198125163Y-160025163D01*
X200248019Y-162148019D02*
X200248019Y-164427567D01*
X198125163Y-160025163D02*
X200248019Y-162148019D01*
X227455759Y-120509630D02*
X232428380Y-120509630D01*
X233609381Y-121690631D02*
X233609381Y-122863007D01*
X232428380Y-120509630D02*
X233609381Y-121690631D01*
X235446599Y-138447110D02*
X240047110Y-138447110D01*
X241610381Y-140010381D02*
X241610381Y-140770007D01*
X240047110Y-138447110D02*
X241610381Y-140010381D01*
X229386159Y-158856010D02*
X234262260Y-158856010D01*
X235514381Y-160108131D02*
X235514381Y-161217007D01*
X234262260Y-158856010D02*
X235514381Y-160108131D01*
X246218739Y-117205090D02*
X251348840Y-117205090D01*
X252405381Y-118261631D02*
X252405381Y-119561007D01*
X251348840Y-117205090D02*
X252405381Y-118261631D01*
X254217199Y-135134950D02*
X258959950Y-135134950D01*
X260406381Y-136581381D02*
X260406381Y-137468007D01*
X258959950Y-135134950D02*
X260406381Y-136581381D01*
X248146599Y-155551470D02*
X253182720Y-155551470D01*
X254310381Y-156679131D02*
X254310381Y-157915007D01*
X253182720Y-155551470D02*
X254310381Y-156679131D01*
X249081319Y-174731010D02*
X254106010Y-174731010D01*
X255224159Y-175849159D02*
X255224159Y-176973952D01*
X254106010Y-174731010D02*
X255224159Y-175849159D01*
X264981719Y-113895470D02*
X269470470Y-113895470D01*
X271201381Y-115626381D02*
X271201381Y-116259007D01*
X269470470Y-113895470D02*
X271201381Y-115626381D01*
X272972559Y-131827870D02*
X277877870Y-131827870D01*
X279202381Y-133152381D02*
X279202381Y-134166007D01*
X277877870Y-131827870D02*
X279202381Y-133152381D01*
X266884179Y-152246930D02*
X272103180Y-152246930D01*
X273106381Y-153250131D02*
X273106381Y-154613007D01*
X272103180Y-152246930D02*
X273106381Y-153250131D01*
X281935597Y-168933515D02*
X287202265Y-168933515D01*
X288219381Y-169950631D02*
X288219381Y-171250007D01*
X287202265Y-168933515D02*
X288219381Y-169950631D01*
X283744699Y-110583310D02*
X288383310Y-110583310D01*
X289997381Y-112197381D02*
X289997381Y-112957007D01*
X288383310Y-110583310D02*
X289997381Y-112197381D01*
X291732999Y-128523330D02*
X296004580Y-128523330D01*
X297871381Y-130390131D02*
X297871381Y-130864007D01*
X296004580Y-128523330D02*
X297871381Y-130390131D01*
X285662399Y-148934770D02*
X291016020Y-148934770D01*
X291902381Y-149821131D02*
X291902381Y-151311007D01*
X291016020Y-148934770D02*
X291902381Y-149821131D01*
X307423198Y-108540605D02*
X311740605Y-108540605D01*
X313041678Y-109841678D02*
X313041678Y-111985845D01*
X311740605Y-108540605D02*
X313041678Y-109841678D01*
X314098318Y-128550725D02*
X318256975Y-128550725D01*
X319706638Y-130000388D02*
X319706638Y-132092485D01*
X318256975Y-128550725D02*
X319706638Y-130000388D01*
X307423198Y-147615965D02*
X311922215Y-147615965D01*
X313036598Y-148730348D02*
X313036598Y-151035805D01*
X311922215Y-147615965D02*
X313036598Y-148730348D01*
X326468118Y-109490565D02*
X330946815Y-109490565D01*
X332086598Y-110630348D02*
X332086598Y-112935805D01*
X330946815Y-109490565D02*
X332086598Y-110630348D01*
X333148318Y-128545645D02*
X337301895Y-128545645D01*
X338756638Y-130000388D02*
X338756638Y-132031525D01*
X337301895Y-128545645D02*
X338756638Y-130000388D01*
X326478278Y-147615965D02*
X330972215Y-147615965D01*
X332091678Y-148735428D02*
X332091678Y-151086605D01*
X330972215Y-147615965D02*
X332091678Y-148735428D01*
X319310398Y-166671045D02*
X323833545Y-166671045D01*
X324928878Y-167766378D02*
X324928878Y-170187405D01*
X323833545Y-166671045D02*
X324928878Y-167766378D01*
X345487638Y-109485485D02*
X349991735Y-109485485D01*
X351136598Y-110630348D02*
X351136598Y-112900245D01*
X349991735Y-109485485D02*
X351136598Y-110630348D01*
X347905718Y-147600725D02*
X352388225Y-147600725D01*
X353524198Y-148736698D02*
X353524198Y-151096765D01*
X352388225Y-147600725D02*
X353524198Y-148736698D01*
X343140678Y-166660885D02*
X347635885Y-166660885D01*
X347635885Y-166660885D02*
X348754078Y-167779078D01*
X348754078Y-167779078D02*
X348754078Y-170141685D01*
X364573198Y-109485485D02*
X369041735Y-109485485D01*
X370181518Y-110625268D02*
X370181518Y-112935805D01*
X369041735Y-109485485D02*
X370181518Y-110625268D01*
X356953198Y-128555805D02*
X361124555Y-128555805D01*
X362566598Y-129997848D02*
X362566598Y-132021365D01*
X361124555Y-128555805D02*
X362566598Y-129997848D01*
X204856928Y-98567928D02*
X204869428Y-98580428D01*
X204856928Y-98453385D02*
X204856928Y-98567928D01*
X204869428Y-98580428D02*
X204869428Y-100303385D01*
X204869428Y-100303385D02*
X203281928Y-101890885D01*
X203281928Y-101890885D02*
X199313178Y-101890885D01*
X198201928Y-103002135D02*
X198201928Y-104459635D01*
X199313178Y-101890885D02*
X198201928Y-103002135D01*
X202944658Y-136145342D02*
X201803000Y-137287000D01*
X203545698Y-134713365D02*
X202944658Y-135314405D01*
X202944658Y-135314405D02*
X202944658Y-136145342D01*
X189706250Y-137318750D02*
X191293750Y-137318750D01*
X185737500Y-133350000D02*
X189706250Y-137318750D01*
X130968750Y-127000000D02*
X153193750Y-127000000D01*
X59333557Y-106160846D02*
X63089389Y-106160846D01*
X58208558Y-107285845D02*
X59333557Y-106160846D01*
X65169428Y-108240885D02*
X65169428Y-119353385D01*
X159543750Y-133350000D02*
X185737500Y-133350000D01*
X153193750Y-127000000D02*
X159543750Y-133350000D01*
X63089389Y-106160846D02*
X65169428Y-108240885D01*
X65169428Y-119353385D02*
X69641043Y-123825000D01*
X127793750Y-123825000D02*
X130968750Y-127000000D01*
X69641043Y-123825000D02*
X127793750Y-123825000D01*
X202944658Y-123788565D02*
X203545698Y-124389605D01*
X201226260Y-122070167D02*
X202944658Y-123788565D01*
X201226260Y-120248540D02*
X201226260Y-122070167D01*
X200826261Y-119848541D02*
X201226260Y-120248540D01*
X202378973Y-124354251D02*
X202980013Y-124955291D01*
X200519572Y-122494850D02*
X202378973Y-124354251D01*
X200519572Y-120956068D02*
X200519572Y-122494850D01*
X200119573Y-120556069D02*
X200519572Y-120956068D01*
X201813287Y-124919936D02*
X202414327Y-125520976D01*
X199810057Y-122916706D02*
X201813287Y-124919936D01*
X199810057Y-121660761D02*
X199810057Y-122916706D01*
X199410058Y-121260762D02*
X199810057Y-121660761D01*
X201247602Y-125485622D02*
X201848642Y-126086662D01*
X199112926Y-123350946D02*
X201247602Y-125485622D01*
X199112926Y-122377706D02*
X199112926Y-123350946D01*
X198712927Y-121977707D02*
X199112926Y-122377706D01*
X200681916Y-126051307D02*
X201282956Y-126652347D01*
X198338107Y-123707498D02*
X200681916Y-126051307D01*
X198338107Y-123009891D02*
X198338107Y-123707498D01*
X197938108Y-122609892D02*
X198338107Y-123009891D01*
X197231000Y-123317000D02*
X200025000Y-126111000D01*
X200025000Y-126525762D02*
X200717271Y-127218033D01*
X200025000Y-126111000D02*
X200025000Y-126525762D01*
X221643296Y-124113708D02*
X217539467Y-124113708D01*
X217539467Y-124113708D02*
X213303772Y-128349403D01*
X213339126Y-127182678D02*
X212738086Y-127783718D01*
X213339126Y-126693374D02*
X213339126Y-127182678D01*
X240406276Y-120809168D02*
X238156743Y-118559635D01*
X221472865Y-118559635D02*
X213339126Y-126693374D01*
X238156743Y-118559635D02*
X221472865Y-118559635D01*
X259169256Y-117296963D02*
X252948438Y-111076145D01*
X259169256Y-117499548D02*
X259169256Y-117296963D01*
X228314289Y-111076145D02*
X212172401Y-127218033D01*
X252948438Y-111076145D02*
X228314289Y-111076145D01*
X212207756Y-126051307D02*
X211606716Y-126652347D01*
X212697061Y-126051307D02*
X212207756Y-126051307D01*
X228126233Y-110622135D02*
X212697061Y-126051307D01*
X274366983Y-110622135D02*
X228126233Y-110622135D01*
X277932236Y-114187388D02*
X274366983Y-110622135D01*
X210011722Y-134147679D02*
X211409928Y-135545885D01*
X209909659Y-134147679D02*
X210011722Y-134147679D01*
X203662928Y-149896885D02*
X203662928Y-147102885D01*
X264707079Y-126431720D02*
X264441126Y-126697674D01*
X276454580Y-126431720D02*
X264707079Y-126431720D01*
X281945415Y-120940885D02*
X276454580Y-126431720D01*
X296944428Y-120940885D02*
X281945415Y-120940885D01*
X297642928Y-120242385D02*
X296944428Y-120940885D01*
X297642928Y-119035885D02*
X297642928Y-120242385D01*
X264441126Y-126697674D02*
X260928830Y-130209970D01*
X260928830Y-130209970D02*
X244291829Y-130209970D01*
X244291829Y-130209970D02*
X244025876Y-130475924D01*
X240481830Y-134019970D02*
X228607329Y-134019970D01*
X223416563Y-150812500D02*
X204578543Y-150812500D01*
X244025876Y-130475924D02*
X240481830Y-134019970D01*
X228607329Y-134019970D02*
X225078970Y-137548329D01*
X225078970Y-137548329D02*
X225078970Y-149150093D01*
X204578543Y-150812500D02*
X203662928Y-149896885D01*
X225078970Y-149150093D02*
X223416563Y-150812500D01*
X225532980Y-137791701D02*
X225532980Y-149338150D01*
X225532980Y-149338150D02*
X223604620Y-151266510D01*
X210647928Y-136017319D02*
X209343974Y-134713365D01*
X210647928Y-136307885D02*
X210647928Y-136017319D01*
X223604620Y-151266510D02*
X204016553Y-151266510D01*
X202646928Y-149896885D02*
X202646928Y-147102885D01*
X204016553Y-151266510D02*
X202646928Y-149896885D01*
X225532980Y-137791701D02*
X225532981Y-137736387D01*
X228795386Y-134473980D02*
X225532980Y-137736386D01*
X240669886Y-134473980D02*
X228795386Y-134473980D01*
X244479886Y-130663980D02*
X240669886Y-134473980D01*
X225532980Y-137736386D02*
X225532980Y-137791701D01*
X261116886Y-130663980D02*
X244479886Y-130663980D01*
X315930928Y-119035885D02*
X315930928Y-120083635D01*
X315930928Y-120083635D02*
X314619668Y-121394895D01*
X314619668Y-121394895D02*
X282133472Y-121394895D01*
X282133472Y-121394895D02*
X276642637Y-126885730D01*
X276642637Y-126885730D02*
X264895136Y-126885730D01*
X264895136Y-126885730D02*
X261116886Y-130663980D01*
X209819743Y-136320505D02*
X209819743Y-136983924D01*
X208778288Y-135279050D02*
X209819743Y-136320505D01*
X335742928Y-120845635D02*
X335742928Y-119035885D01*
X334739658Y-121848905D02*
X335742928Y-120845635D01*
X282321529Y-121848905D02*
X334739658Y-121848905D01*
X276830694Y-127339740D02*
X282321529Y-121848905D01*
X265083193Y-127339740D02*
X276830694Y-127339740D01*
X244667943Y-131117990D02*
X261304944Y-131117990D01*
X240857944Y-134927990D02*
X244667943Y-131117990D01*
X228983443Y-134927990D02*
X240857944Y-134927990D01*
X201630928Y-149942768D02*
X203408680Y-151720520D01*
X201630928Y-147102885D02*
X201630928Y-149942768D01*
X223792677Y-151720520D02*
X225986990Y-149526207D01*
X261304944Y-131117990D02*
X265083193Y-127339740D01*
X203408680Y-151720520D02*
X223792677Y-151720520D01*
X225986990Y-149526207D02*
X225986990Y-137924444D01*
X225986990Y-137924444D02*
X228983443Y-134927990D01*
X209092742Y-136724874D02*
X208212603Y-135844735D01*
X209092742Y-136724874D02*
X209092742Y-137068859D01*
X209092742Y-137068859D02*
X206313822Y-139847779D01*
X202765571Y-152174528D02*
X200614928Y-150023885D01*
X226441000Y-149714264D02*
X223980734Y-152174530D01*
X226440999Y-138112501D02*
X226441000Y-149714264D01*
X203805692Y-152174530D02*
X202765571Y-152174528D01*
X261493000Y-131572000D02*
X244856000Y-131572000D01*
X354792928Y-120845635D02*
X353335648Y-122302915D01*
X229171500Y-135382000D02*
X226440999Y-138112501D01*
X241046000Y-135382000D02*
X229171500Y-135382000D01*
X354792928Y-119035885D02*
X354792928Y-120845635D01*
X244856000Y-131572000D02*
X241046000Y-135382000D01*
X353335648Y-122302915D02*
X282509585Y-122302915D01*
X282509585Y-122302915D02*
X277018750Y-127793750D01*
X223980734Y-152174530D02*
X203805692Y-152174530D01*
X277018750Y-127793750D02*
X265271250Y-127793750D01*
X200614928Y-150023885D02*
X200614928Y-147102885D01*
X265271250Y-127793750D02*
X261493000Y-131572000D01*
X205125928Y-102840885D02*
X205125928Y-103706750D01*
X205821928Y-102144885D02*
X205125928Y-102840885D01*
X205821928Y-99997385D02*
X205821928Y-102144885D01*
X205656928Y-98453385D02*
X205656928Y-99832385D01*
X205656928Y-99832385D02*
X205821928Y-99997385D01*
X207025928Y-102894875D02*
X207025928Y-103706750D01*
X206275938Y-102144885D02*
X207025928Y-102894875D01*
X206275938Y-100013375D02*
X206275938Y-102144885D01*
X206456928Y-98453385D02*
X206456928Y-99832385D01*
X206456928Y-99832385D02*
X206275938Y-100013375D01*
X207426178Y-145070885D02*
X207426178Y-143519778D01*
X207426178Y-143519778D02*
X207416400Y-143510000D01*
X213752834Y-132334000D02*
X212738086Y-131319252D01*
X213868000Y-132334000D02*
X213752834Y-132334000D01*
X207426178Y-145070885D02*
X207426178Y-148707135D01*
X207426178Y-148707135D02*
X207472928Y-148753885D01*
X207547928Y-158509635D02*
X207547928Y-156956885D01*
X207547928Y-156956885D02*
X207250678Y-156659635D01*
X199585900Y-130764663D02*
X199585900Y-130753567D01*
X199509420Y-130753567D02*
X199585900Y-130753567D01*
X196777015Y-133485972D02*
X199509420Y-130753567D01*
X209379328Y-123222880D02*
X208778288Y-123823920D01*
X209379328Y-121181366D02*
X209379328Y-123222880D01*
X205821928Y-117623966D02*
X209379328Y-121181366D01*
X205821928Y-113271678D02*
X205821928Y-117623966D01*
X204724000Y-111586250D02*
X204724000Y-112173750D01*
X204724000Y-112173750D02*
X205821928Y-113271678D01*
X209945014Y-123788565D02*
X209343974Y-124389605D01*
X209945014Y-121104985D02*
X209945014Y-123788565D01*
X206329928Y-117489899D02*
X209945014Y-121104985D01*
X206329928Y-113234822D02*
X206329928Y-117489899D01*
X207391000Y-111586250D02*
X207391000Y-112173750D01*
X207391000Y-112173750D02*
X206329928Y-113234822D01*
X205787063Y-108648187D02*
X204724000Y-109711250D01*
X205787063Y-107351885D02*
X205787063Y-108648187D01*
X205125928Y-105906750D02*
X205125928Y-106690750D01*
X205125928Y-106690750D02*
X205787063Y-107351885D01*
X206364793Y-108685043D02*
X207391000Y-109711250D01*
X206364793Y-107351885D02*
X206364793Y-108685043D01*
X207025928Y-105906750D02*
X207025928Y-106690750D01*
X207025928Y-106690750D02*
X206364793Y-107351885D01*
G36*
X206470949Y-123479610D02*
G01*
X206859857Y-123868518D01*
X206956548Y-123947870D01*
X206957026Y-123948125D01*
X206957282Y-123948605D01*
X207036634Y-124045296D01*
X207425542Y-124434204D01*
X207522233Y-124513556D01*
X207522711Y-124513812D01*
X207522967Y-124514290D01*
X207602319Y-124610981D01*
X207991227Y-124999889D01*
X208087918Y-125079241D01*
X208088398Y-125079497D01*
X208088653Y-125079975D01*
X208168005Y-125176666D01*
X208556913Y-125565574D01*
X208653604Y-125644926D01*
X208654689Y-125645506D01*
X208728260Y-125732578D01*
X208858486Y-125732578D01*
X208883616Y-125740201D01*
X209008098Y-125752461D01*
X209123893Y-125741057D01*
X209112489Y-125856852D01*
X209124749Y-125981334D01*
X209132372Y-126006464D01*
X209132372Y-126136690D01*
X209219444Y-126210261D01*
X209220024Y-126211346D01*
X209299376Y-126308037D01*
X209688284Y-126696945D01*
X209784975Y-126776297D01*
X209785453Y-126776552D01*
X209785709Y-126777032D01*
X209865061Y-126873723D01*
X210253969Y-127262631D01*
X210350660Y-127341983D01*
X210351140Y-127342239D01*
X210351395Y-127342717D01*
X210430747Y-127439408D01*
X210819655Y-127828316D01*
X210916346Y-127907668D01*
X210916824Y-127907923D01*
X210917080Y-127908403D01*
X210996432Y-128005094D01*
X211385340Y-128394002D01*
X211482031Y-128473354D01*
X211482509Y-128473610D01*
X211482765Y-128474088D01*
X211562117Y-128570779D01*
X211951025Y-128959687D01*
X212047716Y-129039039D01*
X212048196Y-129039295D01*
X212048451Y-129039773D01*
X212127803Y-129136464D01*
X212516711Y-129525372D01*
X212548530Y-129551485D01*
X212516711Y-129577598D01*
X212127803Y-129966506D01*
X212048451Y-130063197D01*
X212048196Y-130063675D01*
X212047716Y-130063931D01*
X211951025Y-130143283D01*
X211562117Y-130532191D01*
X211482765Y-130628882D01*
X211482509Y-130629360D01*
X211482031Y-130629616D01*
X211385340Y-130708968D01*
X210996432Y-131097876D01*
X210917080Y-131194567D01*
X210916498Y-131195655D01*
X210829429Y-131269224D01*
X210829429Y-131399446D01*
X210821805Y-131424579D01*
X210809545Y-131549061D01*
X210820949Y-131664856D01*
X210705154Y-131653452D01*
X210580672Y-131665712D01*
X210555539Y-131673336D01*
X210425317Y-131673336D01*
X210351748Y-131760405D01*
X210350660Y-131760987D01*
X210253969Y-131840339D01*
X209865061Y-132229247D01*
X209785709Y-132325938D01*
X209785453Y-132326418D01*
X209784975Y-132326673D01*
X209688284Y-132406025D01*
X209299376Y-132794933D01*
X209220024Y-132891624D01*
X209219769Y-132892102D01*
X209219289Y-132892358D01*
X209122598Y-132971710D01*
X208733690Y-133360618D01*
X208654338Y-133457309D01*
X208654082Y-133457789D01*
X208653604Y-133458044D01*
X208556913Y-133537396D01*
X208168005Y-133926304D01*
X208088653Y-134022995D01*
X208088398Y-134023473D01*
X208087918Y-134023729D01*
X207991227Y-134103081D01*
X207602319Y-134491989D01*
X207522967Y-134588680D01*
X207522711Y-134589158D01*
X207522233Y-134589414D01*
X207425542Y-134668766D01*
X207036634Y-135057674D01*
X206957282Y-135154365D01*
X206957026Y-135154845D01*
X206956548Y-135155100D01*
X206859857Y-135234452D01*
X206470949Y-135623360D01*
X206443823Y-135656413D01*
X206424153Y-135633134D01*
X206199646Y-135633134D01*
X205810694Y-136022086D01*
X205800838Y-136012244D01*
X205853038Y-135960044D01*
X205932390Y-135863353D01*
X205991355Y-135753039D01*
X206027665Y-135633341D01*
X206039925Y-135508859D01*
X206027665Y-135384377D01*
X206020041Y-135359244D01*
X206020041Y-135229022D01*
X205932972Y-135155453D01*
X205932390Y-135154365D01*
X205853038Y-135057674D01*
X205464130Y-134668766D01*
X205367439Y-134589414D01*
X205366961Y-134589158D01*
X205366705Y-134588680D01*
X205287353Y-134491989D01*
X204898445Y-134103081D01*
X204801754Y-134023729D01*
X204801274Y-134023473D01*
X204801019Y-134022995D01*
X204721667Y-133926304D01*
X204332759Y-133537396D01*
X204236068Y-133458044D01*
X204235590Y-133457789D01*
X204235334Y-133457309D01*
X204155982Y-133360618D01*
X203767074Y-132971710D01*
X203670383Y-132892358D01*
X203669903Y-132892102D01*
X203669648Y-132891624D01*
X203590296Y-132794933D01*
X203201388Y-132406025D01*
X203104697Y-132326673D01*
X203104219Y-132326418D01*
X203103963Y-132325938D01*
X203024611Y-132229247D01*
X202635703Y-131840339D01*
X202539012Y-131760987D01*
X202538532Y-131760731D01*
X202538277Y-131760253D01*
X202458925Y-131663562D01*
X202070017Y-131274654D01*
X201973326Y-131195302D01*
X201972848Y-131195047D01*
X201972592Y-131194567D01*
X201893240Y-131097876D01*
X201504332Y-130708968D01*
X201407641Y-130629616D01*
X201407163Y-130629360D01*
X201406907Y-130628882D01*
X201327555Y-130532191D01*
X200938647Y-130143283D01*
X200841956Y-130063931D01*
X200841476Y-130063675D01*
X200841221Y-130063197D01*
X200761869Y-129966506D01*
X200372961Y-129577598D01*
X200341142Y-129551485D01*
X200372961Y-129525372D01*
X200761869Y-129136464D01*
X200841221Y-129039773D01*
X200841801Y-129038688D01*
X200928873Y-128965117D01*
X200928873Y-128834891D01*
X200936496Y-128809761D01*
X200948756Y-128685279D01*
X200937352Y-128569485D01*
X201053147Y-128580889D01*
X201177629Y-128568629D01*
X201202762Y-128561005D01*
X201332985Y-128561005D01*
X201406554Y-128473935D01*
X201407641Y-128473354D01*
X201504332Y-128394002D01*
X201893240Y-128005094D01*
X201972592Y-127908403D01*
X201972848Y-127907923D01*
X201973326Y-127907668D01*
X202070017Y-127828316D01*
X202458925Y-127439408D01*
X202538277Y-127342717D01*
X202538532Y-127342239D01*
X202539012Y-127341983D01*
X202635703Y-127262631D01*
X203024611Y-126873723D01*
X203103963Y-126777032D01*
X203104219Y-126776552D01*
X203104697Y-126776297D01*
X203201388Y-126696945D01*
X203590296Y-126308037D01*
X203669648Y-126211346D01*
X203669903Y-126210868D01*
X203670383Y-126210612D01*
X203767074Y-126131260D01*
X204155982Y-125742352D01*
X204235334Y-125645661D01*
X204235590Y-125645181D01*
X204236068Y-125644926D01*
X204332759Y-125565574D01*
X204721667Y-125176666D01*
X204801019Y-125079975D01*
X204801274Y-125079497D01*
X204801754Y-125079241D01*
X204898445Y-124999889D01*
X205287353Y-124610981D01*
X205366705Y-124514290D01*
X205367286Y-124513203D01*
X205454356Y-124439634D01*
X205454356Y-124309411D01*
X205461980Y-124284278D01*
X205474240Y-124159796D01*
X205462836Y-124044001D01*
X205578630Y-124055405D01*
X205703112Y-124043145D01*
X205728242Y-124035522D01*
X205858468Y-124035522D01*
X205932039Y-123948450D01*
X205933124Y-123947870D01*
X206029815Y-123868518D01*
X206418723Y-123479610D01*
X206444836Y-123447791D01*
X206470949Y-123479610D01*
X206470949Y-123479610D01*
G37*
X206470949Y-123479610D02*
X206859857Y-123868518D01*
X206956548Y-123947870D01*
X206957026Y-123948125D01*
X206957282Y-123948605D01*
X207036634Y-124045296D01*
X207425542Y-124434204D01*
X207522233Y-124513556D01*
X207522711Y-124513812D01*
X207522967Y-124514290D01*
X207602319Y-124610981D01*
X207991227Y-124999889D01*
X208087918Y-125079241D01*
X208088398Y-125079497D01*
X208088653Y-125079975D01*
X208168005Y-125176666D01*
X208556913Y-125565574D01*
X208653604Y-125644926D01*
X208654689Y-125645506D01*
X208728260Y-125732578D01*
X208858486Y-125732578D01*
X208883616Y-125740201D01*
X209008098Y-125752461D01*
X209123893Y-125741057D01*
X209112489Y-125856852D01*
X209124749Y-125981334D01*
X209132372Y-126006464D01*
X209132372Y-126136690D01*
X209219444Y-126210261D01*
X209220024Y-126211346D01*
X209299376Y-126308037D01*
X209688284Y-126696945D01*
X209784975Y-126776297D01*
X209785453Y-126776552D01*
X209785709Y-126777032D01*
X209865061Y-126873723D01*
X210253969Y-127262631D01*
X210350660Y-127341983D01*
X210351140Y-127342239D01*
X210351395Y-127342717D01*
X210430747Y-127439408D01*
X210819655Y-127828316D01*
X210916346Y-127907668D01*
X210916824Y-127907923D01*
X210917080Y-127908403D01*
X210996432Y-128005094D01*
X211385340Y-128394002D01*
X211482031Y-128473354D01*
X211482509Y-128473610D01*
X211482765Y-128474088D01*
X211562117Y-128570779D01*
X211951025Y-128959687D01*
X212047716Y-129039039D01*
X212048196Y-129039295D01*
X212048451Y-129039773D01*
X212127803Y-129136464D01*
X212516711Y-129525372D01*
X212548530Y-129551485D01*
X212516711Y-129577598D01*
X212127803Y-129966506D01*
X212048451Y-130063197D01*
X212048196Y-130063675D01*
X212047716Y-130063931D01*
X211951025Y-130143283D01*
X211562117Y-130532191D01*
X211482765Y-130628882D01*
X211482509Y-130629360D01*
X211482031Y-130629616D01*
X211385340Y-130708968D01*
X210996432Y-131097876D01*
X210917080Y-131194567D01*
X210916498Y-131195655D01*
X210829429Y-131269224D01*
X210829429Y-131399446D01*
X210821805Y-131424579D01*
X210809545Y-131549061D01*
X210820949Y-131664856D01*
X210705154Y-131653452D01*
X210580672Y-131665712D01*
X210555539Y-131673336D01*
X210425317Y-131673336D01*
X210351748Y-131760405D01*
X210350660Y-131760987D01*
X210253969Y-131840339D01*
X209865061Y-132229247D01*
X209785709Y-132325938D01*
X209785453Y-132326418D01*
X209784975Y-132326673D01*
X209688284Y-132406025D01*
X209299376Y-132794933D01*
X209220024Y-132891624D01*
X209219769Y-132892102D01*
X209219289Y-132892358D01*
X209122598Y-132971710D01*
X208733690Y-133360618D01*
X208654338Y-133457309D01*
X208654082Y-133457789D01*
X208653604Y-133458044D01*
X208556913Y-133537396D01*
X208168005Y-133926304D01*
X208088653Y-134022995D01*
X208088398Y-134023473D01*
X208087918Y-134023729D01*
X207991227Y-134103081D01*
X207602319Y-134491989D01*
X207522967Y-134588680D01*
X207522711Y-134589158D01*
X207522233Y-134589414D01*
X207425542Y-134668766D01*
X207036634Y-135057674D01*
X206957282Y-135154365D01*
X206957026Y-135154845D01*
X206956548Y-135155100D01*
X206859857Y-135234452D01*
X206470949Y-135623360D01*
X206443823Y-135656413D01*
X206424153Y-135633134D01*
X206199646Y-135633134D01*
X205810694Y-136022086D01*
X205800838Y-136012244D01*
X205853038Y-135960044D01*
X205932390Y-135863353D01*
X205991355Y-135753039D01*
X206027665Y-135633341D01*
X206039925Y-135508859D01*
X206027665Y-135384377D01*
X206020041Y-135359244D01*
X206020041Y-135229022D01*
X205932972Y-135155453D01*
X205932390Y-135154365D01*
X205853038Y-135057674D01*
X205464130Y-134668766D01*
X205367439Y-134589414D01*
X205366961Y-134589158D01*
X205366705Y-134588680D01*
X205287353Y-134491989D01*
X204898445Y-134103081D01*
X204801754Y-134023729D01*
X204801274Y-134023473D01*
X204801019Y-134022995D01*
X204721667Y-133926304D01*
X204332759Y-133537396D01*
X204236068Y-133458044D01*
X204235590Y-133457789D01*
X204235334Y-133457309D01*
X204155982Y-133360618D01*
X203767074Y-132971710D01*
X203670383Y-132892358D01*
X203669903Y-132892102D01*
X203669648Y-132891624D01*
X203590296Y-132794933D01*
X203201388Y-132406025D01*
X203104697Y-132326673D01*
X203104219Y-132326418D01*
X203103963Y-132325938D01*
X203024611Y-132229247D01*
X202635703Y-131840339D01*
X202539012Y-131760987D01*
X202538532Y-131760731D01*
X202538277Y-131760253D01*
X202458925Y-131663562D01*
X202070017Y-131274654D01*
X201973326Y-131195302D01*
X201972848Y-131195047D01*
X201972592Y-131194567D01*
X201893240Y-131097876D01*
X201504332Y-130708968D01*
X201407641Y-130629616D01*
X201407163Y-130629360D01*
X201406907Y-130628882D01*
X201327555Y-130532191D01*
X200938647Y-130143283D01*
X200841956Y-130063931D01*
X200841476Y-130063675D01*
X200841221Y-130063197D01*
X200761869Y-129966506D01*
X200372961Y-129577598D01*
X200341142Y-129551485D01*
X200372961Y-129525372D01*
X200761869Y-129136464D01*
X200841221Y-129039773D01*
X200841801Y-129038688D01*
X200928873Y-128965117D01*
X200928873Y-128834891D01*
X200936496Y-128809761D01*
X200948756Y-128685279D01*
X200937352Y-128569485D01*
X201053147Y-128580889D01*
X201177629Y-128568629D01*
X201202762Y-128561005D01*
X201332985Y-128561005D01*
X201406554Y-128473935D01*
X201407641Y-128473354D01*
X201504332Y-128394002D01*
X201893240Y-128005094D01*
X201972592Y-127908403D01*
X201972848Y-127907923D01*
X201973326Y-127907668D01*
X202070017Y-127828316D01*
X202458925Y-127439408D01*
X202538277Y-127342717D01*
X202538532Y-127342239D01*
X202539012Y-127341983D01*
X202635703Y-127262631D01*
X203024611Y-126873723D01*
X203103963Y-126777032D01*
X203104219Y-126776552D01*
X203104697Y-126776297D01*
X203201388Y-126696945D01*
X203590296Y-126308037D01*
X203669648Y-126211346D01*
X203669903Y-126210868D01*
X203670383Y-126210612D01*
X203767074Y-126131260D01*
X204155982Y-125742352D01*
X204235334Y-125645661D01*
X204235590Y-125645181D01*
X204236068Y-125644926D01*
X204332759Y-125565574D01*
X204721667Y-125176666D01*
X204801019Y-125079975D01*
X204801274Y-125079497D01*
X204801754Y-125079241D01*
X204898445Y-124999889D01*
X205287353Y-124610981D01*
X205366705Y-124514290D01*
X205367286Y-124513203D01*
X205454356Y-124439634D01*
X205454356Y-124309411D01*
X205461980Y-124284278D01*
X205474240Y-124159796D01*
X205462836Y-124044001D01*
X205578630Y-124055405D01*
X205703112Y-124043145D01*
X205728242Y-124035522D01*
X205858468Y-124035522D01*
X205932039Y-123948450D01*
X205933124Y-123947870D01*
X206029815Y-123868518D01*
X206418723Y-123479610D01*
X206444836Y-123447791D01*
X206470949Y-123479610D01*
G36*
X222864144Y-136525000D02*
G01*
X213518750Y-145870394D01*
X212677919Y-145029563D01*
X212774157Y-145039041D01*
X212898638Y-145026781D01*
X213018336Y-144990471D01*
X213128651Y-144931507D01*
X213225342Y-144852154D01*
X213516089Y-144557063D01*
X213516089Y-144332557D01*
X212924417Y-143740885D01*
X212910275Y-143755028D01*
X212730670Y-143575423D01*
X212744812Y-143561280D01*
X213104022Y-143561280D01*
X213695694Y-144152952D01*
X213920200Y-144152952D01*
X214215291Y-143862205D01*
X214294644Y-143765514D01*
X214353608Y-143655199D01*
X214389918Y-143535501D01*
X214402178Y-143411020D01*
X214389918Y-143286539D01*
X214353608Y-143166840D01*
X214294644Y-143056526D01*
X214215291Y-142959835D01*
X214070460Y-142819348D01*
X213845954Y-142819348D01*
X213104022Y-143561280D01*
X212744812Y-143561280D01*
X212730670Y-143547138D01*
X212910275Y-143367533D01*
X212924417Y-143381675D01*
X213666349Y-142639743D01*
X213666349Y-142415237D01*
X213525862Y-142270406D01*
X213429171Y-142191053D01*
X213318857Y-142132089D01*
X213199158Y-142095779D01*
X213074677Y-142083519D01*
X212974582Y-142093377D01*
X212975388Y-142085194D01*
X212962037Y-141949638D01*
X213008667Y-141903008D01*
X214782234Y-141903008D01*
X214782234Y-142127514D01*
X215002270Y-142351895D01*
X215098961Y-142431248D01*
X215209276Y-142490212D01*
X215328974Y-142526521D01*
X215453455Y-142538782D01*
X215577937Y-142526521D01*
X215697635Y-142490212D01*
X215807949Y-142431248D01*
X215904640Y-142351895D01*
X216195387Y-142056804D01*
X216195387Y-141832297D01*
X215524166Y-141161076D01*
X214782234Y-141903008D01*
X213008667Y-141903008D01*
X213781025Y-141130650D01*
X213800189Y-141149814D01*
X213896880Y-141229166D01*
X214007194Y-141288131D01*
X214013510Y-141290047D01*
X214015425Y-141296361D01*
X214074389Y-141406676D01*
X214153742Y-141503367D01*
X214378123Y-141723403D01*
X214602629Y-141723403D01*
X215344561Y-140981471D01*
X215330419Y-140967329D01*
X215510024Y-140787724D01*
X215524166Y-140801866D01*
X215538309Y-140787724D01*
X215717914Y-140967329D01*
X215703771Y-140981471D01*
X216374992Y-141652692D01*
X216599499Y-141652692D01*
X216894590Y-141361945D01*
X216973943Y-141265254D01*
X217032907Y-141154940D01*
X217069216Y-141035242D01*
X217074986Y-140976657D01*
X217133572Y-140970887D01*
X217253270Y-140934577D01*
X217363584Y-140875612D01*
X217460275Y-140796260D01*
X218450225Y-139806310D01*
X218529577Y-139709619D01*
X218588542Y-139599305D01*
X218624852Y-139479607D01*
X218637112Y-139355125D01*
X218624852Y-139230643D01*
X218588542Y-139110945D01*
X218529577Y-139000631D01*
X218450225Y-138903940D01*
X218410747Y-138864462D01*
X218411172Y-138860152D01*
X218407486Y-138822729D01*
X218407486Y-138238736D01*
X218971539Y-138238736D01*
X219008962Y-138242422D01*
X219046385Y-138238736D01*
X219046388Y-138238736D01*
X219158340Y-138227710D01*
X219301977Y-138184138D01*
X219312619Y-138178450D01*
X219337315Y-138185941D01*
X219509350Y-138202885D01*
X219681385Y-138185941D01*
X219846809Y-138135760D01*
X219999264Y-138054271D01*
X220132892Y-137944605D01*
X220778127Y-137299370D01*
X220887793Y-137165742D01*
X220969282Y-137013287D01*
X221019463Y-136847863D01*
X221036407Y-136675828D01*
X221019463Y-136503793D01*
X220969282Y-136338369D01*
X220887793Y-136185914D01*
X220778127Y-136052286D01*
X220433412Y-135707571D01*
X220299784Y-135597905D01*
X220147329Y-135516416D01*
X219981905Y-135466235D01*
X219809870Y-135449291D01*
X219801687Y-135450097D01*
X219811545Y-135350002D01*
X219799285Y-135225521D01*
X219762975Y-135105822D01*
X219704011Y-134995508D01*
X219624658Y-134898817D01*
X219479827Y-134758330D01*
X219255321Y-134758330D01*
X218513389Y-135500262D01*
X218527532Y-135514405D01*
X218347927Y-135694010D01*
X218333784Y-135679867D01*
X218319642Y-135694010D01*
X218140037Y-135514405D01*
X218154179Y-135500262D01*
X217562507Y-134908590D01*
X217338001Y-134908590D01*
X217042910Y-135199337D01*
X216963557Y-135296028D01*
X216904593Y-135406343D01*
X216868283Y-135526041D01*
X216859688Y-135613308D01*
X216528618Y-135282238D01*
X217306377Y-134504479D01*
X217742112Y-134504479D01*
X217742112Y-134728985D01*
X218333784Y-135320657D01*
X219075716Y-134578725D01*
X219075716Y-134354219D01*
X218935229Y-134209388D01*
X218838538Y-134130035D01*
X218728224Y-134071071D01*
X218608525Y-134034761D01*
X218484044Y-134022501D01*
X218359563Y-134034761D01*
X218239865Y-134071071D01*
X218129550Y-134130035D01*
X218032859Y-134209388D01*
X217742112Y-134504479D01*
X217306377Y-134504479D01*
X219075000Y-132735856D01*
X222864144Y-136525000D01*
X222864144Y-136525000D01*
G37*
X222864144Y-136525000D02*
X213518750Y-145870394D01*
X212677919Y-145029563D01*
X212774157Y-145039041D01*
X212898638Y-145026781D01*
X213018336Y-144990471D01*
X213128651Y-144931507D01*
X213225342Y-144852154D01*
X213516089Y-144557063D01*
X213516089Y-144332557D01*
X212924417Y-143740885D01*
X212910275Y-143755028D01*
X212730670Y-143575423D01*
X212744812Y-143561280D01*
X213104022Y-143561280D01*
X213695694Y-144152952D01*
X213920200Y-144152952D01*
X214215291Y-143862205D01*
X214294644Y-143765514D01*
X214353608Y-143655199D01*
X214389918Y-143535501D01*
X214402178Y-143411020D01*
X214389918Y-143286539D01*
X214353608Y-143166840D01*
X214294644Y-143056526D01*
X214215291Y-142959835D01*
X214070460Y-142819348D01*
X213845954Y-142819348D01*
X213104022Y-143561280D01*
X212744812Y-143561280D01*
X212730670Y-143547138D01*
X212910275Y-143367533D01*
X212924417Y-143381675D01*
X213666349Y-142639743D01*
X213666349Y-142415237D01*
X213525862Y-142270406D01*
X213429171Y-142191053D01*
X213318857Y-142132089D01*
X213199158Y-142095779D01*
X213074677Y-142083519D01*
X212974582Y-142093377D01*
X212975388Y-142085194D01*
X212962037Y-141949638D01*
X213008667Y-141903008D01*
X214782234Y-141903008D01*
X214782234Y-142127514D01*
X215002270Y-142351895D01*
X215098961Y-142431248D01*
X215209276Y-142490212D01*
X215328974Y-142526521D01*
X215453455Y-142538782D01*
X215577937Y-142526521D01*
X215697635Y-142490212D01*
X215807949Y-142431248D01*
X215904640Y-142351895D01*
X216195387Y-142056804D01*
X216195387Y-141832297D01*
X215524166Y-141161076D01*
X214782234Y-141903008D01*
X213008667Y-141903008D01*
X213781025Y-141130650D01*
X213800189Y-141149814D01*
X213896880Y-141229166D01*
X214007194Y-141288131D01*
X214013510Y-141290047D01*
X214015425Y-141296361D01*
X214074389Y-141406676D01*
X214153742Y-141503367D01*
X214378123Y-141723403D01*
X214602629Y-141723403D01*
X215344561Y-140981471D01*
X215330419Y-140967329D01*
X215510024Y-140787724D01*
X215524166Y-140801866D01*
X215538309Y-140787724D01*
X215717914Y-140967329D01*
X215703771Y-140981471D01*
X216374992Y-141652692D01*
X216599499Y-141652692D01*
X216894590Y-141361945D01*
X216973943Y-141265254D01*
X217032907Y-141154940D01*
X217069216Y-141035242D01*
X217074986Y-140976657D01*
X217133572Y-140970887D01*
X217253270Y-140934577D01*
X217363584Y-140875612D01*
X217460275Y-140796260D01*
X218450225Y-139806310D01*
X218529577Y-139709619D01*
X218588542Y-139599305D01*
X218624852Y-139479607D01*
X218637112Y-139355125D01*
X218624852Y-139230643D01*
X218588542Y-139110945D01*
X218529577Y-139000631D01*
X218450225Y-138903940D01*
X218410747Y-138864462D01*
X218411172Y-138860152D01*
X218407486Y-138822729D01*
X218407486Y-138238736D01*
X218971539Y-138238736D01*
X219008962Y-138242422D01*
X219046385Y-138238736D01*
X219046388Y-138238736D01*
X219158340Y-138227710D01*
X219301977Y-138184138D01*
X219312619Y-138178450D01*
X219337315Y-138185941D01*
X219509350Y-138202885D01*
X219681385Y-138185941D01*
X219846809Y-138135760D01*
X219999264Y-138054271D01*
X220132892Y-137944605D01*
X220778127Y-137299370D01*
X220887793Y-137165742D01*
X220969282Y-137013287D01*
X221019463Y-136847863D01*
X221036407Y-136675828D01*
X221019463Y-136503793D01*
X220969282Y-136338369D01*
X220887793Y-136185914D01*
X220778127Y-136052286D01*
X220433412Y-135707571D01*
X220299784Y-135597905D01*
X220147329Y-135516416D01*
X219981905Y-135466235D01*
X219809870Y-135449291D01*
X219801687Y-135450097D01*
X219811545Y-135350002D01*
X219799285Y-135225521D01*
X219762975Y-135105822D01*
X219704011Y-134995508D01*
X219624658Y-134898817D01*
X219479827Y-134758330D01*
X219255321Y-134758330D01*
X218513389Y-135500262D01*
X218527532Y-135514405D01*
X218347927Y-135694010D01*
X218333784Y-135679867D01*
X218319642Y-135694010D01*
X218140037Y-135514405D01*
X218154179Y-135500262D01*
X217562507Y-134908590D01*
X217338001Y-134908590D01*
X217042910Y-135199337D01*
X216963557Y-135296028D01*
X216904593Y-135406343D01*
X216868283Y-135526041D01*
X216859688Y-135613308D01*
X216528618Y-135282238D01*
X217306377Y-134504479D01*
X217742112Y-134504479D01*
X217742112Y-134728985D01*
X218333784Y-135320657D01*
X219075716Y-134578725D01*
X219075716Y-134354219D01*
X218935229Y-134209388D01*
X218838538Y-134130035D01*
X218728224Y-134071071D01*
X218608525Y-134034761D01*
X218484044Y-134022501D01*
X218359563Y-134034761D01*
X218239865Y-134071071D01*
X218129550Y-134130035D01*
X218032859Y-134209388D01*
X217742112Y-134504479D01*
X217306377Y-134504479D01*
X219075000Y-132735856D01*
X222864144Y-136525000D01*
G36*
X215782422Y-136691302D02*
G01*
X215704251Y-136715014D01*
X215593937Y-136773978D01*
X215497246Y-136853331D01*
X215206499Y-137148422D01*
X215206499Y-137372929D01*
X215877720Y-138044150D01*
X215891863Y-138030008D01*
X216071468Y-138209613D01*
X216057325Y-138223755D01*
X216071468Y-138237898D01*
X215891863Y-138417503D01*
X215877720Y-138403360D01*
X215863578Y-138417503D01*
X215683973Y-138237898D01*
X215698115Y-138223755D01*
X215026894Y-137552534D01*
X214802387Y-137552534D01*
X214507296Y-137843281D01*
X214427943Y-137939972D01*
X214368979Y-138050286D01*
X214332670Y-138169984D01*
X214326900Y-138228569D01*
X214280750Y-138233114D01*
X214280750Y-137530106D01*
X215450988Y-136359868D01*
X215782422Y-136691302D01*
X215782422Y-136691302D01*
G37*
X215782422Y-136691302D02*
X215704251Y-136715014D01*
X215593937Y-136773978D01*
X215497246Y-136853331D01*
X215206499Y-137148422D01*
X215206499Y-137372929D01*
X215877720Y-138044150D01*
X215891863Y-138030008D01*
X216071468Y-138209613D01*
X216057325Y-138223755D01*
X216071468Y-138237898D01*
X215891863Y-138417503D01*
X215877720Y-138403360D01*
X215863578Y-138417503D01*
X215683973Y-138237898D01*
X215698115Y-138223755D01*
X215026894Y-137552534D01*
X214802387Y-137552534D01*
X214507296Y-137843281D01*
X214427943Y-137939972D01*
X214368979Y-138050286D01*
X214332670Y-138169984D01*
X214326900Y-138228569D01*
X214280750Y-138233114D01*
X214280750Y-137530106D01*
X215450988Y-136359868D01*
X215782422Y-136691302D01*
G36*
X208621928Y-93326385D02*
G01*
X208621928Y-93826385D01*
X209979928Y-93826385D01*
X209979928Y-93806385D01*
X210233928Y-93806385D01*
X210233928Y-93826385D01*
X210253928Y-93826385D01*
X210253928Y-94080385D01*
X210233928Y-94080385D01*
X210233928Y-95773540D01*
X210463818Y-95894861D01*
X210557881Y-95873948D01*
X210826354Y-95758676D01*
X211067180Y-95593242D01*
X211092428Y-95567336D01*
X211092428Y-96839434D01*
X211067180Y-96813528D01*
X210826354Y-96648094D01*
X210557881Y-96532822D01*
X210463818Y-96511909D01*
X210233928Y-96633230D01*
X210233928Y-98326385D01*
X210253928Y-98326385D01*
X210253928Y-98580385D01*
X210233928Y-98580385D01*
X210233928Y-98600385D01*
X209979928Y-98600385D01*
X209979928Y-98580385D01*
X208179928Y-98580385D01*
X208179928Y-98600385D01*
X208145000Y-98600385D01*
X208145000Y-97328385D01*
X208132740Y-97203903D01*
X208096430Y-97084205D01*
X208037465Y-96973891D01*
X207958113Y-96877200D01*
X207933928Y-96857352D01*
X207933928Y-96852135D01*
X208179928Y-96852135D01*
X208179928Y-98326385D01*
X209979928Y-98326385D01*
X209979928Y-96633230D01*
X209750038Y-96511909D01*
X209655975Y-96532822D01*
X209387502Y-96648094D01*
X209146676Y-96813528D01*
X208942752Y-97022766D01*
X208898871Y-97090303D01*
X208841334Y-96979751D01*
X208763051Y-96882192D01*
X208667239Y-96801781D01*
X208557580Y-96741606D01*
X208438289Y-96703981D01*
X208338678Y-96693385D01*
X208179928Y-96852135D01*
X207933928Y-96852135D01*
X207775178Y-96693385D01*
X207675567Y-96703981D01*
X207656194Y-96710091D01*
X207631410Y-96702573D01*
X207506928Y-96690313D01*
X207006928Y-96690313D01*
X206882446Y-96702573D01*
X206856928Y-96710314D01*
X206831410Y-96702573D01*
X206706928Y-96690313D01*
X206206928Y-96690313D01*
X206082446Y-96702573D01*
X206056928Y-96710314D01*
X206031410Y-96702573D01*
X205906928Y-96690313D01*
X205406928Y-96690313D01*
X205282446Y-96702573D01*
X205256928Y-96710314D01*
X205231410Y-96702573D01*
X205106928Y-96690313D01*
X204606928Y-96690313D01*
X204482446Y-96702573D01*
X204362748Y-96738883D01*
X204252434Y-96797848D01*
X204155743Y-96877200D01*
X204076391Y-96973891D01*
X204017426Y-97084205D01*
X204015388Y-97090923D01*
X203971104Y-97022766D01*
X203767180Y-96813528D01*
X203526354Y-96648094D01*
X203257881Y-96532822D01*
X203163818Y-96511909D01*
X202933928Y-96633230D01*
X202933928Y-98326385D01*
X202953928Y-98326385D01*
X202953928Y-98580385D01*
X202933928Y-98580385D01*
X202933928Y-98600385D01*
X202679928Y-98600385D01*
X202679928Y-98580385D01*
X202659928Y-98580385D01*
X202659928Y-98326385D01*
X202679928Y-98326385D01*
X202679928Y-96633230D01*
X202450038Y-96511909D01*
X202355975Y-96532822D01*
X202087502Y-96648094D01*
X201846676Y-96813528D01*
X201821428Y-96839434D01*
X201821428Y-95567336D01*
X201846676Y-95593242D01*
X202087502Y-95758676D01*
X202355975Y-95873948D01*
X202450038Y-95894861D01*
X202679928Y-95773540D01*
X202679928Y-94080385D01*
X202933928Y-94080385D01*
X202933928Y-95773540D01*
X203163818Y-95894861D01*
X203257881Y-95873948D01*
X203526354Y-95758676D01*
X203767180Y-95593242D01*
X203971104Y-95384004D01*
X204130289Y-95139003D01*
X204238618Y-94867654D01*
X204291928Y-94580385D01*
X204291928Y-94080385D01*
X208621928Y-94080385D01*
X208621928Y-94580385D01*
X208675238Y-94867654D01*
X208783567Y-95139003D01*
X208942752Y-95384004D01*
X209146676Y-95593242D01*
X209387502Y-95758676D01*
X209655975Y-95873948D01*
X209750038Y-95894861D01*
X209979928Y-95773540D01*
X209979928Y-94080385D01*
X208621928Y-94080385D01*
X204291928Y-94080385D01*
X202933928Y-94080385D01*
X202679928Y-94080385D01*
X202659928Y-94080385D01*
X202659928Y-93826385D01*
X202679928Y-93826385D01*
X202679928Y-93806385D01*
X202933928Y-93806385D01*
X202933928Y-93826385D01*
X204291928Y-93826385D01*
X204291928Y-93326385D01*
X204284551Y-93286635D01*
X208629305Y-93286635D01*
X208621928Y-93326385D01*
X208621928Y-93326385D01*
G37*
X208621928Y-93326385D02*
X208621928Y-93826385D01*
X209979928Y-93826385D01*
X209979928Y-93806385D01*
X210233928Y-93806385D01*
X210233928Y-93826385D01*
X210253928Y-93826385D01*
X210253928Y-94080385D01*
X210233928Y-94080385D01*
X210233928Y-95773540D01*
X210463818Y-95894861D01*
X210557881Y-95873948D01*
X210826354Y-95758676D01*
X211067180Y-95593242D01*
X211092428Y-95567336D01*
X211092428Y-96839434D01*
X211067180Y-96813528D01*
X210826354Y-96648094D01*
X210557881Y-96532822D01*
X210463818Y-96511909D01*
X210233928Y-96633230D01*
X210233928Y-98326385D01*
X210253928Y-98326385D01*
X210253928Y-98580385D01*
X210233928Y-98580385D01*
X210233928Y-98600385D01*
X209979928Y-98600385D01*
X209979928Y-98580385D01*
X208179928Y-98580385D01*
X208179928Y-98600385D01*
X208145000Y-98600385D01*
X208145000Y-97328385D01*
X208132740Y-97203903D01*
X208096430Y-97084205D01*
X208037465Y-96973891D01*
X207958113Y-96877200D01*
X207933928Y-96857352D01*
X207933928Y-96852135D01*
X208179928Y-96852135D01*
X208179928Y-98326385D01*
X209979928Y-98326385D01*
X209979928Y-96633230D01*
X209750038Y-96511909D01*
X209655975Y-96532822D01*
X209387502Y-96648094D01*
X209146676Y-96813528D01*
X208942752Y-97022766D01*
X208898871Y-97090303D01*
X208841334Y-96979751D01*
X208763051Y-96882192D01*
X208667239Y-96801781D01*
X208557580Y-96741606D01*
X208438289Y-96703981D01*
X208338678Y-96693385D01*
X208179928Y-96852135D01*
X207933928Y-96852135D01*
X207775178Y-96693385D01*
X207675567Y-96703981D01*
X207656194Y-96710091D01*
X207631410Y-96702573D01*
X207506928Y-96690313D01*
X207006928Y-96690313D01*
X206882446Y-96702573D01*
X206856928Y-96710314D01*
X206831410Y-96702573D01*
X206706928Y-96690313D01*
X206206928Y-96690313D01*
X206082446Y-96702573D01*
X206056928Y-96710314D01*
X206031410Y-96702573D01*
X205906928Y-96690313D01*
X205406928Y-96690313D01*
X205282446Y-96702573D01*
X205256928Y-96710314D01*
X205231410Y-96702573D01*
X205106928Y-96690313D01*
X204606928Y-96690313D01*
X204482446Y-96702573D01*
X204362748Y-96738883D01*
X204252434Y-96797848D01*
X204155743Y-96877200D01*
X204076391Y-96973891D01*
X204017426Y-97084205D01*
X204015388Y-97090923D01*
X203971104Y-97022766D01*
X203767180Y-96813528D01*
X203526354Y-96648094D01*
X203257881Y-96532822D01*
X203163818Y-96511909D01*
X202933928Y-96633230D01*
X202933928Y-98326385D01*
X202953928Y-98326385D01*
X202953928Y-98580385D01*
X202933928Y-98580385D01*
X202933928Y-98600385D01*
X202679928Y-98600385D01*
X202679928Y-98580385D01*
X202659928Y-98580385D01*
X202659928Y-98326385D01*
X202679928Y-98326385D01*
X202679928Y-96633230D01*
X202450038Y-96511909D01*
X202355975Y-96532822D01*
X202087502Y-96648094D01*
X201846676Y-96813528D01*
X201821428Y-96839434D01*
X201821428Y-95567336D01*
X201846676Y-95593242D01*
X202087502Y-95758676D01*
X202355975Y-95873948D01*
X202450038Y-95894861D01*
X202679928Y-95773540D01*
X202679928Y-94080385D01*
X202933928Y-94080385D01*
X202933928Y-95773540D01*
X203163818Y-95894861D01*
X203257881Y-95873948D01*
X203526354Y-95758676D01*
X203767180Y-95593242D01*
X203971104Y-95384004D01*
X204130289Y-95139003D01*
X204238618Y-94867654D01*
X204291928Y-94580385D01*
X204291928Y-94080385D01*
X208621928Y-94080385D01*
X208621928Y-94580385D01*
X208675238Y-94867654D01*
X208783567Y-95139003D01*
X208942752Y-95384004D01*
X209146676Y-95593242D01*
X209387502Y-95758676D01*
X209655975Y-95873948D01*
X209750038Y-95894861D01*
X209979928Y-95773540D01*
X209979928Y-94080385D01*
X208621928Y-94080385D01*
X204291928Y-94080385D01*
X202933928Y-94080385D01*
X202679928Y-94080385D01*
X202659928Y-94080385D01*
X202659928Y-93826385D01*
X202679928Y-93826385D01*
X202679928Y-93806385D01*
X202933928Y-93806385D01*
X202933928Y-93826385D01*
X204291928Y-93826385D01*
X204291928Y-93326385D01*
X204284551Y-93286635D01*
X208629305Y-93286635D01*
X208621928Y-93326385D01*
M02*
